<svg width="511" height="454" viewBox="0 0 511 454" fill="none" xmlns="http://www.w3.org/2000/svg">
<path d="M373.882 53.2633C373.882 53.2633 364.456 35.2738 349.645 45.44C334.833 55.6062 341.04 69.6773 334.012 72.0337C326.983 74.3901 321.503 65.7724 314.46 69.6773C307.418 73.5822 309.761 79.8435 305.035 79.8435C300.308 79.8435 291.744 75.9386 287.826 77.5006C283.908 79.0626 278.4 87.6668 278.4 87.6668C278.4 87.6668 238.53 90.0098 243.216 94.7091C247.902 99.4085 359.73 94.7091 359.73 94.7091C359.73 94.7091 333.931 100.957 348.002 104.135C362.073 107.313 424.646 104.135 424.646 104.135C424.646 104.135 434.071 92.4066 429.332 84.5833C424.592 76.76 406.656 85.3643 402.738 80.6784C398.82 75.9925 408.999 72.8551 400.395 63.4699C391.791 54.0846 381.692 56.3872 373.882 53.2633Z" fill="white" stroke="#5955B3" stroke-width="0.485328" stroke-linecap="round" stroke-linejoin="round"/>
<g style="mix-blend-mode:multiply" opacity="0.51">
<path d="M430.664 90.6023C430.563 90.1091 430.563 89.6007 430.664 89.1076C430.606 87.4972 430.143 85.9274 429.318 84.5429C424.632 76.7197 406.642 85.3239 402.724 80.638C398.806 75.9521 408.985 72.8147 400.381 63.4295C394.524 57.0336 387.953 56.091 381.88 55.1484C380.617 55.6788 379.413 56.3376 378.285 57.1144C363.473 67.2806 369.68 81.3517 362.638 83.6946C355.596 86.0376 350.129 77.4468 343.087 81.3517C336.044 85.2566 338.401 91.5179 333.661 91.5179C328.921 91.5179 320.371 87.613 316.466 89.175C314.083 90.131 311.08 93.6992 309.168 96.3384C335.506 95.719 359.676 94.7091 359.676 94.7091C359.676 94.7091 333.877 100.957 347.948 104.135C362.019 107.313 424.592 104.135 424.592 104.135C424.592 104.135 430.139 97.2945 430.664 90.6023Z" fill="#111122"/>
</g>
<path d="M122.541 273.486C122.541 273.486 116.738 262.363 107.541 268.652C98.3442 274.94 102.155 283.652 97.8594 285.106C93.564 286.56 90.1169 281.228 85.7408 283.652C81.3646 286.076 82.8323 289.94 79.9373 289.94C77.0423 289.94 71.71 287.53 69.2863 288.486C66.8626 289.442 63.4828 294.788 63.4828 294.788C63.4828 294.788 38.8281 296.228 41.7365 299.204C44.645 302.18 113.829 299.204 113.829 299.204C113.829 299.204 97.8594 303.069 106.571 305.008C115.283 306.947 153.996 305.008 153.996 305.008C153.996 305.008 159.799 297.75 156.904 292.889C154.009 288.028 142.86 293.374 140.45 290.465C138.04 287.557 144.314 285.631 138.996 279.828C133.677 274.024 127.375 275.425 122.541 273.486Z" fill="white" stroke="#5955B3" stroke-width="0.485328" stroke-linecap="round" stroke-linejoin="round"/>
<g style="mix-blend-mode:multiply" opacity="0.51">
<path d="M153.996 304.941C153.996 304.941 159.799 297.683 156.904 292.822C154.009 287.961 142.86 293.307 140.45 290.398C138.04 287.49 144.314 285.564 138.996 279.761C133.879 274.173 127.874 275.29 123.12 273.661C116.738 280.246 119.579 288.23 115.62 289.658C111.271 291.247 107.878 285.443 103.502 288.082C99.1253 290.722 100.593 294.923 97.698 294.923C94.803 294.923 89.4708 292.297 87.0471 293.347C84.6233 294.398 81.5667 299.635 81.2705 300.147C98.0616 299.77 113.802 299.11 113.802 299.11C113.802 299.11 97.8327 302.975 106.545 304.914C108.986 305.346 111.458 305.584 113.937 305.627C124.076 305.277 131.563 304.941 131.563 304.941C131.563 304.941 130.405 305.237 128.87 305.722C141.366 305.574 153.996 304.941 153.996 304.941Z" fill="#111122"/>
</g>
<path d="M187.174 33.806C187.174 33.806 181.371 22.6837 172.174 28.972C162.977 35.2602 166.788 43.9722 162.493 45.4264C158.197 46.8806 154.75 41.5484 150.374 43.9722C145.998 46.3959 147.465 50.2604 144.57 50.2604C141.675 50.2604 136.343 47.8367 133.919 48.8062C131.496 49.7757 128.116 55.1079 128.116 55.1079C128.116 55.1079 103.434 56.5486 106.343 59.4571C109.251 62.3656 178.435 59.4571 178.435 59.4571C178.435 59.4571 162.466 63.3216 171.178 65.2606C179.89 67.1996 218.602 65.2606 218.602 65.2606C218.602 65.2606 224.405 58.0029 221.51 53.142C218.615 48.281 207.466 53.6267 205.056 50.7182C202.646 47.8097 208.921 45.8842 203.602 40.0807C198.283 34.2772 192.008 35.7449 187.174 33.806Z" fill="white" stroke="#5955B3" stroke-width="0.485328" stroke-linecap="round" stroke-linejoin="round"/>
<g style="mix-blend-mode:multiply" opacity="0.51">
<path d="M218.629 65.2609C218.629 65.2609 224.432 58.0032 221.537 53.1423C218.642 48.2814 207.493 53.627 205.083 50.7186C202.673 47.8101 208.947 45.8846 203.629 40.0811C199.239 35.2875 194.203 35.4356 189.84 34.5469C181.034 40.8216 184.75 49.3586 180.415 50.7859C176.079 52.2132 172.672 46.9079 168.296 49.3316C163.92 51.7554 165.401 55.6199 162.493 55.6199C159.584 55.6199 154.265 53.1961 151.842 54.1656C149.418 55.1351 146.038 60.4673 146.038 60.4673C162.775 60.0903 178.449 59.4305 178.449 59.4305C178.449 59.4305 162.479 63.295 171.191 65.234C171.991 65.4046 172.8 65.526 173.615 65.5976C186.272 65.2475 196.411 64.8166 196.411 64.8166C196.411 64.8166 194.297 65.3283 192.035 66.0689C204.975 65.9477 218.629 65.2609 218.629 65.2609Z" fill="#111122"/>
</g>
<path d="M421.239 93.5511C421.239 93.5511 415.435 82.4288 406.239 88.7171C397.042 95.0053 400.92 103.717 396.571 105.172C392.221 106.626 388.828 101.294 384.452 103.717C380.076 106.141 381.557 110.006 378.648 110.006C375.74 110.006 370.421 107.582 367.998 108.551C365.574 109.521 362.194 114.84 362.194 114.84C362.194 114.84 337.512 116.294 340.421 119.202C343.329 122.111 412.513 119.202 412.513 119.202C412.513 119.202 396.557 123.067 405.256 125.006C413.954 126.945 452.68 125.006 452.68 125.006C452.68 125.006 458.484 117.748 455.589 112.887C452.694 108.026 441.558 113.372 439.134 110.463C436.71 107.555 442.999 105.629 437.68 99.8124C432.361 93.9954 426.086 95.4901 421.239 93.5511Z" fill="white" stroke="#5955B3" stroke-width="0.485328" stroke-linecap="round" stroke-linejoin="round"/>
<g style="mix-blend-mode:multiply" opacity="0.51">
<path d="M452.695 125.006C452.695 125.006 458.498 117.748 455.603 112.887C452.708 108.026 441.572 113.372 439.149 110.464C436.725 107.555 442.609 105.737 438.112 100.324C437.567 100.188 437.032 100.017 436.509 99.8125C436.039 98.9706 435.494 98.1729 434.88 97.4292C430.921 94.8439 426.666 95.0055 423.017 94.0898C422.493 94.3486 421.989 94.6457 421.509 94.9786C412.312 101.267 416.123 109.979 411.828 111.42C407.532 112.86 404.085 107.555 399.709 109.979C395.333 112.402 396.801 116.267 393.892 116.267C390.984 116.267 385.665 113.843 383.255 114.813C381.437 115.54 379.08 118.704 378.017 120.199C395.521 119.835 412.501 119.122 412.501 119.122C412.501 119.122 396.545 122.986 405.243 124.925C409.508 125.558 413.818 125.842 418.129 125.773L427.77 125.41C427.77 125.41 427.232 125.531 426.424 125.76C439.27 125.679 452.695 125.006 452.695 125.006Z" fill="#111122"/>
</g>
<path d="M240.562 75.1846V80.1532" stroke="white" stroke-width="0.485328" stroke-linecap="round" stroke-linejoin="round"/>
<path d="M317.772 228.97L363.554 319.186C363.891 319.857 364.051 320.602 364.02 321.351C363.988 322.101 363.765 322.83 363.373 323.47C362.98 324.109 362.431 324.637 361.777 325.005C361.123 325.372 360.386 325.566 359.635 325.569H298.369C296.721 325.58 295.137 324.936 293.963 323.78C292.789 322.624 292.122 321.049 292.107 319.402V231.165L317.772 228.97Z" fill="#5955B3" stroke="#5955B3" stroke-width="0.485328" stroke-linecap="round" stroke-linejoin="round"/>
<path d="M353.24 325.42L304.765 230.087L292.148 231.164V319.401C292.148 321.051 292.804 322.634 293.971 323.8C295.137 324.967 296.719 325.622 298.369 325.622H353.321C353.3 325.553 353.273 325.485 353.24 325.42Z" fill="white" stroke="#111122" stroke-width="0.485328" stroke-miterlimit="10"/>
<path d="M196.424 228.97L150.643 319.186C150.306 319.857 150.145 320.602 150.177 321.351C150.208 322.101 150.431 322.83 150.824 323.47C151.216 324.109 151.766 324.637 152.42 325.005C153.074 325.372 153.811 325.566 154.561 325.569H215.855C217.498 325.573 219.075 324.926 220.243 323.771C221.411 322.615 222.075 321.045 222.089 319.402V231.165L196.424 228.97Z" fill="#5955B3" stroke="#5955B3" stroke-width="0.485328" stroke-linecap="round" stroke-linejoin="round"/>
<path d="M160.943 325.42L209.418 230.087L222.021 231.164V319.401C222.021 321.051 221.366 322.634 220.199 323.8C219.032 324.967 217.45 325.622 215.8 325.622H160.862L160.943 325.42Z" fill="white" stroke="#111122" stroke-width="0.485328" stroke-miterlimit="10"/>
<g style="mix-blend-mode:multiply">
<path d="M209.432 230.087L172.402 302.907C185.396 293.643 202.335 284.325 222.035 279.895V231.164L209.432 230.087Z" fill="#111122"/>
</g>
<path d="M235.864 288.742L219.544 316.992H252.17L235.864 288.742Z" fill="#111122" stroke="#5955B3" stroke-width="0.485328" stroke-linecap="round" stroke-linejoin="round"/>
<path d="M278.576 288.742L262.27 316.992H294.896L278.576 288.742Z" fill="#111122" stroke="#5955B3" stroke-width="0.485328" stroke-linecap="round" stroke-linejoin="round"/>
<path d="M252.601 316.695H218.871V322.782H252.601V316.695Z" fill="#5955B3" stroke="#5955B3" stroke-width="0.485328" stroke-linecap="round" stroke-linejoin="round"/>
<path d="M295.286 316.695H261.556V322.782H295.286V316.695Z" fill="#5955B3" stroke="#5955B3" stroke-width="0.485328" stroke-linecap="round" stroke-linejoin="round"/>
<path d="M262.942 2.71443C262.204 1.86642 261.292 1.18654 260.269 0.720647C259.246 0.254753 258.135 0.0136719 257.011 0.0136719C255.886 0.0136719 254.775 0.254753 253.752 0.720647C252.729 1.18654 251.817 1.86642 251.079 2.71443C235.554 20.5827 194.781 72.0467 194.781 120.629V262.646L217.241 303.648H297.103L319.563 262.646V120.629C319.563 72.0332 278.562 20.5558 262.942 2.71443Z" fill="white" stroke="#111122" stroke-width="0.485328" stroke-miterlimit="10"/>
<path d="M256.667 5.6631C256.667 3.13165 249.504 18.2261 244.454 24.8241C244.535 24.2585 244.629 23.7064 244.71 23.1409C244.71 23.1409 214.696 61.4089 205.661 97.4283C204.714 101.134 203.964 104.887 203.412 108.672C202.739 113.196 201.904 214.4 201.46 274.913L217.241 303.648H256.223C255.442 300.699 257.569 287.112 256.667 283.557V5.6631Z" fill="#111122"/>
<path d="M209.149 260.182C210.257 260.182 211.155 259.283 211.155 258.175C211.155 257.067 210.257 256.169 209.149 256.169C208.041 256.169 207.143 257.067 207.143 258.175C207.143 259.283 208.041 260.182 209.149 260.182Z" stroke="#5955B3" stroke-width="0.485328" stroke-linecap="round" stroke-linejoin="round"/>
<path d="M220.082 260.182C221.191 260.182 222.089 259.283 222.089 258.175C222.089 257.067 221.191 256.169 220.082 256.169C218.974 256.169 218.076 257.067 218.076 258.175C218.076 259.283 218.974 260.182 220.082 260.182Z" stroke="#5955B3" stroke-width="0.485328" stroke-linecap="round" stroke-linejoin="round"/>
<path d="M231.016 260.182C232.124 260.182 233.022 259.283 233.022 258.175C233.022 257.067 232.124 256.169 231.016 256.169C229.908 256.169 229.01 257.067 229.01 258.175C229.01 259.283 229.908 260.182 231.016 260.182Z" stroke="#5955B3" stroke-width="0.485328" stroke-linecap="round" stroke-linejoin="round"/>
<path d="M241.95 260.182C243.058 260.182 243.956 259.283 243.956 258.175C243.956 257.067 243.058 256.169 241.95 256.169C240.842 256.169 239.943 257.067 239.943 258.175C239.943 259.283 240.842 260.182 241.95 260.182Z" stroke="#5955B3" stroke-width="0.485328" stroke-linecap="round" stroke-linejoin="round"/>
<path d="M272.058 260.182C273.166 260.182 274.064 259.283 274.064 258.175C274.064 257.067 273.166 256.169 272.058 256.169C270.95 256.169 270.052 257.067 270.052 258.175C270.052 259.283 270.95 260.182 272.058 260.182Z" stroke="#5955B3" stroke-width="0.485328" stroke-linecap="round" stroke-linejoin="round"/>
<path d="M282.992 260.182C284.1 260.182 284.998 259.283 284.998 258.175C284.998 257.067 284.1 256.169 282.992 256.169C281.884 256.169 280.985 257.067 280.985 258.175C280.985 259.283 281.884 260.182 282.992 260.182Z" stroke="#5955B3" stroke-width="0.485328" stroke-linecap="round" stroke-linejoin="round"/>
<path d="M293.925 260.182C295.033 260.182 295.932 259.283 295.932 258.175C295.932 257.067 295.033 256.169 293.925 256.169C292.817 256.169 291.919 257.067 291.919 258.175C291.919 259.283 292.817 260.182 293.925 260.182Z" stroke="#5955B3" stroke-width="0.485328" stroke-linecap="round" stroke-linejoin="round"/>
<path d="M304.859 260.182C305.967 260.182 306.865 259.283 306.865 258.175C306.865 257.067 305.967 256.169 304.859 256.169C303.751 256.169 302.853 257.067 302.853 258.175C302.853 259.283 303.751 260.182 304.859 260.182Z" stroke="#5955B3" stroke-width="0.485328" stroke-linecap="round" stroke-linejoin="round"/>
<path d="M202.093 128.021V261.192" stroke="#5955B3" stroke-width="0.485328" stroke-linecap="round" stroke-linejoin="round"/>
<path d="M214.185 74.0527C208.3 87.114 203.803 101.158 202.483 115.135" stroke="#5955B3" stroke-width="0.485328" stroke-linecap="round" stroke-linejoin="round"/>
<path d="M263.239 11.9108C262.612 11.0746 261.798 10.396 260.863 9.92855C259.929 9.46112 258.898 9.21777 257.853 9.21777C256.807 9.21777 255.777 9.46112 254.842 9.92855C253.907 10.396 253.094 11.0746 252.466 11.9108C240.218 27.2886 229.495 43.8208 220.446 61.2742" stroke="#5955B3" stroke-width="0.485328" stroke-linecap="round" stroke-linejoin="round"/>
<path d="M284.123 140.625C279.357 140.625 274.787 138.733 271.416 135.365C268.046 131.997 266.15 127.428 266.146 122.663C266.146 117.895 268.04 113.323 271.412 109.952C274.783 106.58 279.355 104.687 284.123 104.687C288.888 104.69 293.457 106.586 296.825 109.956C300.193 113.327 302.085 117.897 302.085 122.663C302.085 127.427 300.193 131.995 296.824 135.364C293.455 138.733 288.886 140.625 284.123 140.625Z" fill="#5955B3" stroke="#5955B3" stroke-width="0.485328" stroke-linecap="round" stroke-linejoin="round"/>
<path d="M284.123 141.662C280.356 141.664 276.673 140.549 273.54 138.458C270.406 136.367 267.964 133.394 266.521 129.914C265.078 126.435 264.7 122.605 265.435 118.911C266.169 115.216 267.982 111.822 270.646 109.159C273.31 106.495 276.703 104.681 280.398 103.947C284.093 103.213 287.922 103.591 291.402 105.034C294.881 106.477 297.855 108.919 299.946 112.052C302.037 115.185 303.152 118.868 303.149 122.635C303.142 127.679 301.135 132.514 297.568 136.081C294.002 139.648 289.166 141.654 284.123 141.662ZM284.123 105.723C280.778 105.723 277.508 106.715 274.727 108.573C271.945 110.432 269.778 113.073 268.498 116.163C267.218 119.254 266.883 122.654 267.535 125.935C268.188 129.215 269.799 132.229 272.164 134.594C274.529 136.959 277.542 138.57 280.823 139.223C284.104 139.875 287.504 139.54 290.595 138.26C293.685 136.98 296.326 134.812 298.185 132.031C300.043 129.25 301.035 125.98 301.035 122.635C301.024 118.156 299.238 113.863 296.068 110.698C292.898 107.533 288.602 105.753 284.123 105.75V105.723Z" fill="white" stroke="#5955B3" stroke-width="0.363996" stroke-miterlimit="10"/>
<path fill-rule="evenodd" clip-rule="evenodd" d="M294.478 122.217C294.372 119.739 293.318 117.396 291.535 115.672C289.751 113.948 287.374 112.974 284.893 112.952C282.413 112.929 280.018 113.86 278.204 115.551C276.389 117.243 275.293 119.566 275.142 122.042C275.142 122.19 275.142 122.325 275.142 122.46C275.13 124.208 275.596 125.926 276.489 127.428L274.738 132.572L280.124 130.875C281.562 131.66 283.173 132.072 284.81 132.074C286.076 132.077 287.331 131.831 288.502 131.35C289.673 130.869 290.738 130.162 291.635 129.269C292.533 128.376 293.246 127.315 293.734 126.147C294.222 124.979 294.475 123.726 294.478 122.46V122.217ZM284.81 130.539C283.215 130.542 281.655 130.074 280.326 129.192L277.202 130.189L278.212 127.186C277.209 125.809 276.667 124.15 276.664 122.446C276.65 122.186 276.65 121.925 276.664 121.665C276.685 119.523 277.557 117.476 279.087 115.976C280.618 114.476 282.681 113.646 284.824 113.667C286.966 113.688 289.013 114.56 290.513 116.09C292.013 117.621 292.843 119.684 292.822 121.827C292.822 122.029 292.822 122.244 292.822 122.446C292.826 124.58 291.985 126.628 290.484 128.144C288.983 129.66 286.944 130.521 284.81 130.539Z" fill="white"/>
<path fill-rule="evenodd" clip-rule="evenodd" d="M289.24 124.4C288.998 124.292 287.894 123.713 287.624 123.645C287.355 123.578 287.247 123.524 287.086 123.753C286.924 123.982 286.466 124.521 286.332 124.682C286.264 124.75 286.172 124.788 286.076 124.788C285.98 124.788 285.888 124.75 285.82 124.682C285.118 124.408 284.471 124.012 283.908 123.511C283.378 123.04 282.924 122.491 282.561 121.882C282.427 121.653 282.561 121.531 282.669 121.41C282.777 121.289 282.898 121.128 283.019 120.993L283.113 120.885L283.262 120.602C283.298 120.539 283.317 120.467 283.317 120.394C283.317 120.32 283.298 120.248 283.262 120.185C283.262 120.077 282.736 118.838 282.534 118.434C282.332 118.031 282.144 118.044 281.996 118.044H281.551C281.431 118.046 281.312 118.073 281.203 118.124C281.094 118.175 280.997 118.249 280.919 118.34C280.647 118.59 280.433 118.894 280.289 119.233C280.145 119.572 280.075 119.938 280.084 120.306C280.09 120.575 280.131 120.842 280.205 121.101C280.386 121.691 280.674 122.243 281.053 122.73C282.037 124.272 283.438 125.505 285.093 126.285C287.503 127.227 287.503 126.918 287.934 126.877C288.265 126.816 288.58 126.685 288.856 126.492C289.133 126.299 289.365 126.05 289.536 125.76C289.691 125.409 289.743 125.021 289.684 124.642C289.551 124.536 289.401 124.454 289.24 124.4Z" fill="white"/>
<path d="M258.768 180.132C256.407 180.132 254.07 179.667 251.889 178.764C249.708 177.86 247.726 176.536 246.057 174.867C244.388 173.198 243.064 171.216 242.16 169.035C241.257 166.854 240.792 164.517 240.792 162.156C240.796 157.391 242.691 152.822 246.062 149.454C249.433 146.085 254.003 144.193 258.768 144.193C263.532 144.193 268.101 146.086 271.469 149.454C274.838 152.823 276.731 157.392 276.731 162.156C276.731 166.921 274.839 171.491 271.47 174.862C268.102 178.233 263.533 180.128 258.768 180.132Z" fill="#5955B3" stroke="#5955B3" stroke-width="0.485328" stroke-linecap="round" stroke-linejoin="round"/>
<path d="M258.768 181.182C255.004 181.182 251.326 180.066 248.197 177.975C245.068 175.884 242.63 172.913 241.19 169.436C239.749 165.96 239.373 162.134 240.107 158.443C240.841 154.753 242.653 151.362 245.314 148.702C247.975 146.041 251.365 144.229 255.056 143.495C258.746 142.76 262.572 143.137 266.049 144.577C269.525 146.017 272.497 148.456 274.587 151.585C276.678 154.714 277.794 158.392 277.794 162.155C277.787 167.199 275.78 172.034 272.213 175.601C268.647 179.168 263.811 181.174 258.768 181.182ZM258.768 145.243C254.282 145.243 249.98 147.025 246.809 150.196C243.637 153.368 241.855 157.67 241.855 162.155C241.855 166.641 243.637 170.942 246.809 174.114C249.98 177.286 254.282 179.067 258.768 179.067C263.253 179.067 267.555 177.286 270.726 174.114C273.898 170.942 275.68 166.641 275.68 162.155C275.68 157.67 273.898 153.368 270.726 150.196C267.555 147.025 263.253 145.243 258.768 145.243Z" fill="white" stroke="#5955B3" stroke-width="0.363996" stroke-miterlimit="10"/>
<path d="M269.5 156.729C269.375 156.252 269.126 155.816 268.778 155.466C268.431 155.116 267.997 154.864 267.521 154.736C261.703 154.108 255.834 154.108 250.016 154.736C249.54 154.864 249.106 155.116 248.758 155.466C248.411 155.816 248.162 156.252 248.037 156.729C247.408 160.319 247.408 163.991 248.037 167.582C248.162 168.059 248.411 168.494 248.758 168.844C249.106 169.194 249.54 169.446 250.016 169.575C255.834 170.203 261.703 170.203 267.521 169.575C267.997 169.446 268.431 169.194 268.778 168.844C269.126 168.494 269.375 168.059 269.5 167.582C270.128 163.991 270.128 160.319 269.5 156.729Z" fill="white"/>
<path d="M256.479 165.495V158.83L262.336 162.156L256.479 165.495Z" fill="#5955B3"/>
<path d="M258.768 98.7745C254.003 98.7745 249.433 96.8824 246.062 93.5142C242.691 90.146 240.796 85.5771 240.792 80.8119C240.792 76.0444 242.686 71.4721 246.057 68.101C249.428 64.7298 254 62.8359 258.768 62.8359C263.533 62.8395 268.102 64.735 271.47 68.1057C274.839 71.4765 276.731 76.0467 276.731 80.8119C276.731 85.5759 274.838 90.1447 271.469 93.5134C268.101 96.882 263.532 98.7745 258.768 98.7745Z" fill="#5955B3" stroke="#5955B3" stroke-width="0.485328" stroke-linecap="round" stroke-linejoin="round"/>
<path d="M258.768 99.8387C255.004 99.8387 251.326 98.7229 248.197 96.6322C245.068 94.5416 242.63 91.5701 241.19 88.0935C239.749 84.6169 239.373 80.7913 240.107 77.1006C240.841 73.4099 242.653 70.0197 245.314 67.3588C247.975 64.6979 251.365 62.8859 255.056 62.1517C258.746 61.4176 262.572 61.7944 266.049 63.2344C269.525 64.6745 272.497 67.1131 274.587 70.242C276.678 73.3709 277.794 77.0494 277.794 80.8124C277.787 85.8563 275.78 90.6916 272.213 94.2582C268.647 97.8248 263.811 99.8316 258.768 99.8387ZM258.768 63.9002C255.423 63.9002 252.153 64.8921 249.372 66.7504C246.59 68.6087 244.423 71.2501 243.143 74.3404C241.863 77.4307 241.528 80.8312 242.18 84.1119C242.833 87.3925 244.444 90.406 246.809 92.7712C249.174 95.1364 252.187 96.7472 255.468 97.3997C258.749 98.0523 262.149 97.7174 265.24 96.4373C268.33 95.1573 270.971 92.9896 272.83 90.2084C274.688 87.4272 275.68 84.1574 275.68 80.8124C275.676 76.3281 273.893 72.0285 270.722 68.8576C267.551 65.6867 263.252 63.9037 258.768 63.9002Z" fill="white" stroke="#5955B3" stroke-width="0.363996" stroke-miterlimit="10"/>
<path d="M255.913 91.6791H260.29V80.7184H263.346L263.669 77.0559H260.29V74.9688C260.29 74.0936 260.465 73.7569 261.299 73.7569H263.669V69.9463H260.64C257.381 69.9463 255.913 71.3871 255.913 74.1205V77.029H253.638V80.7319H255.913V91.6791Z" fill="white"/>
<path d="M233.077 224.445C228.311 224.445 223.741 222.553 220.37 219.185C217 215.817 215.104 211.248 215.101 206.483C215.101 201.715 216.994 197.143 220.366 193.772C223.737 190.401 228.309 188.507 233.077 188.507C237.842 188.51 242.411 190.406 245.779 193.777C249.147 197.147 251.039 201.718 251.039 206.483C251.039 211.247 249.147 215.816 245.778 219.184C242.409 222.553 237.841 224.445 233.077 224.445Z" fill="#5955B3" stroke="#5955B3" stroke-width="0.485328" stroke-linecap="round" stroke-linejoin="round"/>
<path d="M233.077 225.509C229.31 225.512 225.627 224.397 222.494 222.306C219.361 220.215 216.918 217.241 215.475 213.762C214.033 210.282 213.654 206.453 214.389 202.758C215.123 199.064 216.936 195.67 219.6 193.006C222.264 190.343 225.657 188.529 229.352 187.795C233.047 187.061 236.876 187.439 240.356 188.882C243.835 190.324 246.809 192.767 248.9 195.9C250.991 199.033 252.106 202.716 252.103 206.483C252.096 211.527 250.089 216.362 246.522 219.929C242.956 223.495 238.121 225.502 233.077 225.509ZM233.077 189.571C229.732 189.571 226.462 190.563 223.681 192.421C220.9 194.279 218.732 196.921 217.452 200.011C216.172 203.101 215.837 206.502 216.489 209.782C217.142 213.063 218.753 216.076 221.118 218.442C223.483 220.807 226.497 222.418 229.777 223.07C233.058 223.723 236.458 223.388 239.549 222.108C242.639 220.828 245.28 218.66 247.139 215.879C248.997 213.098 249.989 209.828 249.989 206.483C249.985 201.999 248.202 197.699 245.032 194.528C241.861 191.357 237.561 189.574 233.077 189.571Z" fill="white" stroke="#5955B3" stroke-width="0.363996" stroke-miterlimit="10"/>
<path d="M233.076 198.403C235.769 198.403 236.012 198.403 237.116 198.403C237.741 198.408 238.361 198.522 238.947 198.74C239.371 198.906 239.756 199.159 240.078 199.481C240.4 199.803 240.652 200.188 240.819 200.612C241.037 201.198 241.15 201.817 241.155 202.443C241.155 203.48 241.155 203.789 241.155 206.482C241.155 209.175 241.155 209.418 241.155 210.522C241.15 211.147 241.037 211.767 240.819 212.353C240.652 212.777 240.4 213.162 240.078 213.484C239.756 213.806 239.371 214.058 238.947 214.225C238.361 214.442 237.741 214.556 237.116 214.561C236.079 214.561 235.769 214.561 233.076 214.561C230.383 214.561 230.127 214.561 229.037 214.561C228.411 214.556 227.792 214.442 227.206 214.225C226.777 214.067 226.39 213.814 226.074 213.484C225.746 213.167 225.493 212.781 225.334 212.353C225.116 211.767 225.002 211.147 224.997 210.522C224.997 209.485 224.997 209.175 224.997 206.482C224.997 203.789 224.997 203.533 224.997 202.443C225.002 201.817 225.116 201.198 225.334 200.612C225.519 200.208 225.79 199.849 226.128 199.561C226.444 199.232 226.831 198.978 227.259 198.821C227.846 198.603 228.465 198.489 229.091 198.484C230.127 198.484 230.437 198.484 233.13 198.484M233.13 196.707C230.437 196.707 230.114 196.707 229.091 196.707C228.272 196.727 227.462 196.882 226.694 197.164C226.043 197.424 225.453 197.814 224.957 198.309C224.462 198.805 224.072 199.396 223.812 200.046C223.53 200.815 223.375 201.624 223.354 202.443C223.354 203.493 223.354 203.789 223.354 206.482C223.354 209.175 223.354 209.485 223.354 210.522C223.375 211.34 223.53 212.15 223.812 212.919C224.067 213.572 224.454 214.166 224.95 214.662C225.446 215.158 226.04 215.546 226.694 215.8C227.462 216.083 228.272 216.238 229.091 216.258C230.141 216.258 230.437 216.258 233.13 216.258C235.823 216.258 236.133 216.258 237.17 216.258C237.988 216.238 238.798 216.083 239.567 215.8C240.224 215.552 240.82 215.166 241.317 214.669C241.814 214.173 242.2 213.576 242.448 212.919C242.731 212.15 242.885 211.34 242.906 210.522C242.906 209.472 242.906 209.175 242.906 206.482C242.906 203.789 242.906 203.466 242.906 202.443C242.885 201.624 242.731 200.815 242.448 200.046C242.2 199.39 241.818 198.793 241.326 198.292C240.835 197.791 240.245 197.398 239.594 197.137C238.825 196.855 238.015 196.7 237.197 196.68C236.146 196.68 235.85 196.68 233.157 196.68" fill="white"/>
<path d="M233.076 201.42C232.074 201.417 231.094 201.712 230.26 202.267C229.426 202.821 228.775 203.611 228.389 204.536C228.004 205.461 227.902 206.479 228.096 207.462C228.289 208.445 228.771 209.349 229.478 210.058C230.186 210.767 231.088 211.251 232.07 211.447C233.053 211.644 234.071 211.544 234.997 211.162C235.923 210.779 236.715 210.13 237.272 209.297C237.829 208.464 238.126 207.485 238.126 206.483C238.126 205.142 237.594 203.857 236.648 202.908C235.701 201.958 234.417 201.424 233.076 201.42ZM233.076 209.755C232.426 209.755 231.79 209.562 231.25 209.2C230.709 208.839 230.288 208.325 230.04 207.724C229.791 207.122 229.727 206.461 229.855 205.823C229.983 205.186 230.297 204.6 230.758 204.141C231.219 203.682 231.805 203.371 232.444 203.245C233.082 203.12 233.743 203.187 234.343 203.438C234.943 203.689 235.455 204.112 235.815 204.654C236.174 205.196 236.365 205.832 236.362 206.483C236.362 206.914 236.277 207.34 236.112 207.738C235.946 208.136 235.704 208.497 235.399 208.801C235.094 209.105 234.731 209.346 234.333 209.51C233.934 209.673 233.507 209.757 233.076 209.755Z" fill="white"/>
<path d="M239.512 201.218C239.512 201.452 239.443 201.682 239.313 201.876C239.183 202.071 238.997 202.223 238.781 202.313C238.564 202.403 238.326 202.426 238.096 202.38C237.866 202.335 237.655 202.222 237.49 202.056C237.324 201.89 237.211 201.679 237.165 201.449C237.12 201.219 237.143 200.981 237.233 200.765C237.322 200.548 237.474 200.363 237.669 200.233C237.864 200.103 238.093 200.033 238.328 200.033C238.642 200.033 238.943 200.158 239.165 200.38C239.388 200.602 239.512 200.904 239.512 201.218Z" fill="white"/>
<path d="M231.73 140.625C226.965 140.625 222.394 138.733 219.024 135.365C215.653 131.997 213.757 127.428 213.754 122.663C213.754 117.895 215.648 113.323 219.019 109.952C222.39 106.58 226.962 104.687 231.73 104.687C236.495 104.69 241.064 106.586 244.432 109.956C247.8 113.327 249.692 117.897 249.692 122.663C249.692 127.427 247.8 131.995 244.431 135.364C241.063 138.733 236.494 140.625 231.73 140.625Z" fill="#5955B3" stroke="#5955B3" stroke-width="0.485328" stroke-linecap="round" stroke-linejoin="round"/>
<path d="M231.73 141.662C227.963 141.664 224.28 140.549 221.147 138.458C218.014 136.367 215.571 133.394 214.129 129.914C212.686 126.435 212.308 122.605 213.042 118.911C213.776 115.216 215.59 111.822 218.253 109.159C220.917 106.495 224.311 104.681 228.005 103.947C231.7 103.213 235.529 103.591 239.009 105.034C242.489 106.477 245.462 108.919 247.553 112.052C249.644 115.185 250.759 118.868 250.756 122.635C250.753 127.68 248.747 132.518 245.18 136.085C241.612 139.652 236.775 141.658 231.73 141.662ZM231.73 105.723C228.385 105.723 225.115 106.715 222.334 108.573C219.553 110.432 217.385 113.073 216.105 116.163C214.825 119.254 214.49 122.654 215.143 125.935C215.795 129.215 217.406 132.229 219.771 134.594C222.136 136.959 225.15 138.57 228.431 139.223C231.711 139.875 235.112 139.54 238.202 138.26C241.292 136.98 243.934 134.812 245.792 132.031C247.65 129.25 248.642 125.98 248.642 122.635C248.632 118.156 246.845 113.863 243.675 110.698C240.505 107.533 236.21 105.753 231.73 105.75V105.723Z" fill="white" stroke="#5955B3" stroke-width="0.363996" stroke-miterlimit="10"/>
<path d="M222.156 128.667C223.879 129.773 225.872 130.384 227.918 130.433C229.964 130.482 231.985 129.968 233.758 128.946C235.532 127.925 236.99 126.435 237.974 124.64C238.958 122.846 239.43 120.815 239.338 118.77C240.109 118.209 240.774 117.517 241.304 116.724C240.586 117.046 239.823 117.255 239.042 117.343C239.863 116.856 240.476 116.085 240.765 115.175C239.984 115.618 239.132 115.923 238.247 116.077C237.66 115.428 236.872 114.993 236.009 114.842C235.146 114.691 234.258 114.832 233.485 115.244C232.711 115.655 232.098 116.313 231.741 117.113C231.384 117.913 231.304 118.809 231.515 119.659C229.955 119.58 228.43 119.173 227.038 118.466C225.646 117.758 224.418 116.765 223.435 115.552C222.931 116.417 222.775 117.442 223 118.418C223.225 119.394 223.814 120.247 224.647 120.804C224.024 120.78 223.415 120.61 222.87 120.305C222.858 121.221 223.166 122.113 223.741 122.826C224.317 123.539 225.123 124.028 226.021 124.21C225.441 124.368 224.833 124.391 224.243 124.278C224.502 125.052 224.995 125.726 225.653 126.209C226.312 126.691 227.103 126.957 227.919 126.971C226.298 128.275 224.226 128.885 222.156 128.667Z" fill="white"/>
<path d="M282.305 224.445C277.54 224.445 272.97 222.553 269.599 219.185C266.228 215.817 264.333 211.248 264.329 206.483C264.329 201.715 266.223 197.143 269.594 193.772C272.965 190.401 277.538 188.507 282.305 188.507C287.07 188.51 291.639 190.406 295.007 193.777C298.376 197.147 300.268 201.718 300.268 206.483C300.268 211.247 298.375 215.816 295.007 219.184C291.638 222.553 287.069 224.445 282.305 224.445Z" fill="#5955B3" stroke="#5955B3" stroke-width="0.485328" stroke-linecap="round" stroke-linejoin="round"/>
<path d="M282.305 225.509C278.538 225.512 274.855 224.397 271.722 222.306C268.589 220.215 266.147 217.241 264.704 213.762C263.261 210.282 262.883 206.453 263.617 202.758C264.351 199.064 266.165 195.67 268.829 193.006C271.492 190.343 274.886 188.529 278.581 187.795C282.275 187.061 286.105 187.439 289.584 188.882C293.064 190.324 296.037 192.767 298.128 195.9C300.219 199.033 301.334 202.716 301.332 206.483C301.324 211.527 299.318 216.362 295.751 219.929C292.184 223.495 287.349 225.502 282.305 225.509ZM282.305 189.571C278.96 189.571 275.69 190.563 272.909 192.421C270.128 194.279 267.96 196.921 266.68 200.011C265.4 203.101 265.065 206.502 265.718 209.782C266.37 213.063 267.981 216.076 270.346 218.442C272.712 220.807 275.725 222.418 279.006 223.07C282.286 223.723 285.687 223.388 288.777 222.108C291.868 220.828 294.509 218.66 296.367 215.879C298.226 213.098 299.217 209.828 299.217 206.483C299.214 201.999 297.431 197.699 294.26 194.528C291.089 191.357 286.79 189.574 282.305 189.571Z" fill="white" stroke="#5955B3" stroke-width="0.363996" stroke-miterlimit="10"/>
<path d="M277.363 202.053H273.646V214.064H277.363V202.053Z" fill="white"/>
<path d="M275.492 200.478C276.05 200.434 276.571 200.182 276.95 199.772C277.33 199.361 277.541 198.822 277.541 198.263C277.541 197.704 277.33 197.165 276.95 196.754C276.571 196.344 276.05 196.091 275.492 196.048C274.935 196.091 274.414 196.344 274.034 196.754C273.654 197.165 273.443 197.704 273.443 198.263C273.443 198.822 273.654 199.361 274.034 199.772C274.414 200.182 274.935 200.434 275.492 200.478Z" fill="white"/>
<path d="M283.314 207.762C283.314 206.066 284.095 205.069 285.577 205.069C287.058 205.069 287.61 206.039 287.61 207.762V214.064H291.313V206.456C291.313 203.238 289.481 201.676 286.936 201.676C286.212 201.668 285.498 201.847 284.863 202.196C284.229 202.545 283.695 203.053 283.314 203.669V202.053H279.746V214.064H283.314V207.762Z" fill="white"/>
<path d="M257.179 328.599C256.465 328.599 255.78 328.315 255.275 327.81C254.769 327.305 254.486 326.62 254.486 325.906L251.712 231.542C251.71 230.82 251.851 230.105 252.127 229.437C252.402 228.77 252.807 228.164 253.317 227.653C253.828 227.143 254.434 226.738 255.101 226.462C255.769 226.187 256.484 226.046 257.206 226.048C257.927 226.048 258.64 226.19 259.306 226.466C259.972 226.743 260.577 227.147 261.086 227.658C261.595 228.168 261.998 228.774 262.273 229.44C262.547 230.107 262.688 230.821 262.686 231.542L259.885 325.906C259.885 326.26 259.815 326.612 259.679 326.939C259.543 327.267 259.343 327.564 259.092 327.815C258.84 328.065 258.542 328.263 258.214 328.398C257.885 328.532 257.534 328.6 257.179 328.599Z" fill="#5955B3" stroke="#5955B3" stroke-width="0.485328" stroke-linecap="round" stroke-linejoin="round"/>
<path d="M257.273 376.831V383.119" stroke="#5955B3" stroke-width="0.485328" stroke-linecap="round" stroke-linejoin="round"/>
<path d="M251.079 2.72781C241.066 14.2538 231.895 26.4848 223.637 39.3262H290.545C282.242 26.4575 273.017 14.208 262.942 2.67395C262.2 1.82927 261.285 1.15352 260.26 0.692263C259.235 0.231007 258.122 -0.00502349 256.998 8.10619e-05C255.874 0.00518561 254.764 0.251302 253.742 0.72185C252.721 1.1924 251.813 1.87643 251.079 2.72781Z" fill="#5955B3" stroke="#5955B3" stroke-width="0.485328" stroke-linecap="round" stroke-linejoin="round"/>
<path d="M240.63 37.495C241.738 37.495 242.637 36.5968 242.637 35.4887C242.637 34.3807 241.738 33.4824 240.63 33.4824C239.522 33.4824 238.624 34.3807 238.624 35.4887C238.624 36.5968 239.522 37.495 240.63 37.495Z" fill="white"/>
<path d="M253.57 35.4886C253.57 35.8886 253.451 36.2796 253.228 36.6121C253.006 36.9445 252.69 37.2034 252.32 37.3559C251.95 37.5083 251.543 37.5475 251.151 37.4685C250.759 37.3895 250.399 37.1958 250.117 36.9119C249.835 36.6281 249.644 36.267 249.567 35.8743C249.491 35.4816 249.533 35.0751 249.688 34.7063C249.843 34.3374 250.104 34.0229 250.438 33.8026C250.772 33.5823 251.163 33.4661 251.564 33.4688C251.828 33.4688 252.09 33.5211 252.334 33.6228C252.579 33.7245 252.801 33.8735 252.987 34.0612C253.173 34.2489 253.321 34.4717 253.421 34.7167C253.521 34.9616 253.572 35.224 253.57 35.4886Z" fill="white"/>
<path d="M262.484 37.495C263.592 37.495 264.49 36.5968 264.49 35.4887C264.49 34.3807 263.592 33.4824 262.484 33.4824C261.376 33.4824 260.478 34.3807 260.478 35.4887C260.478 36.5968 261.376 37.495 262.484 37.495Z" fill="white"/>
<path d="M273.418 37.495C274.526 37.495 275.425 36.5968 275.425 35.4887C275.425 34.3807 274.526 33.4824 273.418 33.4824C272.31 33.4824 271.412 34.3807 271.412 35.4887C271.412 36.5968 272.31 37.495 273.418 37.495Z" fill="white"/>
<path d="M235.702 35.731C235.702 35.731 249.167 14.0655 254.648 7.4541" stroke="white" stroke-width="0.485328" stroke-linecap="round" stroke-linejoin="round"/>
<path d="M297.103 303.648L319.563 262.646H194.781L217.241 303.648H297.103Z" fill="#5955B3" stroke="#5955B3" stroke-width="0.485328" stroke-linecap="round" stroke-linejoin="round"/>
<path d="M220.662 281.417C220.58 281.452 220.506 281.503 220.445 281.567C220.383 281.631 220.334 281.706 220.302 281.789C220.269 281.871 220.253 281.959 220.255 282.048C220.257 282.137 220.276 282.224 220.312 282.306L222.331 287.032C222.384 287.152 222.471 287.255 222.581 287.327C222.691 287.398 222.819 287.436 222.951 287.436C223.039 287.456 223.131 287.456 223.22 287.436C223.302 287.401 223.375 287.35 223.437 287.286C223.499 287.222 223.547 287.147 223.58 287.064C223.613 286.982 223.628 286.894 223.627 286.805C223.625 286.716 223.606 286.629 223.57 286.547L221.55 281.821C221.519 281.736 221.471 281.658 221.409 281.591C221.347 281.525 221.273 281.471 221.19 281.434C221.108 281.396 221.018 281.375 220.928 281.372C220.837 281.37 220.747 281.385 220.662 281.417Z" fill="white"/>
<path d="M224.095 273.392C224.15 273.51 224.237 273.611 224.347 273.682C224.456 273.754 224.584 273.793 224.714 273.796C224.808 273.794 224.9 273.771 224.984 273.728C225.065 273.693 225.139 273.642 225.201 273.579C225.262 273.515 225.311 273.439 225.344 273.357C225.376 273.274 225.392 273.186 225.39 273.097C225.389 273.008 225.369 272.921 225.334 272.84L220.85 262.646H219.396L224.095 273.392Z" fill="white"/>
<path d="M288.418 284.972C288.511 284.991 288.607 284.991 288.701 284.972C288.827 284.975 288.952 284.942 289.06 284.875C289.168 284.808 289.254 284.71 289.306 284.595L299.594 262.593H298.099L288.068 284.07C288.03 284.152 288.009 284.24 288.006 284.331C288.003 284.421 288.019 284.511 288.051 284.595C288.084 284.679 288.133 284.756 288.196 284.821C288.259 284.885 288.335 284.937 288.418 284.972Z" fill="white"/>
<path d="M222.775 302.436C222.827 302.556 222.914 302.659 223.024 302.731C223.134 302.802 223.263 302.84 223.394 302.84C223.483 302.859 223.575 302.859 223.663 302.84C223.745 302.805 223.819 302.754 223.881 302.69C223.942 302.626 223.991 302.551 224.023 302.468C224.056 302.386 224.072 302.298 224.07 302.209C224.068 302.12 224.049 302.032 224.014 301.951L206.899 262.7H205.432L222.775 302.436Z" fill="white"/>
<path d="M307.323 262.646L289.617 298.908C289.578 298.988 289.555 299.074 289.549 299.163C289.544 299.251 289.556 299.34 289.584 299.424C289.613 299.507 289.658 299.585 289.717 299.651C289.776 299.717 289.847 299.772 289.926 299.81C290.017 299.859 290.12 299.883 290.223 299.878C290.347 299.879 290.47 299.844 290.575 299.777C290.68 299.71 290.763 299.614 290.815 299.501L308.818 262.646H307.323Z" fill="white"/>
<path d="M219.005 279.276C219.058 279.396 219.144 279.499 219.254 279.57C219.364 279.642 219.493 279.68 219.625 279.68C219.713 279.7 219.805 279.7 219.894 279.68C219.975 279.645 220.049 279.594 220.111 279.53C220.173 279.466 220.221 279.391 220.254 279.308C220.286 279.226 220.302 279.137 220.301 279.049C220.299 278.96 220.28 278.872 220.244 278.791L213.363 262.7H211.896L219.005 279.276Z" fill="white"/>
<path d="M322.391 145.606V150.05" stroke="#5955B3" stroke-width="0.485328" stroke-linecap="round" stroke-linejoin="round"/>
<path d="M322.391 119.457V142.644" stroke="#5955B3" stroke-width="0.485328" stroke-linecap="round" stroke-linejoin="round"/>
<path d="M325.03 168.269V186.716" stroke="#5955B3" stroke-width="0.485328" stroke-linecap="round" stroke-linejoin="round"/>
<path d="M324.572 125.638V165.01C324.572 165.01 325.582 165.011 326.094 162.196C326.605 159.382 325.582 153.767 326.861 151.424C328.14 149.081 329.931 147.587 330.699 145.284C331.466 142.981 328.908 141.244 329.931 137.353C330.954 133.462 335.317 135.562 334.536 130.445C334.132 127.752 331.143 126.81 329.056 125.625C328.365 125.322 327.796 124.795 327.44 124.13C327.023 123.08 328.342 120.683 327.44 119.902C326.538 119.121 325.191 120.373 324.747 121.249C324.195 122.528 324.572 124.332 324.572 125.638Z" fill="white" stroke="#5955B3" stroke-width="0.485328" stroke-miterlimit="10"/>
<path d="M153.888 349.833V400.449" stroke="#5955B3" stroke-width="0.485328" stroke-linecap="round" stroke-linejoin="round"/>
<path d="M153.968 327.831V347.463C153.968 347.463 153.47 347.463 153.214 346.116C152.959 344.77 153.47 341.915 152.824 340.73C152.096 339.771 151.456 338.748 150.912 337.674C150.535 336.529 151.801 335.627 151.289 333.715C150.777 331.803 148.596 332.826 149 330.268C149.202 328.921 150.696 328.463 151.693 327.871C152.039 327.717 152.323 327.451 152.501 327.117C152.703 326.592 152.056 325.407 152.501 325.016C152.945 324.626 153.618 325.245 153.847 325.69C154.02 326.39 154.061 327.116 153.968 327.831Z" fill="white" stroke="#5955B3" stroke-width="0.485328" stroke-miterlimit="10"/>
<path d="M189.651 127.079V147.721" stroke="#5955B3" stroke-width="0.485328" stroke-linecap="round" stroke-linejoin="round"/>
<path d="M189.651 152.245V159.799" stroke="#5955B3" stroke-width="0.485328" stroke-linecap="round" stroke-linejoin="round"/>
<path d="M187.187 196.316V203.87" stroke="#5955B3" stroke-width="0.485328" stroke-linecap="round" stroke-linejoin="round"/>
<path d="M187.712 128.667V193.3C187.712 193.3 186.689 193.3 186.177 188.682C185.666 184.063 186.689 174.813 185.41 171.042C184.131 167.272 182.34 164.741 181.572 160.957C180.805 157.173 183.363 154.224 182.34 147.936C181.316 141.648 176.954 144.987 177.735 136.585C178.139 132.128 181.128 130.606 183.215 128.654C183.997 128.026 184.562 127.169 184.831 126.203C185.248 124.48 183.929 120.534 184.831 119.269C185.733 118.003 187.093 120.036 187.524 121.504C188.076 123.551 187.712 126.526 187.712 128.667Z" fill="white" stroke="#5955B3" stroke-width="0.485328" stroke-miterlimit="10"/>
<path d="M257.273 334.429V372.118" stroke="#5955B3" stroke-width="0.485328" stroke-linecap="round" stroke-linejoin="round"/>
<path d="M194.242 306.557V311" stroke="#5955B3" stroke-width="0.485328" stroke-linecap="round" stroke-linejoin="round"/>
<path d="M194.242 280.407V303.594" stroke="#5955B3" stroke-width="0.485328" stroke-linecap="round" stroke-linejoin="round"/>
<path d="M191.59 329.204V372.629" stroke="#5955B3" stroke-width="0.485328" stroke-linecap="round" stroke-linejoin="round"/>
<path d="M192.062 286.588V325.96C192.062 325.96 191.039 325.96 190.527 323.146C190.015 320.331 191.039 314.703 189.759 312.373C188.48 310.044 186.689 308.536 185.922 306.233C185.154 303.931 187.713 302.194 186.689 298.302C185.666 294.411 181.303 296.511 182.084 291.395C182.488 288.702 185.477 287.759 187.565 286.561C188.257 286.267 188.828 285.744 189.18 285.079C189.598 284.029 188.278 281.632 189.18 280.851C190.083 280.07 191.443 281.323 191.873 282.198C192.466 283.477 192.062 285.281 192.062 286.588Z" fill="white" stroke="#5955B3" stroke-width="0.485328" stroke-miterlimit="10"/>
<path d="M359.138 349.833V370.65" stroke="#5955B3" stroke-width="0.485328" stroke-linecap="round" stroke-linejoin="round"/>
<path d="M359.056 327.831V347.463C359.056 347.463 359.568 347.463 359.824 346.116C360.08 344.77 359.568 341.915 360.201 340.73C360.929 339.771 361.569 338.748 362.113 337.674C362.49 336.529 361.224 335.627 361.736 333.715C362.248 331.803 364.429 332.826 364.025 330.268C363.823 328.921 362.342 328.463 361.332 327.871C360.986 327.717 360.702 327.451 360.524 327.117C360.322 326.592 360.982 325.407 360.524 325.016C360.066 324.626 359.406 325.245 359.178 325.69C358.999 326.389 358.957 327.116 359.056 327.831Z" fill="white" stroke="#5955B3" stroke-width="0.485328" stroke-miterlimit="10"/>
<path d="M317.247 324.613V329.057" stroke="#5955B3" stroke-width="0.485328" stroke-linecap="round" stroke-linejoin="round"/>
<path d="M317.247 298.464V321.651" stroke="#5955B3" stroke-width="0.485328" stroke-linecap="round" stroke-linejoin="round"/>
<path d="M319.887 347.275V423.286" stroke="#5955B3" stroke-width="0.485328" stroke-linecap="round" stroke-linejoin="round"/>
<path d="M319.428 304.59V343.976C319.428 343.976 320.452 343.976 320.963 341.162C321.475 338.348 320.452 332.719 321.731 330.39C323.01 328.06 324.801 326.552 325.568 324.25C326.336 321.947 323.777 320.21 324.801 316.332C325.824 312.454 330.187 314.541 329.392 309.424C328.989 306.731 326.013 305.775 323.926 304.59C323.235 304.289 322.662 303.768 322.296 303.109C321.879 302.045 323.198 299.649 322.296 298.881C321.394 298.114 320.034 299.352 319.603 300.228C319.038 301.534 319.428 303.352 319.428 304.59Z" fill="white" stroke="#5955B3" stroke-width="0.485328" stroke-miterlimit="10"/>
</svg>
