<svg width="48" height="48" viewBox="0 0 48 48" fill="none" xmlns="http://www.w3.org/2000/svg">
<rect x="-0.5" y="0.5" width="47" height="47" rx="23.5" transform="matrix(-1 0 0 1 47 0)" stroke="#CCCAE7"/>
<path d="M31 25.2502H19.83L24.71 30.1302C25.1 30.5202 25.1 31.1602 24.71 31.5502C24.32 31.9402 23.69 31.9402 23.3 31.5502L16.71 24.9602C16.6173 24.8677 16.5437 24.7578 16.4936 24.6368C16.4434 24.5159 16.4176 24.3862 16.4176 24.2552C16.4176 24.1243 16.4434 23.9946 16.4936 23.8736C16.5437 23.7526 16.6173 23.6427 16.71 23.5502L23.29 16.9502C23.3826 16.8576 23.4925 16.7842 23.6135 16.7341C23.7344 16.684 23.8641 16.6582 23.995 16.6582C24.1259 16.6582 24.2556 16.684 24.3765 16.7341C24.4975 16.7842 24.6074 16.8576 24.7 16.9502C24.7926 17.0428 24.866 17.1527 24.9161 17.2737C24.9662 17.3946 24.992 17.5243 24.992 17.6552C24.992 17.7862 24.9662 17.9158 24.9161 18.0368C24.866 18.1577 24.7926 18.2676 24.7 18.3602L19.83 23.2502H31C31.55 23.2502 32 23.7002 32 24.2502C32 24.8002 31.55 25.2502 31 25.2502Z" fill="#908DCC"/>
</svg>
