<svg width="48" height="48" viewBox="0 0 48 48" fill="none" xmlns="http://www.w3.org/2000/svg">
<rect x="0.5" y="0.5" width="47" height="47" rx="23.5" stroke="#111122"/>
<path d="M17 25.2502H28.17L23.29 30.1302C22.9 30.5202 22.9 31.1602 23.29 31.5502C23.68 31.9402 24.31 31.9402 24.7 31.5502L31.29 24.9602C31.3827 24.8677 31.4563 24.7578 31.5064 24.6368C31.5566 24.5159 31.5824 24.3862 31.5824 24.2552C31.5824 24.1243 31.5566 23.9946 31.5064 23.8736C31.4563 23.7526 31.3827 23.6427 31.29 23.5502L24.71 16.9502C24.6174 16.8576 24.5075 16.7842 24.3865 16.7341C24.2656 16.684 24.1359 16.6582 24.005 16.6582C23.8741 16.6582 23.7444 16.684 23.6235 16.7341C23.5025 16.7842 23.3926 16.8576 23.3 16.9502C23.2074 17.0428 23.134 17.1527 23.0839 17.2737C23.0338 17.3946 23.008 17.5243 23.008 17.6552C23.008 17.7862 23.0338 17.9158 23.0839 18.0368C23.134 18.1577 23.2074 18.2676 23.3 18.3602L28.17 23.2502H17C16.45 23.2502 16 23.7002 16 24.2502C16 24.8002 16.45 25.2502 17 25.2502Z" fill="#111122"/>
</svg>
