<svg width="416" height="419" viewBox="0 0 416 419" fill="none" xmlns="http://www.w3.org/2000/svg">
<path d="M43.3857 258.132L30.0687 258.393L23.2941 258.51C21.0391 258.51 18.7648 258.51 16.5195 258.558H16.084V258.132V246.78V246.296H16.5776L30.001 246.364C34.4722 246.364 38.9435 246.47 43.4244 246.519H43.6857V246.78C43.6857 248.715 43.6083 250.651 43.5599 252.509L43.3857 258.132ZM43.3857 258.132L43.2502 252.403C43.2502 250.467 43.134 248.638 43.1244 246.78L43.3857 247.051C38.9047 247.099 34.4335 247.196 29.9623 247.206L16.5389 247.264L17.0228 246.78L16.9647 258.132L16.5389 257.697C18.7454 257.697 20.952 257.697 23.178 257.755L29.8461 257.861L43.3857 258.132Z" fill="#EBEBEB"/>
<path d="M28.4044 272.436L15.0971 272.707L8.32251 272.813C6.06753 272.862 3.80288 272.813 1.5479 272.862H1.12207V272.426V261.084V260.6H1.60597L15.0294 260.658C19.5103 260.658 23.9815 260.764 28.4528 260.813H28.7238V261.074C28.7238 263.009 28.6367 264.945 28.598 266.813L28.4044 272.436ZM28.4044 272.436L28.2689 266.706C28.2689 264.819 28.1624 262.942 28.1431 261.084L28.4044 261.354C23.9332 261.403 19.4619 261.509 14.981 261.509L1.55758 261.567L2.04148 261.084L1.99309 272.436L1.55758 272C3.77385 272 5.98044 272 8.1967 272.058L14.8745 272.165L28.4044 272.436Z" fill="#EBEBEB"/>
<path d="M244.088 11.8749L230.771 12.1459L223.997 12.262C221.742 12.262 219.467 12.262 217.222 12.262H216.787V11.8265L216.738 0.483901V0H217.232L230.655 0.0677458C235.127 0.0677458 239.598 0.174204 244.079 0.222594H244.34V0.483901C244.34 2.4195 244.263 4.35511 244.214 6.21329L244.088 11.8749ZM244.088 11.8749L243.953 6.14554C243.904 4.20994 243.837 2.39047 243.827 0.532292L244.088 0.793597C239.607 0.851665 235.136 0.948445 230.665 0.958123L217.242 1.01619L217.725 0.532292L217.667 11.8749L217.242 11.4491C219.448 11.4491 221.655 11.4491 223.881 11.4975L230.549 11.6136L244.088 11.8749Z" fill="#EBEBEB"/>
<path d="M229.107 26.1882L215.799 26.4592L209.025 26.5657C206.77 26.5657 204.505 26.5657 202.25 26.5657H201.824V26.1302V14.7778V14.2939H202.308L215.732 14.3617C220.212 14.3617 224.684 14.4681 229.155 14.5165H229.426V14.7778C229.426 16.7134 229.339 18.6491 229.29 20.5072L229.107 26.1882ZM229.107 26.1882L228.971 20.4976C228.971 18.562 228.865 16.7328 228.845 14.8746L229.107 15.1456C224.635 15.1456 220.164 15.3005 215.683 15.3005L202.26 15.3585L202.744 14.8746L202.695 26.2269L202.26 25.7914C204.476 25.7914 206.683 25.7914 208.899 25.8495L215.577 25.956L229.107 26.1882Z" fill="#EBEBEB"/>
<path d="M415.264 320.797L401.957 321.068L395.182 321.175C392.927 321.223 390.663 321.175 388.408 321.223H387.982V320.787L387.924 309.445V308.951H388.408L401.831 309.009C406.312 309.009 410.783 309.116 415.255 309.164H415.526V309.425C415.526 311.361 415.438 313.297 415.4 315.155L415.264 320.797ZM415.264 320.797L415.129 315.068C415.129 313.18 415.022 311.313 415.003 309.454L415.264 309.716C410.793 309.764 406.322 309.871 401.841 309.871L388.417 309.929L388.901 309.454L388.853 320.797L388.417 320.362C390.634 320.362 392.84 320.362 395.057 320.42L401.734 320.526L415.264 320.797Z" fill="#EBEBEB"/>
<path d="M400.291 335.101L386.975 335.372L380.2 335.478C377.935 335.527 375.671 335.478 373.425 335.536H372.99V335.101L372.941 323.758V323.274H373.435L386.858 323.332C391.33 323.332 395.801 323.439 400.282 323.487H400.543V323.749C400.543 325.684 400.456 327.62 400.417 329.478L400.291 335.101ZM400.291 335.101L400.156 329.372C400.108 327.484 400.04 325.616 400.021 323.758L400.291 324.02C395.811 324.068 391.339 324.174 386.868 324.174L373.445 324.242L373.919 323.758L373.87 335.101L373.445 334.665C375.651 334.665 377.858 334.665 380.084 334.723L386.752 334.83L400.291 335.101Z" fill="#EBEBEB"/>
<path d="M330.785 241.621L317.477 241.892L310.703 241.999C308.448 242.047 306.183 241.999 303.928 242.047H303.502V241.612L303.444 230.259V229.775H303.928L317.352 229.843C321.833 229.843 326.304 229.95 330.775 229.998H331.046V230.259C331.046 232.195 330.959 234.131 330.92 235.989L330.785 241.621ZM330.785 241.621L330.649 235.892C330.649 234.005 330.543 232.127 330.523 230.269L330.785 230.54C326.313 230.588 321.842 230.695 317.361 230.695L303.938 230.753L304.422 230.269L304.373 241.621L303.938 241.186C306.154 241.186 308.361 241.186 310.577 241.244L317.255 241.35L330.785 241.621Z" fill="#EBEBEB"/>
<path d="M377.936 59.5101L364.619 59.7811L357.845 59.8876C355.59 59.8876 353.325 59.8876 351.07 59.9456H350.644V59.5101L350.596 48.1675V47.6836H351.08L364.513 47.7417C368.984 47.7417 373.455 47.8578 377.936 47.9062H378.197V48.1675C378.197 50.1031 378.11 52.0387 378.072 53.8969L377.936 59.5101ZM377.936 59.5101L377.791 53.7807C377.791 51.8451 377.684 50.0257 377.665 48.1675L377.936 48.4288C373.455 48.4288 368.984 48.5837 364.513 48.5933L351.08 48.6514L351.564 48.1675L351.515 59.5101L351.08 59.0843C353.296 59.0843 355.502 59.0843 357.728 59.0843L364.397 59.1908L377.936 59.5101Z" fill="#EBEBEB"/>
<path d="M392.908 73.8138L379.601 74.0848L372.826 74.201C370.571 74.201 368.306 74.201 366.051 74.2493H365.626V73.8138L365.577 62.4712V61.9873H366.061L379.484 62.0551C383.956 62.0551 388.437 62.1615 392.908 62.2099H393.179V62.4712C393.179 64.4068 393.092 66.3424 393.043 68.2006L392.908 73.8138ZM392.908 73.8138L392.772 68.0845C392.772 66.1488 392.666 64.3294 392.647 62.4712L392.908 62.7325C388.437 62.7906 383.956 62.8874 379.484 62.897L366.061 62.9551L366.545 62.4712L366.497 73.8138L366.061 73.388C368.277 73.388 370.484 73.388 372.7 73.388L379.378 73.5041L392.908 73.8138Z" fill="#EBEBEB"/>
<path d="M370.27 196.851L383.587 196.589L390.362 196.473C392.626 196.473 394.891 196.473 397.136 196.425H397.572V196.86L397.62 208.213V208.697H397.127L383.703 208.629C379.232 208.629 374.761 208.522 370.28 208.474H370.019V208.251C370.019 206.316 370.106 204.38 370.144 202.522L370.27 196.851ZM370.27 196.851L370.406 202.58C370.454 204.516 370.522 206.345 370.541 208.203L370.27 207.932C374.751 207.932 379.222 207.787 383.694 207.777L397.117 207.719L396.643 208.203L396.691 196.851L397.117 197.286C394.91 197.286 392.704 197.286 390.478 197.228L383.81 197.122L370.27 196.851Z" fill="#EBEBEB"/>
<path d="M355.337 182.547L368.645 182.276L375.419 182.169C377.674 182.121 379.939 182.169 382.194 182.121H382.62V182.557L382.678 193.899V194.393H382.194L368.771 194.335C364.29 194.335 359.818 194.228 355.347 194.18H355.076V193.919C355.076 191.983 355.163 190.047 355.202 188.189L355.337 182.547ZM355.337 182.547L355.473 188.276C355.473 190.164 355.579 192.031 355.599 193.89L355.337 193.628C359.809 193.628 364.28 193.473 368.761 193.473L382.184 193.415L381.7 193.89L381.749 182.547L382.184 182.982C379.968 182.982 377.761 182.982 375.545 182.924L368.867 182.818L355.337 182.547Z" fill="#EBEBEB"/>
<path d="M71.355 37.5316L58.0478 37.8026L51.2732 37.9091C49.0182 37.9574 46.7535 37.9091 44.4985 37.9671H44.0727V37.5316L44.0146 26.189V25.7051H44.4985L57.922 25.7631C62.4029 25.7631 66.8741 25.8696 71.3454 25.918H71.6163V26.1793C71.6163 28.1149 71.5292 30.0505 71.4809 31.9087L71.355 37.5316ZM71.355 37.5316L71.2196 31.8022C71.2196 29.8666 71.1131 28.0472 71.0937 26.189L71.355 26.4503C66.8838 26.4987 62.4126 26.6051 57.9316 26.6051L44.5082 26.6729L44.9921 26.189V37.5316L44.5566 37.0961C46.7729 37.0961 48.9795 37.0961 51.1957 37.1542L57.8736 37.2606L71.355 37.5316Z" fill="#EBEBEB"/>
<path d="M42.05 127.217L28.7331 127.488L21.9584 127.595C19.7035 127.643 17.4388 127.595 15.1838 127.653H14.7677V127.217L14.6709 115.875V115.391H15.1548L28.5782 115.449C33.0591 115.449 37.5304 115.565 42.0113 115.613H42.2726V115.875C42.2726 117.81 42.1855 119.746 42.1468 121.604L42.05 127.217ZM42.05 127.217L41.9048 121.488C41.9048 119.601 41.7984 117.733 41.779 115.875L42.05 116.136C37.5691 116.184 33.0978 116.291 28.6169 116.3L15.1935 116.358L15.6774 115.875V127.217L15.2419 126.791C17.4582 126.791 19.6648 126.791 21.881 126.791L28.5588 126.898L42.05 127.217Z" fill="#EBEBEB"/>
<path d="M404.908 77.1729H262.603V83.8217H404.908V77.1729Z" fill="#EBEBEB"/>
<path d="M285.114 109.991H279.085L276.665 83.8213H285.114V109.991Z" fill="#EBEBEB"/>
<path d="M382.378 109.991H388.417L390.837 83.8213H382.378V109.991Z" fill="#EBEBEB"/>
<path d="M276.665 83.8213H285.114V92.8412H277.497L276.665 83.8213Z" fill="#DBDBDB"/>
<path d="M390.837 83.8213L390.004 92.8412H382.388V83.8213H390.837Z" fill="#DBDBDB"/>
<path d="M393.876 37.2795C387.004 46.5801 379.843 57.3807 378.091 69.0524C378.091 69.2363 378.362 69.2944 378.4 69.1201C379.196 65.9338 380.221 62.8094 381.468 59.7712C385.988 58.5227 390.421 57.5065 392.792 52.9966C395.163 48.4866 394.902 42.3508 394.447 37.3472C394.379 37.1053 394.05 37.0956 393.876 37.2795Z" fill="#EBEBEB"/>
<path d="M381.468 59.6841C384.489 52.5871 388.565 45.9866 393.556 40.1055C393.556 40.1055 393.643 40.1055 393.614 40.1055C390.466 44.1667 387.702 48.5114 385.358 53.0837C387.633 50.7706 390.13 48.6995 392.278 46.251C392.283 46.2459 392.288 46.2418 392.294 46.2388C392.3 46.2358 392.307 46.234 392.313 46.2336C392.32 46.2331 392.327 46.234 392.333 46.2362C392.34 46.2383 392.346 46.2417 392.351 46.2462C392.356 46.2506 392.36 46.256 392.363 46.2621C392.366 46.2681 392.368 46.2747 392.368 46.2815C392.369 46.2882 392.368 46.295 392.366 46.3014C392.363 46.3078 392.36 46.3137 392.356 46.3188C390.207 48.8931 387.875 51.6804 385.087 53.5773C384.332 54.9612 383.587 56.3452 382.823 57.7291C383.008 57.6228 383.199 57.5259 383.394 57.4388C383.394 57.4388 383.452 57.4388 383.394 57.4388C383.181 57.5452 382.968 57.6614 382.745 57.7485C382.387 58.4066 382.029 59.0647 381.661 59.6841C381.65 59.6983 381.635 59.7097 381.618 59.7176C381.601 59.7254 381.583 59.7295 381.565 59.7295C381.546 59.7295 381.528 59.7254 381.511 59.7176C381.494 59.7097 381.48 59.6983 381.468 59.6841Z" fill="#A6A6A6"/>
<path d="M383.801 57.2748C385.649 56.2418 387.413 55.0639 389.075 53.752C389.124 53.752 389.192 53.752 389.143 53.8197C387.529 55.2112 385.763 56.4157 383.878 57.4102C383.791 57.4393 383.714 57.2748 383.801 57.2748Z" fill="#A6A6A6"/>
<path d="M377.345 68.9461C377.345 68.9795 377.358 69.0115 377.382 69.0351C377.405 69.0587 377.437 69.0719 377.471 69.0719C377.504 69.0719 377.536 69.0587 377.56 69.0351C377.583 69.0115 377.596 68.9795 377.596 68.9461C377.596 65.0749 377.596 61.2037 377.654 57.3325C378.622 55.3969 380.751 54.2452 382.222 52.658C383.284 51.4795 384.203 50.1801 384.961 48.7868C386.733 45.5078 387.816 41.9017 388.145 38.1894C388.552 34.0762 386.994 20.5076 385.242 20.9819C384.342 21.2238 381.429 27.9403 380.655 30.1663C379.408 33.8283 378.495 37.5955 377.925 41.4218C376.681 50.5442 376.486 59.7793 377.345 68.9461Z" fill="#EBEBEB"/>
<path d="M377.316 52.3674C377.678 47.4707 378.459 42.614 379.649 37.8504C380.752 32.7694 382.039 27.9885 384.652 23.4495C384.663 23.4315 384.68 23.4184 384.7 23.4129C384.72 23.4075 384.741 23.4102 384.759 23.4204C384.777 23.4307 384.79 23.4477 384.795 23.4677C384.801 23.4876 384.798 23.5089 384.788 23.5269C383.044 27.0519 381.694 30.7584 380.762 34.5792C380.936 34.3082 381.149 34.0469 381.333 33.7856C381.401 33.6888 381.575 33.7856 381.497 33.8824C381.267 34.2962 380.994 34.6854 380.684 35.0437C379.784 38.6827 379.146 42.3893 378.584 46.096C378.629 46.0533 378.671 46.0081 378.71 45.9605H378.768C378.7 46.0863 378.623 46.2025 378.546 46.3283C378.265 48.2058 378.013 50.0834 377.752 51.9512C381.183 49.1917 383.871 45.6189 385.572 41.557C384.159 45.9285 381.394 49.7379 377.675 52.4351L377.471 53.9352C377.471 54.0417 377.287 54.0126 377.287 53.9352C377.287 53.4997 377.287 53.0545 377.287 52.6093C377.278 52.4835 377.258 52.4351 377.316 52.3674Z" fill="#A6A6A6"/>
<path d="M378.893 45.3224C381.503 41.6105 383.786 37.6794 385.716 33.5733C385.716 33.5249 385.823 33.5733 385.803 33.5733C384.274 37.8877 381.98 41.8908 379.029 45.3901C378.961 45.4869 378.845 45.3998 378.893 45.3224Z" fill="#A6A6A6"/>
<path d="M382.291 32.6249C383.355 30.7473 384.478 28.9279 385.475 27.0116C385.475 26.9535 385.571 27.0116 385.552 27.06C384.732 29.0558 383.693 30.9546 382.455 32.7216C382.44 32.7392 382.42 32.7509 382.397 32.7548C382.375 32.7587 382.352 32.7544 382.332 32.7428C382.312 32.7312 382.297 32.713 382.29 32.6914C382.282 32.6698 382.282 32.6462 382.291 32.6249Z" fill="#A6A6A6"/>
<path d="M375.458 59.1032C375.409 61.649 375.111 64.1839 374.567 66.6714L374.684 67.5038C375.467 64.754 375.922 61.9212 376.039 59.0645C376.06 59.0242 376.071 58.9794 376.071 58.9339C376.071 58.8883 376.06 58.8435 376.039 58.8032C376.151 54.9709 375.866 51.1372 375.187 47.3638C373.996 40.2989 371.403 33.5242 366.477 28.2304C366.436 28.1951 366.387 28.1695 366.335 28.1556C366.283 28.1417 366.228 28.1398 366.175 28.15C366.122 28.1603 366.072 28.1824 366.029 28.2148C365.985 28.2471 365.95 28.2888 365.925 28.3368C363.941 33.3887 364.638 39.4278 366.331 44.4701C367.243 47.1962 368.548 49.775 370.203 52.1254C371.935 54.4965 374.093 56.5095 375.458 59.1032Z" fill="#EBEBEB"/>
<path d="M367.068 30.5829C371.732 38.1608 374.984 47.142 375.381 56.0941C375.381 56.2586 375.12 56.2974 375.1 56.0941C374.984 55.2908 374.868 54.4972 374.733 53.7037C372.703 51.9113 370.919 49.8579 369.429 47.5968C369.429 47.5968 369.429 47.5 369.497 47.5388C371.115 49.5181 372.851 51.399 374.694 53.1714C374.358 51.1841 373.958 49.2485 373.494 47.3646L373.126 46.929C373.039 46.8323 373.174 46.6968 373.261 46.7936L373.378 46.9194C372.718 44.2917 371.9 41.7062 370.929 39.177C369.634 37.8644 368.5 36.4025 367.551 34.8218C367.551 34.8218 367.551 34.7541 367.609 34.8218C368.306 35.7897 368.984 36.7575 369.768 37.7253C370.087 38.0833 370.426 38.4221 370.735 38.7705C369.659 36.0251 368.381 33.3629 366.913 30.8055C366.883 30.7849 366.863 30.7535 366.857 30.7181C366.85 30.6827 366.858 30.6463 366.879 30.6168C366.899 30.5872 366.931 30.5671 366.966 30.5607C367.002 30.5544 367.038 30.5623 367.068 30.5829Z" fill="#A6A6A6"/>
<path d="M368.006 39.9313C369.516 41.7508 371.239 43.4831 372.642 45.3607C372.642 45.4187 372.593 45.4671 372.545 45.4284C370.778 43.8159 369.223 41.985 367.919 39.9797C367.919 39.9216 367.967 39.8539 368.006 39.9313Z" fill="#A6A6A6"/>
<path d="M372.855 46.4639L372.913 46.5317L372.845 46.5994L372.787 46.5413C372.777 46.5323 372.771 46.5196 372.77 46.506C372.769 46.4924 372.773 46.479 372.782 46.4687C372.791 46.4585 372.804 46.4522 372.818 46.4513C372.831 46.4504 372.845 46.4549 372.855 46.4639Z" fill="#A6A6A6"/>
<path d="M359.034 43.2321C359.57 47.4844 361.276 51.5047 363.96 54.8457C365.055 56.1294 366.403 57.1737 367.919 57.9136C369.651 58.7653 371.461 59.7525 373.251 60.459C374.106 62.6249 374.738 64.8721 375.138 67.1658L375.313 66.5658C374.171 56.6942 367.783 48.2647 359.605 42.845C359.543 42.8105 359.472 42.794 359.401 42.7973C359.329 42.8006 359.26 42.8235 359.201 42.8636C359.142 42.9036 359.095 42.9593 359.066 43.0243C359.036 43.0893 359.025 43.1612 359.034 43.2321Z" fill="#EBEBEB"/>
<path d="M361.851 46.1545C361.843 46.1412 361.838 46.1256 361.839 46.1098C361.839 46.094 361.845 46.0788 361.854 46.0661C361.864 46.0535 361.877 46.044 361.892 46.0391C361.907 46.0341 361.923 46.0339 361.938 46.0383C366.424 49.3797 370.001 53.7917 372.342 58.8714C372.358 58.8983 372.362 58.9303 372.353 58.9603C372.345 58.9902 372.326 59.0157 372.299 59.0311C372.272 59.0465 372.24 59.0505 372.21 59.0424C372.18 59.0342 372.154 59.0145 372.139 58.9875C371.761 58.3294 371.374 57.681 370.987 57.0519C369.091 56.539 367.363 55.5379 365.974 54.1485C365.974 54.1485 365.974 54.0517 365.974 54.0905C366.688 54.7398 367.481 55.2959 368.335 55.7454C369.1 56.1325 369.913 56.3745 370.707 56.7132C370.019 55.6196 369.294 54.5647 368.548 53.5485C366.533 52.7824 364.645 51.7189 362.945 50.3935C362.887 50.3935 362.945 50.2676 362.993 50.3064C364.678 51.3247 366.416 52.2519 368.2 53.0839C367.06 51.5836 365.832 50.152 364.522 48.7966C363.893 48.4675 363.245 48.1288 362.635 47.7707C362.587 47.7707 362.635 47.6546 362.635 47.6739C363.144 47.8575 363.631 48.0977 364.087 48.3901C363.429 47.5965 362.664 46.8707 361.851 46.1545Z" fill="#A6A6A6"/>
<path d="M362.025 49.5322C362.137 49.5975 362.244 49.672 362.344 49.7548C362.228 49.7052 362.118 49.6436 362.015 49.5709C361.918 49.6097 361.967 49.5322 362.025 49.5322Z" fill="#A6A6A6"/>
<path d="M385.388 77.1723H368.567L369.39 66.1394L369.709 62.5488H384.091L384.41 66.1394L385.388 77.1723Z" fill="#DBDBDB"/>
<path d="M384.41 66.1394H369.39L369.709 62.5488H384.091L384.41 66.1394Z" fill="#C7C7C7"/>
<path d="M385.243 59.5967H368.567V63.284H385.243V59.5967Z" fill="#DBDBDB"/>
<path d="M320.168 77.1527V40.9473H311.051V77.1527H320.168Z" fill="#C7C7C7"/>
<path d="M320.168 42.9796V39.002H311.051V42.9796H320.168Z" fill="#DBDBDB"/>
<path d="M320.168 49.5608V48.0801H311.051V49.5608H320.168Z" fill="#DBDBDB"/>
<path d="M320.168 72.3917V68.4141H311.051V72.3917H320.168Z" fill="#DBDBDB"/>
<path d="M327.552 77.1335V28.124H320.158V77.1335H327.552Z" fill="#EBEBEB"/>
<path d="M326.109 51.594V32.7412H321.667V51.594H326.109Z" fill="#A6A6A6"/>
<path d="M329.188 77.1436H365.016V69.7496H329.188V77.1436Z" fill="#C7C7C7"/>
<path d="M337.597 75.6436H351.379V71.2013H337.597V75.6436Z" fill="#DBDBDB"/>
<path d="M311.051 77.153V35.5859H297.027V77.153H311.051Z" fill="#A6A6A6"/>
<path d="M311.051 72.7403V68.8691H297.027V72.7403H311.051Z" fill="#C7C7C7"/>
<path d="M311.051 66.3233V64.8232H297.027V66.3233H311.051Z" fill="#C7C7C7"/>
<path d="M349.234 66.3606L335.435 34.2109L327.466 37.6312L341.265 69.7808L349.234 66.3606Z" fill="#A6A6A6"/>
<path d="M347.799 62.9522L346.513 59.9551L338.544 63.3753L339.831 66.3724L347.799 62.9522Z" fill="#C7C7C7"/>
<path d="M339.575 43.8321L338.289 40.835L330.321 44.2552L331.607 47.2523L339.575 43.8321Z" fill="#C7C7C7"/>
<path d="M340.961 47.0439L340.461 45.8789L332.492 49.2991L332.993 50.4642L340.961 47.0439Z" fill="#C7C7C7"/>
<path d="M285.478 77.1823L297.039 47.5146L289.681 44.6472L278.12 74.3149L285.478 77.1823Z" fill="#C7C7C7"/>
<path d="M286.671 74.0055L287.75 71.2373L280.392 68.3686L279.313 71.1368L286.671 74.0055Z" fill="#A6A6A6"/>
<path d="M293.583 56.4022L294.662 53.6338L287.304 50.7664L286.225 53.5348L293.583 56.4022Z" fill="#A6A6A6"/>
<path d="M292.441 59.3622L292.859 58.2891L285.501 55.4217L285.083 56.4947L292.441 59.3622Z" fill="#A6A6A6"/>
<path d="M64.0105 168.629C74.942 161.217 77.7948 146.346 70.3825 135.415C62.9702 124.483 48.0997 121.63 37.1682 129.043C26.2367 136.455 23.3839 151.326 30.7962 162.257C38.2085 173.189 53.079 176.041 64.0105 168.629Z" fill="#EBEBEB"/>
<path d="M63.1586 148.499C61.6004 156.484 54.4483 162.92 54.4483 162.92C54.4483 162.92 45.0123 160.984 39.6119 154.945C35.102 149.874 35.2084 143.031 39.4184 140.428C45.4381 136.644 50.2481 147.619 50.2481 147.619C50.2481 147.619 48.8061 135.724 55.9291 135.908C60.8842 136.015 64.4554 141.851 63.1586 148.499Z" fill="white"/>
<path d="M381.625 128.215C383.53 120.675 378.962 113.018 371.422 111.113C363.882 109.208 356.225 113.776 354.32 121.316C352.415 128.856 356.983 136.513 364.523 138.418C372.063 140.323 379.719 135.755 381.625 128.215Z" fill="#EBEBEB"/>
<path d="M373.861 129.221C370.212 132.318 364.551 132.647 364.551 132.647C364.551 132.647 360.912 128.302 360.679 123.521C360.466 119.533 363.031 116.427 365.935 116.746C370.096 117.22 368.277 124.034 368.277 124.034C368.277 124.034 371.983 118.033 375.187 120.743C377.413 122.64 376.909 126.637 373.861 129.221Z" fill="white"/>
<path d="M120.268 72.7008C118.569 75.3676 116.07 77.4282 113.128 78.5872C110.186 79.7462 106.953 79.9441 103.892 79.1526C100.831 78.361 98.0986 76.6207 96.0873 74.1809C94.0761 71.7412 92.8889 68.7273 92.6959 65.5714C92.5029 62.4154 93.314 59.2793 95.0129 56.6127C96.7119 53.9461 99.2114 51.8857 102.153 50.7271C105.095 49.5684 108.328 49.3708 111.39 50.1627C114.451 50.9546 117.182 52.6953 119.193 55.1352C121.211 57.5714 122.402 60.5856 122.595 63.7428C122.788 66.9 121.973 70.0369 120.268 72.7008Z" fill="#EBEBEB"/>
<path d="M110.997 61.1461C111.389 61.9577 111.533 62.8676 111.408 63.7605C111.283 64.6534 110.897 65.4894 110.297 66.1626C109.697 66.8358 108.911 67.3161 108.039 67.5427C107.166 67.7692 106.246 67.732 105.394 67.4355C104.543 67.139 103.799 66.5968 103.255 65.8772C102.712 65.1577 102.394 64.2932 102.343 63.3931C102.291 62.493 102.507 61.5977 102.964 60.8205C103.421 60.0432 104.098 59.419 104.91 59.0266C105.998 58.5005 107.251 58.4283 108.392 58.8257C109.534 59.2232 110.471 60.0578 110.997 61.1461Z" fill="white"/>
<path d="M119.446 71.0076L120.268 72.7013C118.774 75.0457 116.656 76.927 114.151 78.134C111.646 79.341 108.855 79.8258 106.09 79.5339L105.277 77.85C104.368 75.9711 104.243 73.8082 104.93 71.8371C105.616 69.8661 107.057 68.2483 108.935 67.3396C110.814 66.431 112.977 66.306 114.948 66.992C116.919 67.6781 118.537 69.119 119.446 70.9979V71.0076Z" fill="white"/>
<path d="M343.221 263.775H375.7L394.292 171.108L364.551 157.442L343.221 263.775Z" fill="#DBDBDB"/>
<path d="M250.264 263.775H343.221L364.551 157.442H271.594L250.264 263.775Z" fill="#EBEBEB"/>
<path d="M359.896 316.19H409.67V214.058H359.896V316.19Z" fill="#DBDBDB"/>
<path d="M226.368 316.191H239.966L260.232 214.059H226.368V316.191Z" fill="#DBDBDB"/>
<path d="M332.545 316.19H359.896V214.058H332.545V316.19Z" fill="#EBEBEB"/>
<path d="M199.028 316.19H226.378V214.058H199.028V316.19Z" fill="#EBEBEB"/>
<path d="M226.368 316.19H332.546V263.784H226.368V316.19Z" fill="#EBEBEB"/>
<path d="M226.368 263.997H332.546V241.128H226.368V263.997Z" fill="#EBEBEB"/>
<path d="M353.189 214.059L342.872 213.875L332.545 213.739H332.236V214.059L332.11 226.011V237.963C332.11 245.928 332.052 253.893 332.11 261.868C332.168 269.843 332.11 277.798 332.245 285.773C332.381 293.747 332.419 301.703 332.594 309.677C332.761 301.703 332.878 293.735 332.942 285.773C333.039 277.798 333.049 269.833 333.078 261.868C333.107 253.903 333.078 245.928 333.078 237.963L333.029 226.011L332.855 214.059L332.545 214.368L342.872 214.243L353.189 214.059Z" fill="#DBDBDB"/>
<path d="M226.368 214.059C226.155 222.053 226.059 230.056 225.972 238.05L225.855 262.042L225.972 286.034L226.117 298.035L226.368 310.026L226.62 298.035L226.765 286.034L226.881 262.042L226.765 238.05C226.688 230.056 226.62 222.053 226.368 214.059Z" fill="#DBDBDB"/>
<path d="M226.368 263.774C235.214 263.987 244.069 264.093 252.915 264.171L279.462 264.297L305.999 264.171L319.277 264.026L332.546 263.774L319.277 263.522L305.98 263.416L279.442 263.3L252.896 263.426C244.04 263.464 235.214 263.561 226.368 263.774Z" fill="#DBDBDB"/>
<path d="M226.368 241.157C235.214 241.37 244.069 241.477 252.915 241.554L279.462 241.67L305.999 241.554L319.277 241.409L332.546 241.157L319.277 240.905L305.98 240.722L279.442 240.605L252.896 240.722C244.04 240.809 235.214 240.905 226.368 241.157Z" fill="#DBDBDB"/>
<path d="M390.759 316.19L391.427 324.465L393.004 343.579H400.205L401.782 324.465L402.45 316.19H390.759Z" fill="#C7C7C7"/>
<path d="M402.45 316.19H390.759L391.427 324.465H401.782L402.45 316.19Z" fill="#A6A6A6"/>
<path d="M340.375 316.19L341.043 324.465L342.62 343.579H349.821L351.398 324.465L352.066 316.19H340.375Z" fill="#C7C7C7"/>
<path d="M352.066 316.19H340.375L341.043 324.465H351.398L352.066 316.19Z" fill="#A6A6A6"/>
<path d="M256.806 316.19L257.473 324.465L259.051 343.579H266.251L267.829 324.465L268.497 316.19H256.806Z" fill="#C7C7C7"/>
<path d="M268.497 316.19H256.806L257.473 324.465H267.829L268.497 316.19Z" fill="#A6A6A6"/>
<path d="M206.412 316.19L207.08 324.465L208.657 343.579H215.858L217.435 324.465L218.103 316.19H206.412Z" fill="#C7C7C7"/>
<path d="M206.412 316.19L207.08 324.465H217.435L218.103 316.19H206.412Z" fill="#A6A6A6"/>
<path d="M204.36 419C256.036 419 297.927 414.606 297.927 409.187C297.927 403.767 256.036 399.373 204.36 399.373C152.684 399.373 110.793 403.767 110.793 409.187C110.793 414.606 152.684 419 204.36 419Z" fill="#EBEBEB"/>
<path d="M37.7344 287.969C37.7344 287.969 45.9897 258.345 52.5804 248.289C59.1712 238.234 71.4623 227.182 71.4623 227.182C71.4623 227.182 71.1719 272.843 37.7344 287.969Z" fill="#25244C"/>
<path d="M38.3251 287.456C41.1094 282.818 43.6234 278.022 45.8546 273.094C46.7992 267.802 48.1682 262.594 49.9484 257.522C49.9503 257.511 49.9545 257.5 49.9608 257.491C49.9671 257.482 49.9753 257.474 49.9849 257.469C49.9945 257.463 50.0052 257.459 50.0163 257.458C50.0274 257.457 50.0386 257.458 50.0492 257.461C50.0598 257.465 50.0695 257.471 50.0777 257.478C50.0858 257.486 50.0922 257.495 50.0965 257.506C50.1007 257.516 50.1026 257.527 50.1021 257.538C50.1016 257.55 50.0987 257.56 50.0936 257.57C49 262.255 47.7322 266.89 46.5708 271.555C49.9 264.345 53.0647 257.038 57.0327 250.263C57.9626 246.97 59.2612 243.791 60.9039 240.789C60.9039 240.702 61.0878 240.789 61.0491 240.837C60.0301 243.145 59.1574 245.514 58.436 247.931C60.3024 244.873 62.3989 241.961 64.7074 239.221C64.8526 239.047 65.1332 239.221 64.9977 239.424C59.6942 246.199 56.0262 253.893 52.5421 261.684C56.2884 257.614 59.7485 253.291 62.8976 248.744C62.8976 248.696 62.9944 248.744 62.9654 248.792C59.6843 253.89 55.9738 258.698 51.8743 263.164C49.3387 268.884 46.8418 274.623 43.8126 280.052C49.8613 274.942 54.5164 268.323 59.1232 261.935C59.1437 261.904 59.1756 261.883 59.2119 261.876C59.2482 261.868 59.2859 261.876 59.3167 261.896C59.3475 261.917 59.3689 261.949 59.3762 261.985C59.3834 262.022 59.376 262.059 59.3555 262.09C54.7487 269.097 49.9775 275.697 43.3383 280.885C41.9931 283.274 40.5166 285.588 38.9155 287.814C38.8585 287.868 38.7854 287.902 38.7074 287.91C38.6295 287.918 38.5509 287.901 38.4839 287.86C38.4169 287.819 38.365 287.758 38.3363 287.685C38.3077 287.612 38.3037 287.532 38.3251 287.456Z" fill="#263238"/>
<path d="M35.1797 290.63C35.1797 290.63 50.0161 263.319 45.6997 236.83C41.3833 210.342 36.7766 200.925 36.7766 200.925C36.7766 200.925 13.4623 242.124 35.1797 290.63Z" fill="#25244C"/>
<path d="M30.1566 243.469C30.6479 245.847 30.9713 248.256 31.1244 250.679C31.1189 250.694 31.109 250.707 31.096 250.716C31.083 250.725 31.0676 250.73 31.0518 250.73C31.036 250.73 31.0206 250.725 31.0076 250.716C30.9946 250.707 30.9847 250.694 30.9792 250.679C30.403 248.314 29.9955 245.911 29.7598 243.488C29.7598 243.314 30.0695 243.285 30.1566 243.469Z" fill="#263238"/>
<path d="M38.7804 223.503C38.7804 223.416 38.9159 223.445 38.9256 223.503C38.9002 225.187 38.6496 226.86 38.1804 228.478C38.1804 228.613 37.9481 228.545 37.9771 228.42C38.2965 226.794 38.4997 225.148 38.7804 223.503Z" fill="#263238"/>
<path d="M29.7697 292.721C29.7697 292.721 30.3697 264.209 22.1918 250.041C14.0139 235.872 0.445312 228.643 0.445312 228.643C0.445312 228.643 5.96178 278.901 29.7697 292.721Z" fill="#25244C"/>
<path d="M14.8661 268.342C18.1529 273.319 21.8533 278.01 25.9281 282.365C24.3022 276.558 22.4149 270.829 20.2664 265.177C15.6887 261.151 11.1401 256.989 8.32376 251.483C8.31349 251.465 8.31078 251.443 8.31623 251.423C8.32167 251.403 8.33483 251.386 8.35279 251.376C8.37076 251.366 8.39207 251.363 8.41203 251.369C8.432 251.374 8.44899 251.387 8.45925 251.405C11.4788 256.244 15.5242 260.174 19.7825 263.929C16.5051 255.436 12.704 247.155 8.40118 239.134C8.38738 239.094 8.38779 239.05 8.40236 239.01C8.41692 238.971 8.44474 238.937 8.48113 238.915C8.51751 238.894 8.56024 238.885 8.60209 238.892C8.64395 238.898 8.68237 238.918 8.71088 238.95C11.3272 243.155 13.7116 247.501 15.8533 251.967C15.079 248.918 14.4693 245.802 13.6854 242.772C13.6904 242.76 13.6991 242.749 13.7103 242.742C13.7215 242.734 13.7347 242.73 13.7483 242.73C13.7618 242.73 13.7751 242.734 13.7863 242.742C13.7975 242.749 13.8062 242.76 13.8112 242.772C15.4184 246.653 16.5461 250.716 17.1695 254.87C20.0277 261.18 22.4277 267.687 24.3506 274.342C24.1473 270.064 23.8763 265.816 23.4311 261.548C23.4311 261.47 23.5666 261.451 23.5763 261.548C24.491 266.279 24.9062 271.092 24.8151 275.91C25.9958 280.159 26.983 284.465 27.7863 288.791C27.7863 288.908 27.6314 288.966 27.6024 288.84C27.1572 287.027 26.6862 285.223 26.1894 283.43C26.1578 283.439 26.1242 283.439 26.0926 283.43C21.7085 279.036 17.5372 274.023 14.7984 268.419L14.8661 268.342Z" fill="#263238"/>
<path d="M54.0713 289.246L53.0358 302.747L49.9291 343.578H22.8307L19.7143 302.747L18.6885 289.246H54.0713Z" fill="#455A64"/>
<path d="M54.0714 289.246L53.0358 302.747H19.7241L18.6982 289.246H54.0714Z" fill="#414141"/>
<path d="M16.2983 292.973H56.4814V282.617H16.2983V292.973Z" fill="#455A64"/>
<path d="M0 343.579L51.0902 343.337L102.18 343.259L204.361 343.095L306.541 343.259L357.632 343.337L408.722 343.579L357.632 343.811L306.541 343.898L204.361 344.063L102.18 343.898L51.0902 343.811L0 343.579Z" fill="#263238"/>
<path d="M268.932 70.0009C268.465 74.4081 266.79 78.6009 264.093 82.1178C263.42 82.9889 262.696 83.8194 261.925 84.605C261.129 85.3698 260.285 86.0841 259.399 86.7439C255.849 89.4176 251.629 91.0587 247.205 91.4861C246.098 91.5861 244.986 91.6087 243.876 91.5539C242.768 91.5245 241.665 91.4081 240.576 91.2054C236.171 90.4045 232.076 88.394 228.749 85.3986L229.03 85.4857L217.106 87.2762L216.235 87.402L216.681 86.6374L222.623 76.2819V76.6884C221.224 73.2632 220.629 69.5628 220.884 65.8716C221.139 62.1805 222.237 58.597 224.094 55.3968C225.958 52.2107 228.519 49.4877 231.585 47.4318C234.646 45.3816 238.135 44.0575 241.785 43.5606C245.409 43.0585 249.1 43.397 252.573 44.55C256.045 45.7029 259.205 47.6393 261.809 50.2094C264.417 52.754 266.413 55.8575 267.647 59.2859C268.881 62.7142 269.32 66.378 268.932 70.0009Z" fill="#455A64"/>
<path d="M244.476 60.6229C244.427 62.1617 244.476 63.7296 244.476 65.4038H250.505C250.254 67.3395 250.031 69.2267 249.741 71.0461C249.741 71.23 249.257 71.4526 249.005 71.4623C247.553 71.4623 246.102 71.4623 244.514 71.4623V91.5732C242.348 91.5447 240.195 91.219 238.117 90.6054V71.5204H232.843V65.4522H238.011C238.011 64.9974 238.069 64.6296 238.069 64.2812C238.069 62.6843 238.069 61.0778 238.195 59.5003C238.247 57.903 238.873 56.3778 239.956 55.2033C241.04 54.0289 242.51 53.2834 244.098 53.1031C246.292 52.9381 248.493 52.9187 250.689 53.045V58.5615C249.905 58.5615 249.092 58.5615 248.308 58.5615C247.599 58.5365 246.888 58.5852 246.189 58.7067C245.723 58.7727 245.296 59.0012 244.982 59.3519C244.669 59.7025 244.489 60.1528 244.476 60.6229Z" fill="white"/>
<path d="M256.728 133.489C253.423 134.731 249.839 135.036 246.372 134.37C245.511 134.204 244.661 133.985 243.827 133.712C242.997 133.415 242.186 133.069 241.398 132.676C239.819 131.896 238.36 130.896 237.062 129.705C235.749 128.523 234.606 127.165 233.665 125.67C233.199 124.918 232.792 124.132 232.446 123.318C232.054 122.52 231.731 121.692 231.478 120.84C230.48 117.41 230.463 113.769 231.429 110.33V110.562L225.855 102.704L225.458 102.133H226.155L235.659 102.675L235.359 102.8C237.302 100.579 239.73 98.8337 242.455 97.6994C245.181 96.565 248.13 96.0719 251.076 96.2581C254.049 96.4479 256.939 97.3152 259.525 98.7937C262.061 100.252 264.234 102.266 265.88 104.685C267.527 107.104 268.603 109.864 269.028 112.759C269.422 115.644 269.168 118.58 268.283 121.353C267.402 124.119 265.903 126.648 263.902 128.751C261.9 130.853 259.447 132.473 256.728 133.489Z" fill="#25244C"/>
<path d="M238.998 124.285C241.368 124.397 243.702 123.678 245.598 122.253C242.869 121.421 241.785 120.588 241.389 119.04L243.218 118.953C242.208 118.652 241.319 118.041 240.675 117.208C240.031 116.375 239.664 115.36 239.627 114.307L241.514 114.811C239.579 112.323 239.134 110.397 240.314 108.597C241.512 110.021 242.989 111.185 244.653 112.017C246.317 112.849 248.134 113.332 249.992 113.436C249.992 113.127 249.992 112.894 249.944 112.662C249.855 111.738 250.057 110.809 250.522 110.006C250.987 109.202 251.692 108.564 252.538 108.181C253.355 107.746 254.287 107.572 255.206 107.685C256.126 107.797 256.988 108.19 257.677 108.81C257.811 108.944 257.981 109.036 258.167 109.074C258.353 109.112 258.546 109.094 258.722 109.023L261.006 108.181C260.665 109.12 260.035 109.927 259.206 110.484C259.226 110.528 259.242 110.573 259.254 110.62L261.519 110.039L261.616 110.126C261.025 110.717 260.464 111.326 259.844 111.878C259.688 111.996 259.561 112.15 259.475 112.327C259.389 112.503 259.347 112.698 259.351 112.894C259.372 116.214 258.145 119.42 255.913 121.877C253.681 124.335 250.608 125.864 247.302 126.163C244.58 126.442 241.837 125.881 239.443 124.556C239.298 124.479 239.201 124.382 238.998 124.285Z" fill="white"/>
<path d="M185.826 117.279C192.246 117.279 197.45 112.075 197.45 105.656C197.45 99.2362 192.246 94.0322 185.826 94.0322C179.407 94.0322 174.203 99.2362 174.203 105.656C174.203 112.075 179.407 117.279 185.826 117.279Z" fill="#414141"/>
<path d="M192.311 107.136C190.375 111.007 185.827 113.301 185.827 113.301C185.827 113.301 181.259 111.007 179.342 107.136C177.746 103.904 178.762 100.419 181.278 99.6549C184.888 98.5612 185.817 104.862 185.817 104.862C185.817 104.862 186.785 98.5612 190.366 99.6549C192.892 100.419 193.908 103.904 192.311 107.136Z" fill="white"/>
<path d="M285.784 41.0124C286.824 34.7483 282.59 28.8269 276.325 27.7865C270.061 26.7461 264.14 30.9807 263.1 37.2448C262.059 43.5089 266.294 49.4303 272.558 50.4707C278.822 51.5111 284.743 47.2764 285.784 41.0124Z" fill="#455A64"/>
<path fill-rule="evenodd" clip-rule="evenodd" d="M272.697 44.239C272.359 44.0164 272.059 43.7068 271.604 43.7551C271.42 43.7551 271.458 43.6293 271.458 43.5326C271.458 41.8002 271.458 40.0775 271.458 38.3548C271.458 38.229 271.458 38.1225 271.604 38.0548C272.92 37.387 273.481 36.1192 274.284 34.9578C274.694 34.4089 274.991 33.784 275.157 33.1194C275.323 32.4548 275.356 31.7638 275.252 31.0866C275.194 30.6995 275.378 30.5253 275.726 30.4479C275.899 30.3922 276.085 30.3911 276.258 30.4448C276.431 30.4985 276.583 30.6043 276.694 30.7479C277.075 31.4536 277.33 32.2198 277.449 33.0125C277.448 33.6647 277.37 34.3144 277.217 34.9482C277.159 35.4224 277.052 35.916 276.965 36.3708C277.081 36.4579 277.207 36.3708 277.333 36.3708H281.708C282.327 36.3708 282.675 36.545 282.675 36.9515C282.723 37.2025 282.688 37.4623 282.574 37.6912C282.46 37.9201 282.275 38.1056 282.046 38.2193C281.93 38.2774 281.737 38.2193 281.727 38.3935C281.717 38.5677 281.911 38.5484 282.017 38.6161C282.54 38.9839 282.443 39.7291 281.843 40.1646C281.688 40.2614 281.407 40.2227 281.398 40.4356C281.388 40.6485 281.669 40.6001 281.785 40.7259C281.882 40.8454 281.95 40.9864 281.981 41.1372C282.013 41.2879 282.009 41.4441 281.968 41.5928C281.927 41.7414 281.852 41.8782 281.747 41.9917C281.643 42.1052 281.513 42.1922 281.369 42.2454C281.291 42.2454 281.185 42.2454 281.117 42.3518C281.049 42.4583 280.972 42.4486 281.117 42.5551C281.26 42.6252 281.381 42.7341 281.465 42.8692C281.549 43.0043 281.594 43.1604 281.594 43.3196C281.594 43.4789 281.549 43.6349 281.465 43.7701C281.381 43.9052 281.26 44.014 281.117 44.0842L280.924 44.2294C280.693 44.3653 280.425 44.423 280.159 44.3939H273.307C273.091 44.422 272.873 44.3666 272.697 44.239Z" fill="white"/>
<path fill-rule="evenodd" clip-rule="evenodd" d="M266.193 41.2094C266.193 40.1158 266.193 39.0222 266.193 37.9286C266.193 37.706 266.193 37.5898 266.493 37.5898C267.829 37.5898 269.164 37.5898 270.5 37.5898C270.761 37.5898 270.8 37.6769 270.8 37.9092C270.8 40.1158 270.8 42.3224 270.8 44.529C270.8 44.8096 270.723 44.8871 270.442 44.8871C269.145 44.8871 267.848 44.8871 266.571 44.8871C266.251 44.8871 266.203 44.7806 266.203 44.4999C266.213 43.4063 266.193 42.3127 266.193 41.2094Z" fill="white"/>
<path d="M191.933 128.892C191.933 130.043 191.591 131.167 190.951 132.123C190.311 133.079 189.401 133.823 188.337 134.261C187.273 134.699 186.103 134.811 184.975 134.583C183.848 134.355 182.813 133.798 182.003 132.981C181.193 132.164 180.644 131.124 180.425 129.995C180.207 128.865 180.328 127.696 180.775 126.636C181.222 125.576 181.974 124.672 182.935 124.04C183.897 123.408 185.024 123.076 186.175 123.085C187.706 123.098 189.171 123.715 190.249 124.803C191.328 125.891 191.933 127.36 191.933 128.892Z" fill="#25244C"/>
<path d="M186.078 124.915C186.604 124.885 187.125 125.032 187.559 125.331C187.92 125.596 188.188 125.969 188.323 126.396C188.364 126.551 188.39 126.71 188.401 126.87C188.401 127.102 188.401 127.334 188.401 127.567C188.401 127.77 188.401 127.963 188.401 128.157C188.401 128.351 188.401 128.244 188.478 128.283C188.588 128.321 188.707 128.321 188.817 128.283L188.991 128.215C189.064 128.183 189.145 128.174 189.223 128.19C189.301 128.206 189.372 128.245 189.427 128.302C189.462 128.338 189.482 128.387 189.482 128.438C189.482 128.488 189.462 128.537 189.427 128.573C189.329 128.663 189.214 128.733 189.088 128.776C188.991 128.776 188.894 128.834 188.798 128.883C188.736 128.907 188.677 128.94 188.624 128.98C188.555 129.026 188.505 129.095 188.48 129.174C188.456 129.253 188.458 129.338 188.488 129.415C188.551 129.613 188.646 129.799 188.769 129.967C188.976 130.298 189.253 130.579 189.582 130.789C189.794 130.924 190.031 131.016 190.278 131.06C190.356 131.06 190.385 131.128 190.356 131.206C190.322 131.276 190.263 131.331 190.191 131.36C190.022 131.452 189.839 131.514 189.649 131.544L189.34 131.612C189.314 131.614 189.29 131.623 189.269 131.639C189.248 131.654 189.233 131.675 189.224 131.699C189.224 131.815 189.224 131.931 189.136 132.038C189.049 132.144 189.078 132.183 188.953 132.164C188.827 132.144 188.662 132.164 188.507 132.106C188.328 132.083 188.146 132.096 187.971 132.144C187.797 132.192 187.633 132.274 187.491 132.386C187.339 132.502 187.181 132.608 187.017 132.706C186.74 132.862 186.424 132.935 186.106 132.916C185.789 132.897 185.483 132.787 185.227 132.599C185.062 132.483 184.917 132.367 184.752 132.27C184.589 132.177 184.407 132.12 184.22 132.106C183.979 132.094 183.738 132.117 183.504 132.173C183.339 132.173 183.32 132.173 183.281 132.028C183.243 131.883 183.281 131.835 183.213 131.738C183.207 131.703 183.19 131.67 183.164 131.646C183.137 131.621 183.104 131.606 183.068 131.602C182.798 131.572 182.533 131.5 182.284 131.389C182.234 131.37 182.188 131.34 182.149 131.302C182.109 131.273 182.079 131.232 182.062 131.186C182.055 131.173 182.052 131.158 182.053 131.144C182.053 131.129 182.058 131.114 182.066 131.102C182.073 131.089 182.084 131.079 182.097 131.072C182.11 131.064 182.124 131.061 182.139 131.06C182.692 130.957 183.182 130.641 183.504 130.18C183.669 129.976 183.806 129.752 183.91 129.512C183.935 129.457 183.952 129.398 183.959 129.338C183.97 129.264 183.959 129.188 183.926 129.12C183.893 129.053 183.84 128.997 183.775 128.96C183.681 128.894 183.576 128.845 183.465 128.815C183.328 128.774 183.197 128.712 183.078 128.631C183.05 128.608 183.024 128.582 183.001 128.554C182.98 128.537 182.964 128.515 182.953 128.491C182.941 128.467 182.936 128.44 182.936 128.414C182.936 128.387 182.941 128.36 182.953 128.336C182.964 128.312 182.98 128.29 183.001 128.273C183.054 128.225 183.12 128.195 183.191 128.186C183.262 128.178 183.334 128.191 183.397 128.225C183.511 128.284 183.637 128.314 183.765 128.312C183.837 128.311 183.907 128.291 183.968 128.254C183.973 128.245 183.976 128.235 183.976 128.225C183.976 128.215 183.973 128.205 183.968 128.196C183.968 127.925 183.968 127.663 183.968 127.392C183.954 127.193 183.954 126.992 183.968 126.792C183.973 126.637 184.002 126.484 184.055 126.338C184.16 126.04 184.33 125.77 184.552 125.547C184.775 125.324 185.045 125.155 185.343 125.05C185.579 124.968 185.828 124.922 186.078 124.915Z" fill="white"/>
<path d="M269.183 99.1321C272.364 99.1321 274.942 96.5539 274.942 93.3737C274.942 90.1934 272.364 87.6152 269.183 87.6152C266.003 87.6152 263.425 90.1934 263.425 93.3737C263.425 96.5539 266.003 99.1321 269.183 99.1321Z" fill="#263238"/>
<path d="M271.139 91.1963C271.139 91.5792 271.025 91.9534 270.813 92.2717C270.6 92.59 270.298 92.8381 269.944 92.9846C269.59 93.1311 269.201 93.1694 268.826 93.0948C268.45 93.0201 268.105 92.8357 267.835 92.565C267.564 92.2943 267.379 91.9494 267.305 91.574C267.23 91.1985 267.268 90.8093 267.415 90.4556C267.561 90.1019 267.81 89.7996 268.128 89.5869C268.446 89.3743 268.82 89.2607 269.203 89.2607C269.717 89.2607 270.209 89.4647 270.572 89.8277C270.935 90.1907 271.139 90.683 271.139 91.1963Z" fill="white"/>
<path d="M272.503 96.4797V97.1862H265.864V96.4797C265.864 95.5993 266.214 94.755 266.837 94.1324C267.459 93.5099 268.303 93.1602 269.184 93.1602C270.064 93.1602 270.909 93.5099 271.531 94.1324C272.154 94.755 272.503 95.5993 272.503 96.4797Z" fill="white"/>
<path d="M164.564 74.1432C164.907 77.4233 166.155 80.5434 168.168 83.1556C170.181 85.7677 172.881 87.7691 175.965 88.9365C179.05 90.1038 182.398 90.3912 185.636 89.7665C188.874 89.1418 191.875 87.6296 194.304 85.3987L203.208 86.7053L198.756 78.9629C199.781 76.4546 200.219 73.7456 200.038 71.0423C199.858 68.3389 199.062 65.7125 197.713 63.3629C196.364 61.0133 194.496 59.0026 192.253 57.4838C190.009 55.965 187.448 54.9782 184.766 54.5985C182.083 54.2189 179.349 54.4564 176.772 55.2929C174.195 56.1295 171.843 57.543 169.895 59.426C167.947 61.3089 166.454 63.6115 165.53 66.1586C164.606 68.7056 164.276 71.4298 164.564 74.1239V74.1432Z" fill="#455A64"/>
<path d="M169.897 59.4426C172.859 56.5636 176.722 54.7922 180.836 54.4262C184.951 54.0602 189.066 55.1219 192.49 57.4328C195.913 59.7437 198.437 63.1629 199.637 67.1156C200.836 71.0683 200.638 75.3135 199.076 79.1374V78.8374L203.499 86.5798L203.828 87.1508L203.18 87.0443L194.285 85.6797L194.498 85.612C192.023 87.8522 188.974 89.3601 185.691 89.9671C184.06 90.2342 182.403 90.3025 180.756 90.1703C179.097 90.0197 177.468 89.6353 175.917 89.0283C174.379 88.438 172.932 87.6332 171.62 86.6379C170.961 86.1491 170.334 85.619 169.742 85.0507C169.168 84.4632 168.628 83.8427 168.126 83.1925C165.46 79.7118 164.164 75.3734 164.486 71.0008C164.807 66.6282 166.722 62.5256 169.868 59.4717L169.897 59.4426Z" fill="#25244C"/>
<path d="M192.456 66.6528C192.502 66.0464 192.418 65.4371 192.21 64.8656C192.003 64.294 191.675 63.7734 191.25 63.3383C190.825 62.9033 190.313 62.5639 189.746 62.3427C189.179 62.1215 188.572 62.0237 187.965 62.0557C184.171 62.0557 180.368 62.0557 176.564 62.0557C175.967 62.0279 175.371 62.1254 174.814 62.3421C174.257 62.5588 173.751 62.8898 173.33 63.3138C172.909 63.7378 172.581 64.2454 172.368 64.8038C172.155 65.3623 172.061 65.9592 172.093 66.556C172.093 68.4916 172.093 70.3498 172.093 72.2467C172.093 74.1436 172.093 75.9631 172.093 77.8212C172.045 78.4369 172.13 79.0556 172.34 79.6361C172.551 80.2165 172.883 80.7453 173.315 81.1869C173.746 81.6286 174.267 81.973 174.843 82.197C175.418 82.421 176.035 82.5196 176.651 82.486C180.406 82.486 184.171 82.486 187.926 82.486C188.534 82.5187 189.141 82.4223 189.709 82.2032C190.277 81.9841 190.791 81.6471 191.219 81.2146C191.647 80.7821 191.979 80.2639 192.192 79.694C192.405 79.1241 192.495 78.5155 192.456 77.9083C192.475 74.1629 192.475 70.3982 192.456 66.6528ZM190.636 77.947C190.677 78.3138 190.636 78.685 190.514 79.0335C190.393 79.382 190.195 79.6988 189.935 79.9606C189.675 80.2225 189.359 80.4227 189.012 80.5466C188.664 80.6704 188.293 80.7147 187.926 80.6762C184.162 80.6762 180.406 80.6762 176.642 80.6762C176.275 80.716 175.904 80.673 175.556 80.5504C175.208 80.4278 174.892 80.2287 174.631 79.9678C174.37 79.7069 174.171 79.3908 174.048 79.0427C173.925 78.6947 173.882 78.3236 173.922 77.9567C173.922 74.1629 173.922 70.3692 173.922 66.5754C173.882 66.2079 173.924 65.836 174.045 65.4868C174.166 65.1375 174.364 64.8197 174.623 64.5565C174.883 64.2932 175.198 64.0911 175.545 63.9649C175.893 63.8387 176.264 63.7915 176.632 63.8268C180.397 63.8268 184.152 63.8268 187.917 63.8268C188.284 63.7902 188.656 63.8361 189.004 63.9611C189.352 64.086 189.667 64.287 189.928 64.5493C190.188 64.8117 190.387 65.1288 190.51 65.4776C190.632 65.8264 190.675 66.1981 190.636 66.5657C190.636 68.5013 190.636 70.3595 190.636 72.2564C190.636 74.1533 190.665 76.0502 190.636 77.947Z" fill="white"/>
<path d="M182.285 66.9522C181.234 66.9466 180.205 67.2521 179.328 67.8301C178.451 68.4081 177.764 69.2329 177.355 70.2005C176.945 71.1681 176.831 72.2352 177.027 73.2675C177.223 74.2998 177.72 75.251 178.455 76.0013C179.191 76.7516 180.132 77.2674 181.16 77.4838C182.188 77.7002 183.257 77.6075 184.233 77.2174C185.209 76.8272 186.047 76.1571 186.642 75.2914C187.238 74.4257 187.564 73.4031 187.579 72.3526C187.592 71.6488 187.464 70.9495 187.204 70.2955C186.944 69.6415 186.556 69.0458 186.063 68.5431C185.571 68.0405 184.983 67.6409 184.334 67.3678C183.685 67.0947 182.989 66.9534 182.285 66.9522ZM182.227 75.8173C181.307 75.7904 180.433 75.4124 179.783 74.7608C179.133 74.1093 178.757 73.2337 178.733 72.3138C178.781 71.4052 179.175 70.5494 179.835 69.923C180.495 69.2966 181.37 68.9474 182.28 68.9474C183.19 68.9474 184.065 69.2966 184.725 69.923C185.385 70.5494 185.78 71.4052 185.827 72.3138C185.797 73.2484 185.404 74.1346 184.732 74.7848C184.061 75.4351 183.162 75.7984 182.227 75.7979V75.8173Z" fill="white"/>
<path d="M189.194 66.8072C189.2 66.9702 189.169 67.1325 189.103 67.282C189.038 67.4315 188.94 67.5644 188.816 67.6711C188.693 67.7779 188.547 67.8556 188.39 67.8987C188.233 67.9418 188.068 67.9491 187.907 67.9201C187.737 67.9307 187.567 67.9022 187.41 67.8368C187.253 67.7713 187.113 67.6707 187 67.5427C186.888 67.4146 186.807 67.2625 186.763 67.0981C186.719 66.9336 186.713 66.7613 186.746 66.5942C186.804 65.849 187.288 65.5103 188.033 65.4619C188.2 65.4661 188.365 65.5052 188.516 65.5767C188.667 65.6483 188.802 65.7507 188.911 65.8774C189.021 66.0041 189.102 66.1522 189.151 66.3124C189.2 66.4725 189.214 66.641 189.194 66.8072Z" fill="white"/>
<path d="M219.277 44.7276C223.767 40.2376 223.767 32.9577 219.277 28.4677C214.787 23.9777 207.507 23.9777 203.017 28.4677C198.527 32.9578 198.527 40.2376 203.017 44.7276C207.507 49.2176 214.787 49.2176 219.277 44.7276Z" fill="#25244C"/>
<g opacity="0.5">
<path d="M216.468 33.4183C216.468 33.8796 216.331 34.3306 216.074 34.7142C215.818 35.0977 215.454 35.3967 215.028 35.5732C214.602 35.7497 214.133 35.7959 213.68 35.7059C213.228 35.6159 212.812 35.3938 212.486 35.0676C212.16 34.7414 211.938 34.3258 211.848 33.8734C211.758 33.4209 211.804 32.952 211.98 32.5258C212.157 32.0996 212.456 31.7353 212.839 31.479C213.223 31.2227 213.674 31.0859 214.135 31.0859C214.441 31.0859 214.745 31.1463 215.028 31.2635C215.311 31.3807 215.568 31.5525 215.784 31.7691C216.001 31.9857 216.173 32.2428 216.29 32.5258C216.407 32.8088 216.468 33.112 216.468 33.4183Z" fill="#25244C"/>
<path d="M218.161 39.8538V40.7055H210.1V39.8538C210.15 38.8189 210.597 37.8432 211.348 37.1286C212.098 36.4141 213.094 36.0156 214.131 36.0156C215.167 36.0156 216.163 36.4141 216.913 37.1286C217.664 37.8432 218.111 38.8189 218.161 39.8538Z" fill="#25244C"/>
</g>
<path d="M210.496 34.8217C210.496 35.283 210.359 35.7339 210.103 36.1175C209.846 36.501 209.482 36.8 209.056 36.9765C208.63 37.1531 208.161 37.1992 207.708 37.1092C207.256 37.0193 206.84 36.7971 206.514 36.4709C206.188 36.1447 205.966 35.7291 205.876 35.2767C205.786 34.8242 205.832 34.3553 206.009 33.9291C206.185 33.5029 206.484 33.1386 206.868 32.8823C207.251 32.6261 207.702 32.4893 208.163 32.4893C208.782 32.4893 209.375 32.735 209.813 33.1724C210.25 33.6098 210.496 34.2031 210.496 34.8217Z" fill="white"/>
<path d="M212.19 41.2483V42.1097H204.128V41.2483C204.179 40.2134 204.625 39.2377 205.376 38.5232C206.126 37.8087 207.123 37.4102 208.159 37.4102C209.195 37.4102 210.191 37.8087 210.942 38.5232C211.692 39.2377 212.139 40.2134 212.19 41.2483Z" fill="white"/>
<path d="M171.387 100.177C171.387 101.325 171.047 102.448 170.408 103.403C169.77 104.358 168.863 105.102 167.802 105.542C166.741 105.981 165.574 106.096 164.447 105.872C163.321 105.648 162.286 105.095 161.474 104.283C160.662 103.471 160.109 102.436 159.885 101.31C159.661 100.183 159.776 99.0158 160.215 97.9548C160.655 96.8937 161.399 95.9868 162.354 95.3487C163.309 94.7107 164.432 94.3701 165.58 94.3701C167.12 94.3701 168.597 94.9819 169.686 96.0709C170.775 97.1599 171.387 98.6369 171.387 100.177Z" fill="#455A64"/>
<path d="M163.403 102.103H162.929C162.788 102.103 162.652 102.047 162.552 101.947C162.453 101.847 162.396 101.712 162.396 101.571C162.396 101.429 162.453 101.294 162.552 101.194C162.652 101.094 162.788 101.038 162.929 101.038H163.587L163.887 99.2672H163.297C163.157 99.2646 163.024 99.2074 162.926 99.1079C162.829 99.0083 162.774 98.8744 162.774 98.7349C162.776 98.5961 162.832 98.4635 162.929 98.3645C163.026 98.2655 163.158 98.2075 163.297 98.2026H164.071L164.274 96.9928C164.295 96.8681 164.361 96.7553 164.458 96.6752C164.556 96.5951 164.68 96.5532 164.806 96.5573C164.884 96.5579 164.96 96.575 165.03 96.6076C165.1 96.6402 165.163 96.6874 165.213 96.746C165.264 96.8047 165.301 96.8735 165.323 96.9478C165.344 97.0221 165.35 97.1001 165.339 97.1767L165.155 98.2026H166.752L166.955 96.9928C166.976 96.8664 167.043 96.7522 167.143 96.6719C167.243 96.5916 167.369 96.5508 167.497 96.5573C167.574 96.5577 167.65 96.5748 167.72 96.6074C167.79 96.64 167.851 96.6874 167.901 96.7463C167.951 96.8052 167.987 96.8742 168.008 96.9485C168.028 97.0228 168.032 97.1007 168.019 97.1767L167.845 98.2026H168.319C168.459 98.2051 168.592 98.2623 168.69 98.3619C168.787 98.4614 168.842 98.5954 168.842 98.7349C168.842 98.8744 168.787 99.0083 168.69 99.1079C168.592 99.2074 168.459 99.2646 168.319 99.2672H167.661L167.361 101.038H167.942C168.011 101.038 168.08 101.052 168.144 101.079C168.208 101.106 168.266 101.145 168.315 101.195C168.364 101.244 168.402 101.303 168.428 101.368C168.453 101.432 168.466 101.501 168.465 101.571C168.465 101.71 168.41 101.844 168.312 101.944C168.214 102.043 168.081 102.1 167.942 102.103H167.177L166.955 103.351C166.936 103.476 166.873 103.59 166.777 103.672C166.681 103.754 166.558 103.798 166.432 103.796C166.354 103.796 166.277 103.779 166.206 103.746C166.135 103.712 166.072 103.664 166.021 103.605C165.971 103.545 165.933 103.475 165.913 103.399C165.892 103.324 165.887 103.245 165.9 103.167L166.093 102.103H164.487L164.274 103.351C164.262 103.421 164.236 103.487 164.199 103.546C164.161 103.606 164.112 103.657 164.055 103.697C163.997 103.738 163.932 103.766 163.863 103.782C163.795 103.797 163.724 103.799 163.655 103.787C163.585 103.775 163.519 103.749 163.46 103.711C163.4 103.674 163.349 103.625 163.309 103.567C163.268 103.51 163.239 103.445 163.224 103.376C163.209 103.308 163.207 103.237 163.219 103.167L163.403 102.103ZM166.306 101.038L166.616 99.2672H165.019L164.71 101.038H166.306Z" fill="white"/>
<path d="M216.954 67.2785C218.387 64.4391 217.246 60.976 214.407 59.5436C211.567 58.1111 208.104 59.2518 206.672 62.0912C205.239 64.9306 206.38 68.3936 209.219 69.8261C212.059 71.2585 215.522 70.1179 216.954 67.2785Z" fill="#414141"/>
<path d="M211.357 60.8847C210.861 60.9438 210.381 61.1001 209.945 61.3446C209.509 61.5892 209.126 61.9172 208.816 62.3099C208.507 62.7026 208.278 63.1524 208.143 63.6335C208.008 64.1147 207.969 64.6177 208.028 65.114C208.087 65.6103 208.243 66.0901 208.488 66.526C208.732 66.9619 209.06 67.3454 209.453 67.6546C209.846 67.9637 210.295 68.1925 210.776 68.3278C211.258 68.4631 211.761 68.5024 212.257 68.4433C212.566 68.4139 212.87 68.3389 213.157 68.2207C213.2 68.2092 213.241 68.1884 213.275 68.1597C213.31 68.1311 213.338 68.0952 213.357 68.0547C213.376 68.0142 213.387 67.97 213.387 67.9251C213.388 67.8803 213.379 67.8358 213.36 67.7948C213.351 67.7579 213.334 67.7233 213.311 67.6933C213.288 67.6633 213.258 67.6385 213.225 67.6206C213.179 67.5991 213.13 67.588 213.08 67.588C213.029 67.588 212.98 67.5991 212.934 67.6206C212.691 67.7089 212.437 67.7642 212.18 67.7852C211.772 67.8335 211.358 67.8009 210.963 67.6894C210.567 67.5779 210.198 67.3896 209.875 67.1353C209.552 66.881 209.283 66.5656 209.082 66.2071C208.882 65.8487 208.753 65.4543 208.705 65.0463C208.657 64.6383 208.689 64.2248 208.801 63.8294C208.912 63.434 209.101 63.0645 209.355 62.7418C209.609 62.4192 209.925 62.1498 210.283 61.9491C210.642 61.7484 211.036 61.6202 211.444 61.5719C211.851 61.5233 212.263 61.5553 212.657 61.6662C213.052 61.7771 213.42 61.9646 213.742 62.2181C214.064 62.4716 214.333 62.7861 214.533 63.1435C214.733 63.5009 214.861 63.8943 214.909 64.3011C214.981 64.795 214.921 65.2993 214.735 65.7625C214.649 66.0086 214.472 66.2128 214.241 66.3335H214.173C214.129 66.3469 214.082 66.3469 214.038 66.3335C213.999 66.2704 213.97 66.2019 213.951 66.1302C213.864 65.7625 213.767 64.6011 213.767 64.5914V64.4366C213.706 63.9232 213.445 63.4549 213.039 63.1345C212.633 62.8142 212.117 62.6681 211.604 62.7284C211.09 62.7887 210.622 63.0505 210.302 63.4561C209.981 63.8618 209.835 64.3781 209.896 64.8914C209.947 65.4275 210.207 65.9218 210.62 66.2676C211.033 66.6134 211.565 66.7831 212.102 66.7399C212.584 66.6815 213.024 66.4387 213.331 66.0625V66.2367C213.357 66.4314 213.441 66.6137 213.573 66.7593C213.663 66.8538 213.774 66.9252 213.897 66.9674C214.02 67.0095 214.151 67.0211 214.28 67.0012C214.354 67.0093 214.428 67.0093 214.502 67.0012C214.911 66.8025 215.229 66.4568 215.393 66.0334C215.599 65.4673 215.665 64.8597 215.586 64.2624C215.533 63.7617 215.382 63.2764 215.14 62.8348C214.898 62.3932 214.571 62.0041 214.177 61.6899C213.784 61.3757 213.332 61.1427 212.848 61.0045C212.364 60.8663 211.857 60.8256 211.357 60.8847ZM211.967 66.0334C211.607 66.0662 211.249 65.957 210.969 65.7294C210.688 65.5017 210.508 65.1736 210.467 64.8149C210.425 64.4563 210.525 64.0955 210.746 63.8097C210.966 63.5238 211.29 63.3355 211.647 63.2849C211.997 63.2659 212.341 63.3833 212.606 63.6125C212.872 63.8417 213.038 64.1649 213.07 64.514C213.123 64.8615 213.037 65.2159 212.83 65.5003C212.624 65.7848 212.313 65.9763 211.967 66.0334Z" fill="white"/>
<path d="M340.676 216.071H68.0459V362.48H340.676V216.071Z" fill="#25244C"/>
<path d="M167.022 362.48H241.698L204.36 402.828L167.022 362.48Z" fill="#25244C"/>
<path d="M243.576 302.129C225.71 325.801 204.361 336.186 204.361 336.186C204.361 336.186 183.069 325.801 165.165 302.129C151.364 283.867 152.051 255.268 171.794 249.084C193.628 242.241 204.361 275.108 204.361 275.108C204.361 275.108 215.248 242.028 236.946 249.084C256.622 255.51 257.377 283.896 243.576 302.129Z" fill="white"/>
<path d="M350.083 219.75C347.973 220.563 286.701 221.685 284.272 220.311C284.011 220.156 284.079 217.408 283.179 210.449C283.179 210.12 281.737 208.823 279.559 206.994C271.362 200.123 252.103 185.644 252.103 185.644L282.753 159.078L312.387 188.199L320.129 195.777C320.129 195.777 345.166 209.326 347.644 211.078C350.121 212.83 352.193 218.898 350.083 219.75Z" fill="#EB9481"/>
<path d="M350.082 219.749C347.972 220.562 286.691 221.685 284.271 220.311C284.01 220.156 284.088 217.456 283.178 210.449C283.178 210.12 281.736 208.823 279.549 206.984C276.703 204.603 275.348 203.51 271.109 200.209L309.986 185.915L312.318 188.209L320.061 195.777C320.061 195.777 345.098 209.326 347.575 211.078C350.053 212.83 352.192 218.898 350.082 219.749Z" fill="#EBEBEB"/>
<path d="M354.312 220.601C352.183 221.337 286.895 222.053 284.543 220.601C283.992 220.262 283.479 216.478 283.072 211.281C283.024 210.623 276.414 205.339 275.504 204.361L315.513 190.89L320.565 195.642C320.565 195.642 350.005 209.346 352.415 211.204C354.825 213.062 356.431 219.866 354.312 220.601Z" fill="#263238"/>
<path d="M353.402 218.162C343.143 218.027 297.647 218.462 287.495 219.13C287.417 219.13 287.417 219.198 287.495 219.198C297.657 219.546 343.153 218.782 353.402 218.346C353.615 218.317 353.615 218.162 353.402 218.162Z" fill="#25244C"/>
<path d="M323.826 196.077C319.791 195.371 314.855 196.077 311.806 198.98C311.69 199.097 311.855 199.261 311.98 199.222C315.821 197.932 319.789 197.056 323.817 196.609C323.887 196.611 323.955 196.584 324.006 196.535C324.057 196.486 324.086 196.419 324.088 196.348C324.089 196.277 324.062 196.209 324.013 196.158C323.964 196.108 323.897 196.078 323.826 196.077Z" fill="#25244C"/>
<path d="M326.758 197.79C322.722 197.083 317.786 197.79 314.738 200.693C314.622 200.809 314.786 200.974 314.912 200.935C318.752 199.64 322.72 198.764 326.748 198.322C326.819 198.324 326.887 198.297 326.938 198.248C326.989 198.199 327.018 198.132 327.019 198.061C327.02 197.99 326.994 197.922 326.945 197.871C326.896 197.82 326.828 197.791 326.758 197.79Z" fill="#25244C"/>
<path d="M329.7 199.542C325.655 198.835 320.729 199.542 317.67 202.445C317.554 202.561 317.719 202.726 317.845 202.687C321.687 201.391 325.659 200.515 329.69 200.074C329.761 200.075 329.829 200.049 329.88 200C329.931 199.951 329.96 199.883 329.961 199.813C329.963 199.742 329.936 199.674 329.887 199.623C329.838 199.572 329.771 199.543 329.7 199.542Z" fill="#25244C"/>
<path d="M332.633 201.235C328.587 200.529 323.661 201.235 320.603 204.139C320.487 204.255 320.651 204.419 320.777 204.371C324.622 203.083 328.593 202.21 332.623 201.768C332.694 201.769 332.762 201.742 332.813 201.693C332.864 201.644 332.893 201.577 332.894 201.506C332.895 201.436 332.869 201.367 332.82 201.317C332.771 201.266 332.703 201.237 332.633 201.235Z" fill="#25244C"/>
<path d="M331.142 186.65C329.536 184.492 326.594 185.508 324.929 186.941C322.106 189.453 319.999 192.669 318.822 196.26C318.822 196.338 318.822 196.386 318.919 196.406C318.918 196.484 318.935 196.562 318.969 196.632C319.002 196.703 319.052 196.765 319.115 196.813C319.177 196.861 319.249 196.894 319.326 196.909C319.403 196.924 319.482 196.92 319.558 196.899C322.868 195.622 326.574 194.673 329.4 192.418C331.084 191.102 332.701 188.702 331.142 186.65ZM324.184 193.938C322.568 194.606 320.932 195.186 319.345 195.873C320.48 194.024 321.711 192.234 323.032 190.512C323.676 189.683 324.381 188.903 325.142 188.179C326.323 187.066 331.055 184.686 330.397 189.147C330.058 191.605 326.149 193.144 324.213 193.938H324.184Z" fill="#25244C"/>
<path d="M308.583 195.322C311.922 196.706 315.745 196.59 319.287 196.89C319.366 196.889 319.444 196.87 319.514 196.834C319.584 196.798 319.645 196.745 319.691 196.681C319.737 196.617 319.767 196.543 319.78 196.465C319.792 196.387 319.786 196.307 319.761 196.232C319.777 196.226 319.791 196.217 319.803 196.205C319.814 196.193 319.822 196.178 319.827 196.162C319.832 196.146 319.833 196.129 319.83 196.113C319.827 196.096 319.82 196.081 319.81 196.068C317.679 192.949 314.765 190.445 311.361 188.809C309.357 187.899 306.251 187.735 305.302 190.27C304.354 192.806 306.628 194.519 308.583 195.322ZM306.725 192.467C304.857 188.393 310.054 189.361 311.506 190.096C312.434 190.59 313.329 191.143 314.187 191.751C315.977 193 317.564 194.471 319.219 195.884C317.487 195.622 315.745 195.526 314.013 195.332C311.941 195.109 307.751 194.703 306.725 192.467Z" fill="#25244C"/>
<path d="M312.754 186.573L275.01 206.161C275.01 206.161 235.63 170.517 232.02 170.256C228.41 169.994 175.433 205.939 148.789 206.064C121.158 206.181 119.755 177.243 119.755 177.243L160.054 167.991C189.088 153.668 219.351 127.963 239.143 130.363C260.589 132.947 312.754 186.573 312.754 186.573Z" fill="#414141"/>
<path d="M303.531 181.589C297.153 184.744 298.944 183.756 292.595 186.97C289.488 188.547 273.858 196.435 271.206 198.39C271.148 198.39 271.206 198.535 271.274 198.515C274.391 197.47 289.846 189.244 292.924 187.608C299.215 184.279 297.376 185.169 303.628 181.802C303.642 181.795 303.654 181.786 303.665 181.775C303.675 181.764 303.683 181.751 303.689 181.736C303.694 181.722 303.697 181.706 303.696 181.691C303.696 181.676 303.692 181.661 303.686 181.647C303.679 181.633 303.67 181.62 303.659 181.61C303.648 181.599 303.635 181.591 303.62 181.586C303.606 181.58 303.591 181.578 303.575 181.578C303.56 181.579 303.545 181.582 303.531 181.589Z" fill="#263238"/>
<path d="M268.235 197.132C260.851 190.618 236.636 169.404 235.649 168.62C234.889 167.879 234.044 167.229 233.133 166.685C232.755 166.536 232.348 166.477 231.944 166.51C231.54 166.544 231.148 166.67 230.8 166.878C229.678 167.401 228.584 167.972 227.471 168.514L220.919 171.707C212.451 175.85 204.031 180.089 195.495 184.086C187.288 187.957 181.433 191.547 172.858 194.499C164.341 197.507 155.53 199.609 146.573 200.77C145.46 200.906 144.356 201.022 143.253 201.129C143.243 201.124 143.232 201.123 143.221 201.124C143.21 201.125 143.199 201.129 143.19 201.135C143.181 201.142 143.173 201.15 143.168 201.16C143.163 201.17 143.16 201.18 143.16 201.191C143.16 201.203 143.163 201.213 143.168 201.223C143.173 201.233 143.181 201.241 143.19 201.248C143.199 201.254 143.21 201.258 143.221 201.259C143.232 201.26 143.243 201.259 143.253 201.254C152.047 200.721 160.74 199.095 169.132 196.415C177.62 193.812 183.378 190.415 191.45 186.737C199.802 182.866 208.038 178.772 216.283 174.679C220.629 172.52 224.994 170.343 229.329 168.204C230.297 167.72 231.729 166.665 232.862 167.188C233.334 167.453 233.77 167.778 234.159 168.156L235.61 169.365C237.488 170.923 267.161 196.464 268.138 197.219C268.235 197.296 268.351 197.199 268.235 197.132Z" fill="#263238"/>
<path d="M119.629 177.224C119.629 177.224 115.109 203.355 128.175 213.623C141.24 223.892 236.975 222.653 251.501 217.93C266.028 213.207 266.483 189.796 250.601 184.367C235.504 179.199 171.242 176.682 169.664 176.053C169.267 175.899 175.355 172.24 175.335 172.018L160.712 167.604L119.629 177.224Z" fill="#414141"/>
<path d="M139.46 176.566C139.46 176.45 139.276 176.489 139.276 176.566C139.274 179.604 138.201 182.545 136.247 184.87C134.031 187.435 130.75 188.877 127.779 190.377C127.488 190.522 127.701 190.967 128.001 190.88C129.828 190.321 131.587 189.561 133.247 188.616C134.774 187.805 136.119 186.688 137.195 185.335C138.16 184.11 138.86 182.698 139.25 181.189C139.64 179.679 139.712 178.105 139.46 176.566Z" fill="#263238"/>
<path d="M168.61 173.324C167.942 172.482 167.226 171.669 166.529 170.847C164.893 168.911 163.248 166.976 161.535 165.04C161.371 164.866 161.051 165.117 161.206 165.311C162.358 166.821 163.577 168.282 164.787 169.753C165.397 170.508 166.016 171.263 166.645 172.008C167.292 172.683 167.872 173.419 168.378 174.205C168.472 174.373 168.522 174.564 168.52 174.757C168.518 174.95 168.466 175.14 168.368 175.306C168.269 175.473 168.129 175.611 167.961 175.706C167.793 175.802 167.603 175.852 167.41 175.85C166.64 175.875 165.891 175.601 165.319 175.086C164.021 173.936 162.835 172.666 161.777 171.292C161.08 170.518 160.393 169.743 159.696 168.979C159 168.214 158.158 167.392 157.412 166.579C157.412 166.53 157.277 166.579 157.316 166.656C157.964 167.547 158.564 168.476 159.251 169.366C159.938 170.256 160.558 171.137 161.235 172.018C161.913 172.899 162.522 173.653 163.171 174.447C163.732 175.15 164.406 175.754 165.164 176.237C166.403 176.963 168.561 177.128 169.229 175.521C169.326 175.133 169.319 174.726 169.211 174.341C169.102 173.955 168.895 173.605 168.61 173.324Z" fill="#263238"/>
<path d="M249.518 218.046C244.514 218.142 239.52 218.433 234.517 218.539C229.513 218.646 224.587 218.665 219.632 218.626C209.664 218.53 199.705 218.142 189.756 217.465C179.71 216.768 168.871 215.762 158.893 214.387C154.122 213.72 149.273 213.168 144.56 212.152C140.311 211.337 136.385 209.322 133.246 206.345C126.781 200.074 124.275 190.86 123.239 182.043C123.103 180.863 122.987 179.682 122.891 178.492C122.891 178.476 122.884 178.461 122.874 178.451C122.863 178.44 122.848 178.434 122.832 178.434C122.817 178.434 122.802 178.44 122.791 178.451C122.781 178.461 122.774 178.476 122.774 178.492C123.355 187.521 124.758 196.938 130.439 204.196C132.839 207.361 136.031 209.838 139.692 211.378C144.163 213.168 149.118 213.584 153.841 214.233C163.858 215.587 174.736 216.633 184.811 217.417C194.885 218.201 205.134 218.694 215.287 218.849C225.439 219.004 235.61 218.849 245.792 218.355C247.03 218.288 248.269 218.22 249.508 218.113C249.585 218.152 249.585 218.046 249.518 218.046Z" fill="#263238"/>
<path d="M217.987 179.634C214.832 179.17 211.697 178.666 208.532 178.386C205.367 178.105 202.135 177.766 198.931 177.495C192.592 176.963 186.244 176.479 179.895 176.179C176.285 176.015 172.685 175.995 169.075 176.044C168.959 176.044 168.968 176.208 169.075 176.218C175.424 176.789 181.782 177.186 188.14 177.612C194.499 178.037 200.819 178.579 207.158 179.199C210.748 179.537 214.339 179.808 217.929 180.099C218.2 180.118 218.249 179.673 217.987 179.634Z" fill="#263238"/>
<path d="M176.081 171.727C173.548 172.811 171.11 174.106 168.793 175.598C166.427 177.011 164.163 178.589 162.019 180.321C161.961 180.37 162.019 180.447 162.096 180.418C164.564 179.276 166.935 177.844 169.297 176.469C171.688 175.135 173.996 173.654 176.207 172.037C176.381 171.95 176.294 171.64 176.081 171.727Z" fill="#263238"/>
<path d="M203.528 89.5997L194.383 115.343C194.292 115.484 194.239 115.646 194.229 115.813C194.219 115.98 194.253 116.147 194.327 116.297C194.402 116.447 194.513 116.576 194.652 116.67C194.791 116.764 194.951 116.82 195.118 116.834L208.735 118.121C209.154 118.127 209.566 118.015 209.924 117.797C210.281 117.58 210.57 117.266 210.758 116.892L219.904 91.1482C220.262 90.3933 219.904 89.7255 219.168 89.6577L205.551 88.3706C205.132 88.3622 204.719 88.4733 204.361 88.691C204.003 88.9086 203.714 89.2238 203.528 89.5997Z" fill="#414141"/>
<path d="M205.145 89.7446L195.999 115.507C195.91 115.648 195.859 115.809 195.851 115.975C195.842 116.141 195.877 116.306 195.951 116.455C196.025 116.603 196.135 116.73 196.273 116.824C196.41 116.917 196.569 116.974 196.734 116.988L210.351 118.246C210.769 118.254 211.181 118.144 211.539 117.929C211.897 117.713 212.186 117.4 212.374 117.027L221.52 91.2641C221.878 90.5092 221.52 89.8511 220.784 89.7736L207.167 88.4865C206.745 88.4819 206.331 88.5978 205.973 88.8207C205.614 89.0436 205.327 89.3641 205.145 89.7446Z" fill="#455A64"/>
<path d="M208.764 91.3029C208.718 91.6004 208.558 91.8683 208.317 92.0491C208.077 92.23 207.775 92.3095 207.477 92.2707C207.319 92.2608 207.165 92.2189 207.024 92.1476C206.884 92.0763 206.759 91.977 206.658 91.8558C206.556 91.7347 206.481 91.5941 206.436 91.4428C206.391 91.2915 206.377 91.1326 206.396 90.9759C206.414 90.8191 206.464 90.6677 206.543 90.531C206.622 90.3943 206.728 90.2751 206.855 90.1807C206.981 90.0863 207.126 90.0187 207.279 89.982C207.433 89.9453 207.592 89.9403 207.748 89.9673C207.904 89.9836 208.055 90.0318 208.192 90.1089C208.329 90.1859 208.449 90.2902 208.544 90.4154C208.64 90.5405 208.708 90.6838 208.746 90.8364C208.784 90.989 208.79 91.1478 208.764 91.3029Z" fill="#263238"/>
<path d="M154.731 130.518C162.744 146.874 180.475 167.991 187.636 167.972C191.062 167.972 197.179 168.669 201.602 164.662C211.28 155.952 219.816 140.041 221.925 131.234C222.709 127.934 204.883 119.621 202.569 122.408C197.014 128.892 190.695 141.474 189.698 141.474C185.972 141.203 171.455 129.463 161.235 121.15C148.866 111.143 151.528 124.053 154.731 130.518Z" fill="#EB9481"/>
<path d="M223.61 115.614C222.594 108.694 221.268 107.068 223.523 100.777C224.994 96.6448 222.991 93.9253 219.652 97.0222C214.165 102.074 213.594 111.278 214.31 114.53L223.61 115.614Z" fill="#EB9481"/>
<path d="M220.339 135.56C220.339 135.56 224.326 126.472 223.978 118.982C223.736 113.814 221.955 102.606 208.28 95.377C205.038 93.664 199.202 93.5188 203.441 98.2804C206.48 101.639 209.422 102.848 210.835 105.123C210.835 105.123 203.393 105.82 201.796 109.139C200.407 112.037 199.224 115.028 198.254 118.091C198.778 118.397 199.321 118.669 199.88 118.904C199.88 118.904 198.486 122.059 200.422 126.937L220.339 135.56Z" fill="#EB9481"/>
<path d="M222.952 114.085C221.075 112.149 217.029 108.036 212.548 105.839C207.574 103.41 197.334 100.032 195.573 103.749C194.286 106.458 198.08 108.075 198.08 108.075C198.08 108.075 193.56 107.581 192.931 110.281C192.35 112.74 195.36 113.823 195.36 113.823C195.36 113.823 192.573 113.998 192.457 116.475C192.341 119.446 198.215 118.595 200.702 121.721C201.283 122.418 222.952 114.085 222.952 114.085Z" fill="#EB9481"/>
<path d="M210.854 111.53C207.085 109.094 202.662 107.865 198.176 108.007C198.06 108.007 198.012 108.104 198.108 108.123C202.472 108.755 206.742 109.915 210.825 111.578C210.825 111.578 210.874 111.54 210.854 111.53Z" fill="#263238"/>
<path d="M208.231 116.475C204.269 114.419 199.826 113.47 195.369 113.727C195.253 113.727 195.205 113.833 195.311 113.843C199.706 114.243 204.04 115.142 208.231 116.524C208.231 116.524 208.231 116.495 208.231 116.475Z" fill="#263238"/>
<path d="M159.919 142.973L180.243 134.873C180.243 134.873 161.961 119.156 155.283 116.049C147.763 112.555 147.618 117.162 150.26 124.595C152.902 132.027 159.919 142.973 159.919 142.973Z" fill="#25244C"/>
<path d="M159.919 142.973L180.243 134.873C180.243 134.873 161.961 119.156 155.283 116.049C147.763 112.555 147.618 117.162 150.26 124.595C152.902 132.027 159.919 142.973 159.919 142.973Z" fill="#25244C"/>
<path d="M175.994 132.396C175.239 132.57 168.852 134.989 167.477 135.551C166.103 136.112 160.441 138.328 159.067 139.015C159.057 139.02 159.048 139.027 159.042 139.037C159.036 139.046 159.032 139.057 159.032 139.069C159.032 139.08 159.036 139.091 159.042 139.1C159.048 139.11 159.057 139.117 159.067 139.122C160.538 138.696 166.248 136.48 167.661 135.938C169.074 135.396 175.346 132.86 175.994 132.492C176.007 132.492 176.019 132.487 176.028 132.478C176.037 132.469 176.042 132.457 176.042 132.444C176.042 132.431 176.037 132.419 176.028 132.41C176.019 132.401 176.007 132.396 175.994 132.396Z" fill="#263238"/>
<path d="M167.778 139.847L159.919 142.964C159.919 142.964 152.951 132.018 150.309 124.575C148.373 119.146 147.938 115.217 150.773 114.897L167.778 139.847Z" fill="#263238"/>
<path d="M173.981 171.262L118.439 182.121C118.352 180.969 122.155 146.515 126.791 133.431C132.733 116.668 136.585 114.936 138.869 113.813C141.773 112.371 147.289 112.294 148.654 112.758C150.193 113.281 155.767 120.878 158.109 126.656C162.813 138.25 174.649 170.449 173.981 171.262Z" fill="#25244C"/>
<path opacity="0.1" d="M150.27 114.153L134.679 117.182C135.05 116.723 135.444 116.284 135.86 115.866L149.409 113.253C149.712 113.537 150 113.837 150.27 114.153ZM151.799 115.982L132.947 119.631C132.714 119.999 132.472 120.405 132.23 120.84L152.496 116.921C152.254 116.592 152.032 116.311 151.799 115.982ZM153.803 118.779L130.982 123.192L130.421 124.383L154.412 119.737C154.219 119.408 154.035 119.098 153.803 118.779ZM155.574 121.634L129.395 126.705C129.23 127.083 129.066 127.48 128.911 127.886L156.125 122.612C155.971 122.292 155.767 121.953 155.574 121.634ZM157.151 124.537L127.991 130.18C127.846 130.557 127.711 130.935 127.556 131.331L157.616 125.525C157.471 125.196 157.316 124.857 157.151 124.537ZM158.448 127.441L126.733 133.586C126.598 133.954 126.472 134.332 126.346 134.738L158.874 128.467C158.7 128.128 158.564 127.789 158.448 127.47V127.441ZM159.619 130.412L125.678 136.983C125.582 137.361 125.466 137.738 125.369 138.125L160.006 131.419C159.842 131.109 159.745 130.77 159.619 130.441V130.412ZM160.771 133.383L124.827 140.351C124.73 140.709 124.643 141.087 124.556 141.474L161.148 134.38C161.013 134.08 160.897 133.732 160.81 133.412L160.771 133.383ZM161.903 136.364L124.033 143.719L123.801 144.842L162.261 137.4C162.155 137.051 162.039 136.722 161.903 136.393V136.364ZM163.036 139.345L123.356 147.02L123.143 148.142L163.384 140.4C163.287 140.051 163.152 139.703 163.036 139.374V139.345ZM164.149 142.326L122.765 150.339C122.698 150.697 122.64 151.075 122.581 151.452L164.526 143.323C164.39 143.023 164.274 142.684 164.149 142.355V142.326ZM165.252 145.297L122.194 153.649C122.127 154.017 122.069 154.384 122.001 154.752L165.649 146.313C165.503 146.003 165.378 145.674 165.252 145.345V145.297ZM166.355 148.287L121.652 156.998C121.594 157.375 121.527 157.743 121.468 158.111L166.723 149.342C166.616 148.974 166.471 148.645 166.355 148.316V148.287ZM167.449 151.268L121.13 160.269C121.072 160.627 121.014 161.004 120.965 161.372L167.787 152.304C167.691 151.975 167.584 151.626 167.449 151.297V151.268ZM168.513 154.259L120.656 163.53C120.656 163.908 120.549 164.266 120.501 164.634L168.891 155.265C168.755 154.965 168.639 154.626 168.552 154.288L168.513 154.259ZM169.588 157.249L120.23 166.821C120.23 167.189 120.123 167.556 120.075 167.914L169.965 158.236C169.83 157.927 169.704 157.617 169.588 157.278V157.249ZM170.633 160.24L119.765 170.121C119.714 170.502 119.665 170.869 119.62 171.224L170.981 161.275C170.875 160.937 170.749 160.607 170.633 160.269V160.24ZM171.668 163.24L119.349 173.411C119.349 173.779 119.262 174.157 119.223 174.505L172.017 164.285C171.901 163.956 171.794 163.608 171.668 163.269V163.24ZM172.636 166.24L118.943 176.644C118.943 177.031 118.846 177.389 118.817 177.738L173.014 167.247L172.636 166.24ZM173.604 169.26L118.623 179.905C118.623 180.331 118.555 180.709 118.526 181.009L173.875 170.285C173.798 170.024 173.71 169.676 173.594 169.289L173.604 169.26Z" fill="#25244C"/>
<path d="M134.311 117.656C115.323 137.429 87.6342 187.493 84.2082 194.703C81.8855 199.542 107.358 212.414 108.403 208.872C109.787 204.333 131.979 148.307 137.882 127.17C141.163 115.479 138.241 113.572 134.311 117.656Z" fill="#EB9481"/>
<path d="M109.642 205.493C108.751 207.922 105.77 218.23 103.612 219.517C101.454 220.804 90.3921 220.484 84.7982 220.484C79.2043 220.484 78.101 218.926 78.1978 217C78.2946 215.074 90.0243 214.707 90.0243 214.707C90.0243 214.707 74.3459 219.197 70.3973 219.933C66.4487 220.668 57.3707 222.962 56.0545 219.691C55.4641 218.22 57.9901 216.72 57.9901 216.72C57.9901 216.72 54.177 217.842 53.5672 215.945C52.8801 213.787 55.9093 212.597 55.9093 212.597C55.9093 212.597 53.5285 213.071 53.4705 211.319C53.3446 207.39 68.2585 205.455 68.2585 205.455C68.2585 205.455 56.8384 211.019 56.4707 207.806C55.9287 203.412 79.3301 198.573 81.769 196.638C83.3512 195.282 84.6644 193.64 85.6402 191.799L109.642 205.493Z" fill="#EB9481"/>
<path d="M78.2752 218.017C78.2359 217.742 78.2638 217.462 78.3565 217.201C78.4492 216.94 78.604 216.705 78.8075 216.516C79.2095 216.148 79.6708 215.85 80.1721 215.636C81.2048 215.188 82.2773 214.838 83.3755 214.591C85.5821 214.029 87.8467 213.623 90.092 213.052C87.7647 213.018 85.4425 213.281 83.1819 213.836C82.0303 214.095 80.9221 214.518 79.8914 215.094C79.3545 215.389 78.8836 215.791 78.5075 216.274C78.3256 216.522 78.209 216.811 78.1684 217.116C78.1278 217.42 78.1645 217.73 78.2752 218.017Z" fill="#263238"/>
<path d="M57.9512 216.758C59.5577 216.371 61.1546 215.916 62.7902 215.452C64.4258 214.987 65.9549 214.484 67.5324 214.029L72.2553 212.548C73.8296 212.058 75.4103 211.574 76.9975 211.097C75.3473 211.275 73.7111 211.566 72.1004 211.968C70.4842 212.335 68.8873 212.8 67.2614 213.284C65.6355 213.768 64.1064 214.252 62.5579 214.881C61.0094 215.51 59.4513 216.061 57.9512 216.758Z" fill="#263238"/>
<path d="M73.1657 207.178C71.6425 207.276 70.1287 207.486 68.6364 207.807C67.1433 208.107 65.667 208.485 64.2135 208.939C62.755 209.393 61.3235 209.929 59.9262 210.546C58.5266 211.145 57.1715 211.844 55.8711 212.636C57.3131 212.133 58.7164 211.581 60.1488 211.107C61.5811 210.633 63.0522 210.139 64.4458 209.694C65.8395 209.249 67.3492 208.813 68.7816 208.387C70.2139 207.962 71.6947 207.575 73.1657 207.178Z" fill="#263238"/>
<path d="M70.8524 203.413C68.3963 203.604 65.9757 204.114 63.652 204.933C61.3133 205.707 59.0874 206.787 57.0322 208.146C59.3453 207.323 61.6003 206.442 63.9036 205.678C66.207 204.913 68.52 204.187 70.8524 203.413Z" fill="#263238"/>
<path d="M115.255 138.144L136.624 138.899C138.156 133.535 139.409 128.095 140.379 122.601C141.453 114.733 138.782 112.488 131.437 118.875C126.51 123.153 115.255 138.144 115.255 138.144Z" fill="#25244C"/>
<path d="M134.021 138.812C134.882 138.769 135.744 138.769 136.605 138.812C136.915 137.583 137.215 136.354 137.573 135.135C137.734 134.528 137.908 133.919 138.095 133.306C138.299 132.647 138.492 131.873 138.676 131.283C138.676 131.196 138.821 131.215 138.802 131.283C138.647 132.076 138.502 132.657 138.366 133.344C138.231 134.031 138.105 134.564 137.95 135.164C137.631 136.441 137.34 137.816 136.982 139.035C136.01 139.022 135.041 138.944 134.079 138.803C134.079 138.803 133.982 138.812 134.021 138.812Z" fill="#263238"/>
<path d="M117.491 136.189C120.607 136.083 123.724 136.025 126.84 136.102C128.398 136.102 129.956 136.208 131.505 136.296C133.053 136.383 134.602 136.625 136.16 136.683C136.178 136.683 136.195 136.69 136.208 136.702C136.22 136.715 136.228 136.732 136.228 136.75C136.228 136.768 136.22 136.786 136.208 136.798C136.195 136.811 136.178 136.818 136.16 136.818C134.621 136.673 133.043 136.741 131.495 136.683C129.947 136.625 128.379 136.567 126.83 136.518C123.724 136.431 120.607 136.344 117.501 136.325C117.394 136.325 117.414 136.199 117.491 136.189Z" fill="#263238"/>
<path d="M149.535 124.208C146.293 125.021 140.718 120.182 138.473 116.311C138.525 114.075 138.69 111.843 138.966 109.623C139.121 107.484 139.257 105.094 139.218 102.907C139.218 102.452 152.999 105.994 152.999 105.994C152.265 108.742 151.872 111.57 151.828 114.414C151.838 114.716 151.873 115.017 151.935 115.314C151.941 115.362 151.941 115.411 151.935 115.459C152.264 117.114 152.632 123.414 149.535 124.208Z" fill="#EB9481"/>
<path d="M140.06 102.897C140.756 106.585 143.224 115.479 150.551 115.479C151.02 115.483 151.489 115.451 151.954 115.382C151.96 115.331 151.96 115.279 151.954 115.227C151.894 114.934 151.855 114.636 151.838 114.337C151.887 111.486 152.284 108.652 153.018 105.898C153.018 105.898 143.05 103.391 140.06 102.897Z" fill="#263238"/>
<path d="M137.437 98.039C137.437 98.039 131.775 91.9031 133.711 85.5737C134.814 81.867 140.263 80.6186 140.108 80.2992C140.108 80.2992 149.031 72.3536 153.841 76.428C158.39 80.2992 159.067 92.2225 159.067 92.2225L137.437 98.039Z" fill="#263238"/>
<path d="M141.453 79.2246C141.453 79.2246 148.76 73.0984 152.292 73.3307C155.825 73.5629 150.754 76.6986 150.754 76.6986L141.453 79.2246Z" fill="#263238"/>
<path d="M146.467 78.1311C146.467 78.1311 152.941 74.0566 155.719 75.6632C158.497 77.2697 149.564 78.1407 146.467 78.1311Z" fill="#263238"/>
<path d="M139.663 80.9087C139.663 80.9087 142.702 75.76 144.976 74.6277C147.251 73.4954 146.293 77.3859 139.663 80.9087Z" fill="#263238"/>
<path d="M140.117 80.502C136.565 81.7698 132.656 83.9086 132.375 88.1089C132.094 91.9123 134.62 95.2706 137.533 97.4288C137.554 97.4392 137.578 97.4423 137.601 97.4378C137.624 97.4332 137.645 97.4211 137.661 97.4035C137.676 97.3858 137.685 97.3635 137.687 97.3401C137.688 97.3167 137.682 97.2934 137.669 97.274C135.085 94.9028 132.568 92.193 132.694 88.4282C132.83 84.0248 136.759 82.2924 140.204 80.6858C140.272 80.6278 140.224 80.502 140.117 80.502Z" fill="#263238"/>
<path d="M153.125 72.7596C149.835 72.4499 146.728 74.4242 144.744 76.9212C144.738 76.9381 144.736 76.9566 144.741 76.9742C144.745 76.9918 144.755 77.0076 144.769 77.0193C144.783 77.0311 144.8 77.0382 144.818 77.0396C144.836 77.0411 144.854 77.0369 144.87 77.0276C147.27 74.6081 149.622 73.0693 153.116 72.8467L153.125 72.7596Z" fill="#263238"/>
<path d="M151.354 76.0598C152.781 75.2171 154.465 74.9181 156.096 75.2179C155.291 75.0151 154.452 74.9854 153.634 75.1305C152.817 75.2756 152.04 75.5924 151.354 76.0598Z" fill="#263238"/>
<path d="M136.615 87.4119C135.327 92.338 138.453 106.284 142.034 109.275C147.231 113.62 155.458 113.726 159.077 107.542C162.59 101.552 158.187 83.444 154.238 80.7535C148.383 76.7855 138.55 80.1437 136.615 87.4119Z" fill="#EB9481"/>
<path d="M151.074 104.533C151.354 104.697 151.645 104.958 151.983 104.91C152.334 104.827 152.663 104.672 152.951 104.455C152.951 104.455 153.009 104.455 152.999 104.455C152.906 104.67 152.755 104.856 152.564 104.992C152.374 105.128 152.149 105.21 151.916 105.229C151.713 105.219 151.517 105.149 151.354 105.029C151.19 104.908 151.066 104.742 150.996 104.552C150.996 104.552 151.035 104.503 151.074 104.533Z" fill="#263238"/>
<path d="M151.45 101.494C151.769 101.816 152.152 102.068 152.573 102.234C152.995 102.401 153.446 102.478 153.899 102.462C154.293 102.447 154.684 102.379 155.06 102.259C155.133 102.243 155.205 102.221 155.273 102.191L155.476 102.113C155.524 102.093 155.565 102.057 155.591 102.012C155.617 101.967 155.628 101.914 155.621 101.862V101.765V101.688C155.486 100.962 155.176 99.8682 155.176 99.8682C155.467 99.9456 156.947 100.265 156.851 99.8682C156.054 96.6203 154.929 93.4618 153.492 90.4418C153.483 90.42 153.466 90.4026 153.444 90.3936C153.422 90.3845 153.398 90.3844 153.376 90.3934C153.354 90.4024 153.337 90.4197 153.328 90.4415C153.319 90.4632 153.319 90.4877 153.328 90.5096C154.044 93.5097 155.263 96.3164 156.057 99.3746C155.527 99.2543 154.983 99.2119 154.441 99.2488C154.344 99.2488 155.08 101.33 155.118 101.668C154.538 101.86 153.925 101.933 153.316 101.881C152.708 101.83 152.116 101.655 151.576 101.368C151.441 101.359 151.383 101.436 151.45 101.494Z" fill="#263238"/>
<path d="M154.557 101.988C154.272 102.592 153.835 103.112 153.29 103.497C152.986 103.697 152.627 103.799 152.264 103.788C151.47 103.788 151.296 103.072 151.296 102.452C151.301 102.125 151.346 101.8 151.431 101.484C152.393 101.98 153.488 102.156 154.557 101.988Z" fill="#263238"/>
<path d="M153.29 103.496C152.986 103.696 152.627 103.798 152.264 103.787C151.47 103.787 151.296 103.071 151.296 102.451C151.698 102.373 152.114 102.434 152.476 102.624C152.839 102.814 153.126 103.122 153.29 103.496Z" fill="#FF98B9"/>
<path d="M150.299 95.29C150.299 95.29 150.231 95.3481 150.241 95.3868C150.463 96.3546 150.56 97.4289 149.767 97.9128C150.792 97.6128 150.657 96.1417 150.299 95.29Z" fill="#263238"/>
<path d="M149.254 94.4676C147.715 94.6612 148.209 97.7291 149.641 97.5452C151.074 97.3614 150.551 94.3128 149.254 94.4676Z" fill="#263238"/>
<path d="M155.883 94.1865C155.883 94.1865 155.961 94.1865 155.971 94.2543C156.096 95.2221 156.396 96.277 157.306 96.4609C156.232 96.5286 155.845 95.1059 155.883 94.1865Z" fill="#263238"/>
<path d="M156.57 93.084C158.08 92.7259 158.69 95.7648 157.296 96.1035C155.902 96.4422 155.302 93.3549 156.57 93.084Z" fill="#263238"/>
<path d="M147.618 93.5961C148.017 93.4451 148.407 93.2739 148.789 93.0832C149.223 92.9572 149.604 92.692 149.873 92.3283C149.935 92.1977 149.953 92.0501 149.924 91.9084C149.894 91.7667 149.818 91.6387 149.708 91.5444C149.459 91.3971 149.175 91.3193 148.886 91.3193C148.596 91.3193 148.312 91.3971 148.063 91.5444C147.506 91.7484 147.044 92.1519 146.766 92.6767C146.719 92.7985 146.707 92.9312 146.731 93.0596C146.755 93.188 146.816 93.3069 146.904 93.4028C146.993 93.4987 147.107 93.5677 147.233 93.6018C147.359 93.636 147.493 93.634 147.618 93.5961Z" fill="#263238"/>
<path d="M157.2 91.5933C156.816 91.5516 156.435 91.4903 156.058 91.4094C155.647 91.3976 155.25 91.2552 154.926 91.0029C154.845 90.8992 154.801 90.7715 154.801 90.64C154.801 90.5085 154.845 90.3808 154.926 90.2771C155.105 90.0855 155.333 89.9457 155.585 89.8725C155.837 89.7993 156.104 89.7953 156.358 89.8609C156.894 89.9068 157.393 90.1561 157.751 90.5577C157.834 90.6538 157.886 90.7727 157.9 90.8989C157.915 91.025 157.89 91.1525 157.83 91.2645C157.771 91.3765 157.679 91.4679 157.566 91.5266C157.454 91.5852 157.326 91.6085 157.2 91.5933Z" fill="#263238"/>
<path d="M139.092 98.5805C139.692 98.5805 140.95 94.4286 141.27 92.6479C141.589 90.8671 140.302 88.6412 142.044 85.8733C143.36 83.7925 150.145 84.7603 151.722 84.6442C154.219 84.4603 156.058 82.9602 158.081 87.1992C158.081 87.1992 155.884 74.0564 141.792 80.0471C131.04 84.6248 135.773 98.6966 139.092 98.5805Z" fill="#263238"/>
<path d="M140.099 98.7451C140.099 98.7451 136.653 94.39 134.669 95.6481C132.685 96.9062 135.453 103.342 137.931 104.097C138.241 104.216 138.572 104.271 138.904 104.258C139.236 104.246 139.562 104.166 139.862 104.024C140.162 103.882 140.431 103.681 140.651 103.432C140.871 103.183 141.039 102.893 141.144 102.578L140.099 98.7451Z" fill="#EB9481"/>
<path d="M135.511 97.4775C135.511 97.4775 135.462 97.5259 135.511 97.5356C136.31 97.8797 137.029 98.3859 137.622 99.0223C138.215 99.6587 138.669 100.411 138.956 101.233C138.847 101.069 138.704 100.931 138.537 100.828C138.369 100.725 138.181 100.66 137.986 100.637C137.791 100.614 137.593 100.634 137.406 100.695C137.22 100.756 137.048 100.857 136.904 100.991C136.904 100.991 136.904 101.087 136.953 101.078C137.244 100.963 137.564 100.942 137.868 101.019C138.172 101.095 138.444 101.265 138.646 101.504C138.98 101.891 139.272 102.313 139.517 102.762C139.605 102.907 139.876 102.81 139.808 102.646C139.701 100.478 137.843 97.555 135.511 97.4775Z" fill="#263238"/>
</svg>
