<svg width="49" height="48" viewBox="0 0 49 48" fill="none" xmlns="http://www.w3.org/2000/svg">
<path fill-rule="evenodd" clip-rule="evenodd" d="M15.5 11C15.5 10.7348 15.6054 10.4804 15.7929 10.2929C15.9804 10.1054 16.2348 10 16.5 10C16.7652 10 17.0196 10.1054 17.2071 10.2929C17.3946 10.4804 17.5 10.7348 17.5 11V12H19.5C20.2956 12 21.0587 12.3161 21.6213 12.8787C22.1839 13.4413 22.5 14.2044 22.5 15C22.5 15.7956 22.1839 16.5587 21.6213 17.1213C21.0587 17.6839 20.2956 18 19.5 18H17.5V19H21.5V21H17.5V24H22.086L26.562 19.523C25.5761 18.0321 25.1972 16.2208 25.503 14.4598C25.8088 12.6988 26.7762 11.1212 28.207 10.05L32.399 14.243L33.349 13.293C33.5365 13.1054 33.7909 12.9999 34.0561 12.9998C34.3214 12.9997 34.5759 13.105 34.7635 13.2925C34.9511 13.48 35.0566 13.7344 35.0567 13.9996C35.0568 14.2649 34.9515 14.5194 34.764 14.707L33.814 15.657L38.006 19.849C37.6048 20.3859 37.1286 20.8625 36.592 21.264C35.5866 22.0147 34.3982 22.4818 33.1507 22.6165C31.9033 22.7513 30.6425 22.5487 29.5 22.03V24H42.5V26H40.5V40H41.5C41.7652 40 42.0196 40.1054 42.2071 40.2929C42.3946 40.4804 42.5 40.7348 42.5 41C42.5 41.2652 42.3946 41.5196 42.2071 41.7071C42.0196 41.8946 41.7652 42 41.5 42H7.5C7.23478 42 6.98043 41.8946 6.79289 41.7071C6.60536 41.5196 6.5 41.2652 6.5 41C6.5 40.7348 6.60536 40.4804 6.79289 40.2929C6.98043 40.1054 7.23478 40 7.5 40H8.5V26H6.5V24H15.5V21H11.5V19H15.5V18H13.5C12.7044 18 11.9413 17.6839 11.3787 17.1213C10.8161 16.5587 10.5 15.7956 10.5 15C10.5 14.2044 10.8161 13.4413 11.3787 12.8787C11.9413 12.3161 12.7044 12 13.5 12H15.5V11ZM27.5 21.414L24.914 24H27.5V21.414ZM31.5 40H36.5V32H31.5V40ZM13.5 14H15.5V16H13.5C13.2348 16 12.9804 15.8946 12.7929 15.7071C12.6054 15.5196 12.5 15.2652 12.5 15C12.5 14.7348 12.6054 14.4804 12.7929 14.2929C12.9804 14.1054 13.2348 14 13.5 14ZM19.5 14H17.5V16H19.5C19.7652 16 20.0196 15.8946 20.2071 15.7071C20.3946 15.5196 20.5 15.2652 20.5 15C20.5 14.7348 20.3946 14.4804 20.2071 14.2929C20.0196 14.1054 19.7652 14 19.5 14ZM35.157 19.829C34.1952 20.4637 33.0438 20.7469 31.8973 20.6307C30.7508 20.5145 29.6797 20.006 28.8648 19.1912C28.05 18.3763 27.5415 17.3052 27.4253 16.1587C27.3091 15.0122 27.5923 13.8608 28.227 12.899L35.157 19.829ZM17.5 36V32H12.5V36H17.5ZM24.5 36V32H19.5V36H24.5Z" fill="#5955B3"/>
</svg>
