<svg width="185" height="36" viewBox="0 0 185 36" fill="none" xmlns="http://www.w3.org/2000/svg">
<path d="M46.588 11.5351V2.15176H52.9121V11.5351H59.2361V17.7899H52.9121V20.9184C52.9121 22.6443 53.5305 24.1189 54.7654 25.3402C56.0002 26.5615 57.4911 27.1732 59.2361 27.1732V33.4281C57.5557 33.4281 55.9419 33.1109 54.3947 32.4745C52.8454 31.8402 51.4794 30.936 50.2946 29.7621C49.1097 28.5881 48.1956 27.2371 47.5522 25.7048C46.9108 24.1745 46.588 22.5763 46.588 20.9163V17.7879H43.425V11.533H46.588V11.5351Z" fill="#5855B3"/>
<path d="M67.7112 33.4281H61.3872V20.9184C61.3872 19.2563 61.7079 17.6602 62.3513 16.1299C62.9927 14.5997 63.9068 13.2466 65.0937 12.0726C66.2786 10.9007 67.6467 9.99659 69.1938 9.36019C70.741 8.72584 72.3569 8.40661 74.0353 8.40661V14.6615C72.2903 14.6615 70.7993 15.2732 69.5645 16.4945C68.3297 17.7158 67.7112 19.1904 67.7112 20.9163V33.4281Z" fill="#5855B3"/>
<path d="M86.8124 33.4281C85.132 33.4281 83.5182 33.1109 81.971 32.4745C80.4218 31.8402 79.0558 30.936 77.8709 29.7621C76.6861 28.5881 75.7719 27.2371 75.1285 25.7048C74.4871 24.1745 74.1644 22.5763 74.1644 20.9163C74.1644 19.2563 74.485 17.6581 75.1285 16.1279C75.7698 14.5976 76.684 13.2445 77.8709 12.0706C79.0558 10.8987 80.4239 9.99453 81.971 9.35813C83.5182 8.72378 85.1341 8.40455 86.8124 8.40455C88.4908 8.40455 90.1067 8.72172 91.6539 9.35813C93.201 9.99247 94.5691 10.8966 95.754 12.0706C96.9388 13.2445 97.853 14.5956 98.4964 16.1279C99.1378 17.6602 99.4605 19.2563 99.4605 20.9163C99.4605 22.5763 99.1398 24.1745 98.4964 25.7048C97.855 27.2371 96.9409 28.5881 95.754 29.7621C94.5691 30.934 93.201 31.8381 91.6539 32.4745C90.1046 33.1089 88.4908 33.4281 86.8124 33.4281ZM86.8124 27.1732C88.5574 27.1732 90.0484 26.5615 91.2832 25.3402C92.518 24.1189 93.1365 22.6443 93.1365 20.9184C93.1365 19.1925 92.518 17.7178 91.2832 16.4965C90.0484 15.2752 88.5574 14.6635 86.8124 14.6635C85.0674 14.6635 83.5765 15.2752 82.3417 16.4965C81.1069 17.7178 80.4884 19.1925 80.4884 20.9184C80.4884 22.6443 81.1069 24.1189 82.3417 25.3402C83.5765 26.5615 85.0674 27.1732 86.8124 27.1732Z" fill="#5855B3"/>
<path d="M113.248 33.4281C111.567 33.4281 109.953 33.1109 108.406 32.4745C106.857 31.8402 105.491 30.936 104.306 29.7621C103.121 28.5881 102.207 27.2371 101.564 25.7048C100.922 24.1745 100.6 22.5763 100.6 20.9163C100.6 19.2563 100.92 17.6581 101.564 16.1279C102.205 14.5976 103.119 13.2445 104.306 12.0706C105.491 10.8987 106.859 9.99453 108.406 9.35813C109.953 8.72378 111.569 8.40455 113.248 8.40455C114.926 8.40455 116.542 8.72172 118.089 9.35813C119.636 9.99247 121.004 10.8966 122.189 12.0706C123.374 13.2445 124.288 14.5956 124.932 16.1279C125.573 17.6602 125.896 19.2563 125.896 20.9163C125.896 22.5763 125.575 24.1745 124.932 25.7048C124.29 27.2371 123.376 28.5881 122.189 29.7621C121.004 30.934 119.636 31.8381 118.089 32.4745C116.54 33.1089 114.926 33.4281 113.248 33.4281ZM113.248 27.1732C114.993 27.1732 116.484 26.5615 117.718 25.3402C118.953 24.1189 119.572 22.6443 119.572 20.9184C119.572 19.1925 118.953 17.7178 117.718 16.4965C116.484 15.2752 114.993 14.6635 113.248 14.6635C111.503 14.6635 110.012 15.2752 108.777 16.4965C107.542 17.7178 106.924 19.1925 106.924 20.9184C106.924 22.6443 107.542 24.1189 108.777 25.3402C110.012 26.5615 111.503 27.1732 113.248 27.1732Z" fill="#5855B3"/>
<path d="M136.602 21.8371L136.592 22.7858H135.302V15.4527H136.633V18.5351C136.934 17.9443 137.551 17.5358 138.377 17.5358C139.832 17.5358 140.753 18.7006 140.753 20.2199C140.753 21.7392 139.835 22.8939 138.357 22.8939C137.48 22.8939 136.882 22.4549 136.602 21.8337V21.8371ZM139.412 20.2233C139.412 19.3657 138.927 18.6702 138.019 18.6702C137.111 18.6702 136.637 19.3657 136.637 20.2233C136.637 21.0808 137.111 21.7628 138.019 21.7628C138.927 21.7628 139.412 21.0774 139.412 20.2233Z" fill="#5855B3"/>
<path d="M146.078 22.7859H144.808L144.798 21.9385C144.559 22.4685 144.043 22.8771 143.269 22.8771C142.163 22.8771 141.514 22.141 141.514 21.0303V17.6507H142.845V20.7129C142.845 21.3037 143.135 21.7021 143.743 21.7021C144.351 21.7021 144.743 21.324 144.743 20.5171V17.6473H146.075V22.7825L146.078 22.7859Z" fill="#5855B3"/>
<path d="M147.205 15.456H148.557V16.8233H147.205V15.456ZM147.216 17.6505H148.547V22.7858H147.216V17.6505Z" fill="#5855B3"/>
<path d="M149.683 15.456H151.014V22.7891H149.683V15.456Z" fill="#5855B3"/>
<path d="M155.084 17.6505V18.7107H153.671V20.8951C153.671 21.4555 153.951 21.6817 154.527 21.6817C154.702 21.6817 154.94 21.6311 155.125 21.5399V22.6001C154.92 22.7621 154.497 22.8465 154.135 22.8465C152.937 22.8465 152.339 22.2118 152.339 21.1821V18.7107H151.636V18.4237L153.268 16.5364H153.671V17.6505H155.084Z" fill="#5855B3"/>
<path d="M159.751 15.4055C160.061 15.4055 160.358 15.4562 160.525 15.5575L160.73 16.6581C160.566 16.5973 160.358 16.5568 160.102 16.5568C159.587 16.5568 159.307 16.7594 159.307 17.2625V17.6507H160.628V18.7109H159.307V22.786H157.976V18.7109H157.119L157.303 17.6507H157.976V17.2523C157.976 15.7702 159.037 15.4055 159.751 15.4055Z" fill="#5855B3"/>
<path d="M166.376 20.2126C166.376 21.7556 165.345 22.9508 163.587 22.9508C161.829 22.9508 160.798 21.7556 160.798 20.2126C160.798 18.6697 161.829 17.488 163.587 17.488C165.345 17.488 166.376 18.6832 166.376 20.2126ZM162.143 20.2126C162.143 21.0601 162.638 21.8062 163.587 21.8062C164.536 21.8062 165.031 21.0601 165.031 20.2126C165.031 19.3652 164.536 18.6292 163.587 18.6292C162.638 18.6292 162.143 19.3652 162.143 20.2126Z" fill="#5855B3"/>
<path d="M169.599 18.9579C168.967 18.9579 168.534 19.2854 168.534 20.2443V22.7866H167.202V17.6513H168.462L168.472 18.7655C168.701 18.0902 169.124 17.5703 169.865 17.5703C170.104 17.5703 170.34 17.6513 170.486 17.8066L170.237 19.1234C170.063 19.0221 169.824 18.9613 169.599 18.9613V18.9579Z" fill="#5855B3"/>
<path d="M137.698 29.457C137.067 29.457 136.633 29.7845 136.633 30.7434V33.2857H135.302V28.1504H136.561L136.572 29.2646C136.8 28.5894 137.224 28.0694 137.964 28.0694C138.203 28.0694 138.439 28.1504 138.586 28.3058L138.336 29.6225C138.162 29.5212 137.923 29.4604 137.698 29.4604V29.457Z" fill="#5855B3"/>
<path d="M141.805 33.4176C139.76 33.4176 138.74 32.273 138.74 30.7031C138.74 29.2648 139.689 28.019 141.371 28.019C142.836 28.019 143.693 29.204 143.693 30.5815C143.693 30.7638 143.682 31.0204 143.652 31.1825H140.122C140.286 31.9084 140.877 32.3068 141.948 32.3068C142.525 32.3068 143.116 32.1346 143.454 31.8881V33.0428C143.082 33.2893 142.358 33.4209 141.802 33.4209L141.805 33.4176ZM141.32 29.1196C140.648 29.1196 140.214 29.5585 140.102 30.2642H142.392C142.31 29.5687 141.918 29.1196 141.317 29.1196H141.32Z" fill="#5855B3"/>
<path d="M147.68 29.5179C147.287 29.2411 146.802 29.1398 146.43 29.1398C145.894 29.1398 145.635 29.3018 145.635 29.5787C145.635 29.7813 145.727 29.8859 146.12 30.0378L146.946 30.3653C147.7 30.6624 148.113 31.0305 148.113 31.7732C148.113 32.803 147.297 33.4276 146.038 33.4276C145.461 33.4276 144.768 33.2858 144.437 32.9785V31.7935C145.014 32.2121 145.584 32.3236 146.048 32.3236C146.553 32.3236 146.813 32.1615 146.813 31.8644C146.813 31.6382 146.68 31.5571 146.287 31.4052L145.44 31.0777C144.758 30.8144 144.324 30.4329 144.324 29.6496C144.324 28.6907 145.14 28.0256 146.533 28.0256C147.069 28.0256 147.629 28.1573 147.967 28.4038L147.676 29.5179H147.68Z" fill="#5855B3"/>
<path d="M151.85 28.1503V29.2104H150.437V31.3948C150.437 31.9553 150.717 32.1815 151.294 32.1815C151.468 32.1815 151.707 32.1309 151.891 32.0397V33.0998C151.686 33.2619 151.263 33.3463 150.901 33.3463C149.703 33.3463 149.106 32.7116 149.106 31.6818V29.2104H148.402V28.9234L150.034 27.0361H150.437V28.1503H151.85Z" fill="#5855B3"/>
<path d="M156.64 33.2859H155.391L155.381 32.4284C155.142 33.0192 154.688 33.3669 154.009 33.3669C152.988 33.3669 152.346 32.6613 152.346 31.8341C152.346 30.4263 153.606 30.2406 154.647 30.1494L155.33 30.0886V29.9772C155.33 29.4573 154.824 29.1804 154.101 29.1804C153.555 29.1804 153.029 29.3222 152.52 29.5991L152.841 28.3938C153.346 28.1372 153.893 28.0561 154.401 28.0561C155.61 28.0561 156.64 28.6166 156.64 29.9435V33.2859ZM154.442 32.3271C154.917 32.3271 155.33 31.9388 155.33 31.3075V30.9496L154.596 31.0205C153.978 31.0812 153.677 31.2636 153.677 31.6856C153.677 32.0435 153.916 32.3304 154.442 32.3304V32.3271Z" fill="#5855B3"/>
<path d="M162.183 33.2863H160.913L160.903 32.4389C160.664 32.969 160.149 33.3775 159.374 33.3775C158.268 33.3775 157.619 32.6415 157.619 31.5307V28.1511H158.951V31.2133C158.951 31.8042 159.241 32.2026 159.848 32.2026C160.456 32.2026 160.849 31.8244 160.849 31.0175V28.1477H162.18V33.283L162.183 33.2863Z" fill="#5855B3"/>
<path d="M165.716 29.457C165.085 29.457 164.651 29.7845 164.651 30.7434V33.2857H163.32V28.1504H164.58L164.59 29.2646C164.819 28.5894 165.242 28.0694 165.983 28.0694C166.222 28.0694 166.457 28.1504 166.604 28.3058L166.355 29.6225C166.181 29.5212 165.942 29.4604 165.716 29.4604V29.457Z" fill="#5855B3"/>
<path d="M171.012 33.2859H169.762L169.752 32.4284C169.513 33.0192 169.059 33.3669 168.38 33.3669C167.359 33.3669 166.717 32.6613 166.717 31.8341C166.717 30.4263 167.977 30.2406 169.018 30.1494L169.701 30.0886V29.9772C169.701 29.4573 169.196 29.1804 168.472 29.1804C167.926 29.1804 167.4 29.3222 166.891 29.5991L167.212 28.3938C167.718 28.1372 168.264 28.0561 168.772 28.0561C169.981 28.0561 171.012 28.6166 171.012 29.9435V33.2859ZM168.813 32.3271C169.288 32.3271 169.701 31.9388 169.701 31.3075V30.9496L168.967 31.0205C168.349 31.0812 168.049 31.2636 168.049 31.6856C168.049 32.0435 168.288 32.3304 168.813 32.3304V32.3271Z" fill="#5855B3"/>
<path d="M174.398 29.231C173.756 29.231 173.387 29.6395 173.387 30.3958V33.2859H172.056V28.1506H173.346L173.357 28.9879C173.637 28.4072 174.183 28.0595 174.906 28.0595C175.992 28.0595 176.641 28.7955 176.641 29.9063V33.2859H175.309V30.2439C175.309 29.6429 175.019 29.2344 174.401 29.2344L174.398 29.231Z" fill="#5855B3"/>
<path d="M180.645 28.1503V29.2104H179.231V31.3948C179.231 31.9553 179.511 32.1815 180.088 32.1815C180.262 32.1815 180.501 32.1309 180.686 32.0397V33.0998C180.481 33.2619 180.057 33.3463 179.696 33.3463C178.497 33.3463 177.9 32.7116 177.9 31.6818V29.2104H177.197V28.9234L178.829 27.0361H179.231V28.1503H180.645Z" fill="#5855B3"/>
<path d="M184.566 29.5179C184.174 29.2411 183.689 29.1398 183.317 29.1398C182.781 29.1398 182.522 29.3018 182.522 29.5787C182.522 29.7813 182.614 29.8859 183.006 30.0378L183.833 30.3653C184.587 30.6624 185 31.0305 185 31.7732C185 32.803 184.184 33.4276 182.925 33.4276C182.348 33.4276 181.655 33.2858 181.324 32.9785V31.7935C181.9 32.2121 182.471 32.3236 182.935 32.3236C183.44 32.3236 183.699 32.1615 183.699 31.8644C183.699 31.6382 183.566 31.5571 183.174 31.4052L182.327 31.0777C181.644 30.8144 181.211 30.4329 181.211 29.6496C181.211 28.6907 182.027 28.0256 183.419 28.0256C183.955 28.0256 184.515 28.1573 184.853 28.4038L184.563 29.5179H184.566Z" fill="#5855B3"/>
<path d="M131.99 14.5008H130.891V33.428H131.99V14.5008Z" fill="#5855B3"/>
<path d="M0.00208233 21.0708C1.64921 29.2966 8.98318 35.5 17.7852 35.5C27.8012 35.5 35.9181 27.4698 35.9181 17.5654C35.9181 10.0625 31.262 3.63875 24.6506 0.965458C29.2443 3.91885 32.2803 9.03889 32.2803 14.8612C32.2803 24.0098 24.7818 31.4241 15.5321 31.4241C8.50424 31.4241 2.48422 27.1403 0 21.0708H0.00208233Z" fill="#5855B3"/>
<path d="M1.19946 17.0588C2.46344 23.4784 8.18152 28.3245 15.0428 28.3245C22.8328 28.3245 29.1464 22.0779 29.1464 14.3752C29.1444 7.15235 23.5929 1.21054 16.4775 0.5C21.1961 2.18677 24.5674 6.656 24.5674 11.9058C24.5674 18.6055 19.0763 24.0365 12.3025 24.0365C7.39023 24.0365 3.15685 21.182 1.19946 17.0588Z" fill="#5855B3"/>
<path d="M2.15942 11.4012C2.15942 15.7674 5.05802 19.4643 9.05402 20.7165C7.05498 19.1513 5.77434 16.7251 5.77434 14.0086C5.77434 9.27986 9.64748 5.4491 14.4285 5.4491C17.4708 5.4491 20.1466 7.002 21.6917 9.35195C20.738 4.94039 16.7753 1.63687 12.0338 1.63687C6.58021 1.63687 2.15942 6.00724 2.15942 11.4012Z" fill="#5855B3"/>
</svg>
