<svg width="48" height="48" viewBox="0 0 48 48" fill="none" xmlns="http://www.w3.org/2000/svg">
<path d="M8.00038 35.9997V14.1997L4.90038 7.49967C4.66704 6.99967 4.65038 6.491 4.85038 5.97367C5.05038 5.45633 5.40038 5.08167 5.90038 4.84967C6.40038 4.61767 6.90904 4.593 7.42638 4.77567C7.94371 4.95833 8.31838 5.29967 8.55038 5.79967L12.4004 14.0997H35.6004L39.4504 5.79967C39.6837 5.29967 40.059 4.94967 40.5764 4.74967C41.0937 4.54967 41.6017 4.583 42.1004 4.84967C42.6004 5.083 42.9504 5.45833 43.1504 5.97567C43.3504 6.493 43.3337 7.001 43.1004 7.49967L40.0004 14.1997V35.9997C40.0004 37.0997 39.609 38.0417 38.8264 38.8257C38.0437 39.6097 37.1017 40.001 36.0004 39.9997H12.0004C10.9004 39.9997 9.95904 39.6083 9.17638 38.8257C8.39371 38.043 8.00171 37.101 8.00038 35.9997ZM20.0004 25.9997H28.0004C28.567 25.9997 29.0424 25.8077 29.4264 25.4237C29.8104 25.0397 30.0017 24.565 30.0004 23.9997C29.999 23.4343 29.807 22.9597 29.4244 22.5757C29.0417 22.1917 28.567 21.9997 28.0004 21.9997H20.0004C19.4337 21.9997 18.959 22.1917 18.5764 22.5757C18.1937 22.9597 18.0017 23.4343 18.0004 23.9997C17.999 24.565 18.191 25.0403 18.5764 25.4257C18.9617 25.811 19.4364 26.0023 20.0004 25.9997Z" fill="#7A77C2"/>
</svg>
