<svg width="49" height="48" viewBox="0 0 49 48" fill="none" xmlns="http://www.w3.org/2000/svg">
<path d="M23 10.5V19.5C23 20.2956 22.6839 21.0587 22.1213 21.6213C21.5587 22.1839 20.7956 22.5 20 22.5H11C10.2044 22.5 9.44129 22.1839 8.87868 21.6213C8.31607 21.0587 8 20.2956 8 19.5V10.5C8 9.70435 8.31607 8.94129 8.87868 8.37868C9.44129 7.81607 10.2044 7.5 11 7.5H20C20.7956 7.5 21.5587 7.81607 22.1213 8.37868C22.6839 8.94129 23 9.70435 23 10.5ZM20 25.5H11C10.2044 25.5 9.44129 25.8161 8.87868 26.3787C8.31607 26.9413 8 27.7044 8 28.5V37.5C8 38.2956 8.31607 39.0587 8.87868 39.6213C9.44129 40.1839 10.2044 40.5 11 40.5H20C20.7956 40.5 21.5587 40.1839 22.1213 39.6213C22.6839 39.0587 23 38.2956 23 37.5V28.5C23 27.7044 22.6839 26.9413 22.1213 26.3787C21.5587 25.8161 20.7956 25.5 20 25.5ZM38 7.5H29C28.2044 7.5 27.4413 7.81607 26.8787 8.37868C26.3161 8.94129 26 9.70435 26 10.5V19.5C26 20.2956 26.3161 21.0587 26.8787 21.6213C27.4413 22.1839 28.2044 22.5 29 22.5H38C38.7956 22.5 39.5587 22.1839 40.1213 21.6213C40.6839 21.0587 41 20.2956 41 19.5V10.5C41 9.70435 40.6839 8.94129 40.1213 8.37868C39.5587 7.81607 38.7956 7.5 38 7.5ZM27.5 34.5C27.8978 34.5 28.2794 34.342 28.5607 34.0607C28.842 33.7794 29 33.3978 29 33V27C29 26.6022 28.842 26.2206 28.5607 25.9393C28.2794 25.658 27.8978 25.5 27.5 25.5C27.1022 25.5 26.7206 25.658 26.4393 25.9393C26.158 26.2206 26 26.6022 26 27V33C26 33.3978 26.158 33.7794 26.4393 34.0607C26.7206 34.342 27.1022 34.5 27.5 34.5ZM39.5 28.5H35V27C35 26.6022 34.842 26.2206 34.5607 25.9393C34.2794 25.658 33.8978 25.5 33.5 25.5C33.1022 25.5 32.7206 25.658 32.4393 25.9393C32.158 26.2206 32 26.6022 32 27V37.5H27.5C27.1022 37.5 26.7206 37.658 26.4393 37.9393C26.158 38.2206 26 38.6022 26 39C26 39.3978 26.158 39.7794 26.4393 40.0607C26.7206 40.342 27.1022 40.5 27.5 40.5H33.5C33.8978 40.5 34.2794 40.342 34.5607 40.0607C34.842 39.7794 35 39.3978 35 39V31.5H39.5C39.8978 31.5 40.2794 31.342 40.5607 31.0607C40.842 30.7794 41 30.3978 41 30C41 29.6022 40.842 29.2206 40.5607 28.9393C40.2794 28.658 39.8978 28.5 39.5 28.5ZM39.5 34.5C39.1022 34.5 38.7206 34.658 38.4393 34.9393C38.158 35.2206 38 35.6022 38 36V39C38 39.3978 38.158 39.7794 38.4393 40.0607C38.7206 40.342 39.1022 40.5 39.5 40.5C39.8978 40.5 40.2794 40.342 40.5607 40.0607C40.842 39.7794 41 39.3978 41 39V36C41 35.6022 40.842 35.2206 40.5607 34.9393C40.2794 34.658 39.8978 34.5 39.5 34.5Z" fill="#5955B3"/>
</svg>
