<svg width="49" height="48" viewBox="0 0 49 48" fill="none" xmlns="http://www.w3.org/2000/svg">
<path d="M18.5676 11.9258L13.4816 16.9998C12.5476 17.9318 11.6896 18.7858 11.0116 19.5598C10.5528 20.07 10.1386 20.6187 9.77357 21.1998L9.72557 21.1498L9.53557 20.9618C8.64953 20.1058 7.61004 19.4246 6.47157 18.9538L6.22557 18.8538L5.46757 18.5538C5.23151 18.4607 5.02235 18.3103 4.85895 18.1162C4.69556 17.922 4.58308 17.6903 4.53168 17.4418C4.48028 17.1933 4.49157 16.9359 4.56452 16.6929C4.63748 16.4499 4.76981 16.2288 4.94957 16.0498C7.18957 13.8138 9.87957 11.1318 11.1796 10.5938C12.3087 10.1221 13.5441 9.96391 14.7556 10.1358C15.8476 10.2978 16.8796 10.8598 18.5676 11.9258ZM27.2536 38.6258C27.6636 39.0418 27.9336 39.3358 28.1816 39.6498C28.5056 40.0644 28.7949 40.5031 29.0496 40.9658C29.3336 41.4858 29.5556 42.0398 29.9976 43.1498C30.0843 43.3597 30.2215 43.5449 30.397 43.6891C30.5726 43.8333 30.781 43.9319 31.0037 43.9762C31.2265 44.0205 31.4568 44.0092 31.6741 43.9432C31.8914 43.8771 32.0891 43.7585 32.2496 43.5978L32.4176 43.4318C34.6576 41.1978 37.3476 38.5158 37.8876 37.2218C38.3619 36.0976 38.5203 34.8653 38.3456 33.6578C38.1836 32.5678 37.6216 31.5378 36.5516 29.8538L31.4476 34.9418C30.4916 35.8958 29.6156 36.7698 28.8216 37.4538C28.3476 37.8658 27.8276 38.2738 27.2536 38.6258Z" fill="#5955B3"/>
<path fill-rule="evenodd" clip-rule="evenodd" d="M29.3944 32.754L41.0884 21.094C42.7724 19.416 43.6144 18.576 44.0564 17.51C44.4984 16.444 44.5004 15.254 44.5004 12.88V11.746C44.5004 8.094 44.5004 6.268 43.3624 5.134C42.2244 4 40.3944 4 36.7324 4H35.5924C33.2124 4 32.0224 4 30.9524 4.442C29.8804 4.884 29.0384 5.724 27.3524 7.402L15.6604 19.062C13.6924 21.022 12.4724 22.24 12.0004 23.414C11.8542 23.7708 11.7781 24.1524 11.7764 24.538C11.7764 26.142 13.0704 27.434 15.6604 30.016L16.0084 30.362L20.0844 26.224C20.2226 26.0836 20.3872 25.9718 20.5687 25.8951C20.7502 25.8183 20.945 25.778 21.1421 25.7765C21.3391 25.775 21.5345 25.8124 21.7171 25.8864C21.8997 25.9604 22.066 26.0697 22.2064 26.208C22.3467 26.3463 22.4585 26.5109 22.5353 26.6923C22.6121 26.8738 22.6524 27.0686 22.6538 27.2657C22.6553 27.4627 22.618 27.6581 22.544 27.8408C22.4699 28.0234 22.3606 28.1896 22.2224 28.33L18.1324 32.48L18.4064 32.754C20.9964 35.334 22.2924 36.626 23.9004 36.626C24.2564 36.626 24.5964 36.564 24.9384 36.438C26.1444 35.994 27.3764 34.766 29.3944 32.754ZM34.8884 19.062C34.1589 19.7888 33.1711 20.1969 32.1414 20.1969C31.1116 20.1969 30.1238 19.7888 29.3944 19.062C29.0334 18.7033 28.7469 18.2767 28.5514 17.8068C28.3559 17.3369 28.2552 16.8329 28.2552 16.324C28.2552 15.8151 28.3559 15.3111 28.5514 14.8412C28.7469 14.3713 29.0334 13.9447 29.3944 13.586C30.1238 12.8592 31.1116 12.4511 32.1414 12.4511C33.1711 12.4511 34.1589 12.8592 34.8884 13.586C35.2494 13.9447 35.5359 14.3713 35.7314 14.8412C35.9269 15.3111 36.0275 15.8151 36.0275 16.324C36.0275 16.8329 35.9269 17.3369 35.7314 17.8068C35.5359 18.2767 35.2494 18.7033 34.8884 19.062Z" fill="#5955B3"/>
</svg>
