<svg width="1440" height="1158" viewBox="0 0 1440 1158" fill="none" xmlns="http://www.w3.org/2000/svg">
<path d="M598.215 945.243C553.208 945.243 539.706 922.725 524.154 879.569C523.182 876.586 522.952 873.478 523.476 870.424C523.997 867.371 525.265 864.43 527.202 861.77C529.238 858.428 532.83 855.869 537.2 854.646C556 850.867 575.284 850.592 593.942 850.317C619.579 849.95 643.848 849.607 667.662 841.154C675.558 837.991 683.172 834.392 690.45 830.388C712.212 819.141 736.852 806.405 759.07 812.36C774.025 816.369 782.286 822.233 783.653 829.792C786.815 847.316 750.724 867.589 726.854 881.012C722.609 883.303 718.935 885.456 716.086 887.174C706.717 893.182 697.822 899.653 689.453 906.553C669.029 922.588 645.842 940.913 618.582 944.006C611.836 944.805 605.031 945.217 598.215 945.243ZM539.308 861.312C537.257 862.146 535.613 863.509 534.636 865.183C531.91 868.954 531.113 873.432 532.414 877.668C549.733 925.932 561.583 943.593 617.528 937.225C642.025 934.431 663.104 917.777 683.613 901.674C692.244 894.557 701.425 887.886 711.101 881.699C713.95 879.912 717.795 877.828 722.097 875.4C741.552 864.473 777.728 844.132 775.335 830.8C774.452 826.013 768.128 822.027 756.507 818.912C738.162 813.987 715.346 825.784 695.207 836.183C687.553 840.403 679.528 844.169 671.194 847.454C645.785 856.616 619.55 856.914 594.284 857.281C575.996 857.441 557.168 857.807 539.308 861.312Z" fill="#5955B3" fill-opacity="0.03"/>
<path d="M1355.63 495.674C1343.35 495.617 1331.39 492.46 1321.45 486.649C1284.42 465.643 1268.92 414.973 1265.93 391.105C1261.8 357.821 1277.73 331.158 1293.11 305.41C1301.43 291.483 1310 277.098 1315.5 261.658C1320.11 248.693 1320.57 232.109 1321.2 214.561C1322.36 174.016 1323.7 128.065 1378.91 113.268C1391.15 109.969 1396 111.916 1400.81 114.756C1401.41 115.1 1402.01 115.467 1402.66 115.81C1402.95 115.95 1403.21 116.111 1403.46 116.291L1408.82 120.689C1409.01 120.833 1409.18 120.994 1409.33 121.17C1416.36 129.577 1413.34 146.23 1409.81 154.775C1394.94 190.624 1379.76 233.46 1379.76 279.274C1379.76 301.081 1392.09 317.963 1405.17 335.853C1426.22 364.693 1450.09 397.381 1420.89 456.114C1410.75 476.501 1393.75 489.627 1371.76 494.048C1366.49 495.12 1361.07 495.667 1355.63 495.674ZM1389.45 118.399C1386.69 118.529 1383.97 118.993 1381.38 119.773C1331.88 133.059 1330.68 174.566 1329.51 214.722C1329 232.727 1328.52 249.724 1323.59 263.56C1317.89 279.594 1309.15 294.209 1300.8 308.365C1285.25 334.433 1270.55 359.035 1274.45 390.417C1277.76 416.898 1294.39 462.871 1326.35 481.014C1332.5 484.61 1339.58 487.052 1347.05 488.154C1354.53 489.255 1362.23 488.992 1369.56 487.382C1393.86 482.503 1406.59 466.285 1412.83 453.548C1440.49 397.954 1418.73 368.152 1397.68 339.335C1384.6 321.445 1371.1 302.959 1371.1 279.274C1371.1 232.475 1386.51 188.974 1401.58 152.598C1404.83 144.787 1406.82 131.089 1402.32 125.271L1397.59 121.399C1396.94 121.056 1396.31 120.689 1395.68 120.323C1393.97 119.091 1391.75 118.406 1389.45 118.399Z" fill="#5955B3" fill-opacity="0.03"/>
<path d="M585.226 639.025C583.443 639.029 581.662 638.929 579.899 638.727C566.568 637.192 557.111 629.977 551.87 617.263C546.628 604.55 555.915 592.364 564.916 580.613C570.613 573.237 575.883 566.25 577.221 559.745C589.071 502.478 547.711 465.14 454.251 448.441L450.377 447.753C436.534 445.302 422.234 442.783 409.9 437.056C409.014 436.639 408.199 436.131 407.479 435.544C405.849 434.28 404.721 432.653 404.246 430.871C403.77 429.091 403.964 427.236 404.807 425.545C405.647 423.855 407.094 422.403 408.966 421.376C410.837 420.35 413.048 419.796 415.312 419.784C436.277 419.349 454.308 418.112 470.231 417.035C522.9 413.485 560.928 410.919 641.37 439.667C694.637 458.703 712.582 492.559 697.713 546.23C693.147 562.947 684.744 578.835 672.931 593.074C661.395 606.429 618.468 639.025 585.226 639.025ZM517.403 421.708C502.448 421.708 487.579 422.716 470.972 423.839C454.935 424.938 436.79 426.129 415.54 426.61C414.942 426.581 414.349 426.702 413.842 426.959C413.338 427.215 412.945 427.593 412.72 428.04C412.498 428.484 412.455 428.977 412.597 429.444C412.74 429.911 413.062 430.331 413.518 430.642C413.717 430.798 413.936 430.935 414.173 431.054C425.367 436.254 439.012 438.659 452.2 440.996L456.103 441.683C554.804 459.321 598.528 499.408 585.653 560.798C584.029 568.632 578.019 576.489 572.208 584.117C563.833 595.044 555.943 605.375 559.959 615.042C564.175 625.212 571.097 630.71 581.124 631.878C609.438 635.154 653.96 602.947 665.895 589.088C677.03 575.55 684.983 560.489 689.367 544.649C703.353 494.048 687.487 463.559 637.895 445.852C583.944 426.611 550.417 421.708 517.403 421.708Z" fill="#5955B3" fill-opacity="0.03"/>
<path d="M459.55 29.5894C453.454 37.8588 447.13 46.4259 447.13 57.0775C447.13 65.4385 451.488 72.929 455.676 80.1905C459.179 85.5172 461.757 91.2052 463.338 97.0956C466.614 113.13 454.793 126.874 444.481 135.739C412.976 162.426 347.888 182.446 305.189 178.598C283.683 176.651 269.526 170.855 261.92 160.914C247.051 141.512 259.926 109.259 273.143 80.557C275.137 76.2505 277.074 71.5317 279.125 66.538C286.275 49.1976 294.365 29.5207 307.61 18.6171C309.034 17.4718 310.743 16.1432 312.68 14.6543C316.754 11.4702 321.682 7.6448 326.553 3.38415H314.902C312.054 5.67482 309.205 7.82805 306.898 9.70641C304.932 11.2412 303.166 12.6156 301.714 13.7838C286.901 25.8327 278.47 46.3114 271.035 64.3848C269.013 69.3327 267.104 73.9827 265.167 78.1289C251.238 108.389 237.708 142.474 254.799 164.51C263.772 176.216 280.435 183.248 304.42 185.424C308.308 185.77 312.216 185.938 316.127 185.928C360.507 185.928 420.525 166.137 450.862 140.458C467.696 126.21 474.988 110.84 471.941 95.9961C470.24 89.4794 467.431 83.1821 463.594 77.2813C459.607 70.4093 455.818 63.9267 455.818 57.0775C455.818 48.3042 461.259 41.0428 467.041 33.0942C473.279 24.6187 480.173 15.204 479.66 3.31543H471.115C471.542 13.257 465.588 21.2285 459.55 29.5894Z" fill="#5955B3" fill-opacity="0.03"/>
<path d="M149.746 29.9795C159.886 35.9352 173.217 37.2867 189.34 34.011C202.956 31.2393 218.167 18.7552 235.429 3.38477H223.835C210.02 15.4566 197.259 25.3065 187.261 27.3452C173.502 30.1398 162.906 29.1777 154.788 24.4361C147.267 19.9922 142.368 12.5475 139.035 3.38477H130.062C133.823 14.6091 139.804 24.1383 149.746 29.9795Z" fill="#5955B3" fill-opacity="0.03"/>
<path d="M545.346 53.9399C542.726 67.9131 538.624 86.0094 530.021 102.044C515.115 129.196 495.754 154.619 472.453 177.636C461.059 188.884 445.307 198.711 429.982 208.24C425.795 210.828 421.693 213.371 417.79 215.914C403.946 224.937 388.052 231.706 370.989 235.843C277.587 258.544 234.66 197.771 193.157 138.993C161.396 94.0497 131.401 51.4889 80.5268 46.4723C54.8902 43.9068 29.4531 46.312 4.12988 50.8246V57.8799C29.2822 53.2985 54.5484 50.7788 79.4728 53.2985C126.103 57.8799 155.072 98.9746 185.722 142.383C220.901 192.205 260.097 247.755 333.19 247.755C346.874 247.645 360.461 245.922 373.524 242.647C391.641 238.272 408.518 231.09 423.202 221.503C427.076 219.006 431.15 216.486 435.28 213.898C451.004 204.14 467.24 194.061 479.176 182.195C502.975 158.642 522.749 132.633 537.969 104.862C546.97 88.0023 551.186 69.3333 553.863 54.9478C557.478 37.8974 557.709 20.4935 554.547 3.38477H546.002C549.021 17.4266 549.135 33.9881 545.346 53.9399Z" fill="#5955B3" fill-opacity="0.03"/>
<path d="M1428.38 727.238C1417.75 726.586 1407.07 726.48 1396.42 726.918C1339 729.644 1287.44 752.115 1237.56 773.739C1201.56 789.384 1164.3 805.58 1125.59 813.872C1030.19 834.35 953.737 810.321 904.544 744.373C888.905 723.436 878.052 706.92 880.588 684.609C884.205 652.539 898.704 625.051 914.058 596.074C921.692 581.643 929.582 566.708 936.02 551.154C944.879 529.759 946.217 509.258 947.642 487.542C948.097 480.67 948.553 473.34 949.322 466.147C950.633 453.296 955.703 440.285 960.716 427.71C964.775 417.995 968.085 408.088 970.629 398.045C978.462 363.456 956.928 302.066 927.132 274.143C889.532 238.843 835.068 223.609 765.28 228.855C694.352 234.193 629.919 259.024 597.816 273.364C550.104 294.69 465.645 326.049 436.334 296.591C434.542 294.834 433.238 292.793 432.5 290.603C431.762 288.411 431.614 286.118 432.061 283.878C434.54 268.072 459.094 249.518 473.194 240.951C484.189 234.331 495.982 227.733 507.376 221.365C563.093 190.257 620.69 158.073 631.941 99.2487C638.977 62.4146 634.078 33.2314 619.864 3.47559H610.634C625.276 33.094 630.574 61.842 623.481 98.195C612.685 154.019 556.741 185.332 502.391 215.638C490.997 222.029 479.062 228.672 467.953 235.362C463.765 237.904 426.991 260.559 423.459 282.916C422.872 286.07 423.111 289.289 424.16 292.367C425.211 295.444 427.048 298.309 429.555 300.783C445.222 316.543 474.59 319.452 516.89 309.419C541.701 303.532 570.271 293.384 601.861 279.274C633.451 265.163 696.574 240.813 765.964 235.614C832.818 230.573 884.832 245.028 920.552 278.518C948.468 304.7 969.433 364.372 962.112 396.717C959.622 406.477 956.398 416.107 952.456 425.556C947.414 438.499 942.201 451.876 940.805 465.483C940.036 472.79 939.552 480.074 939.096 487.107C937.729 508.341 936.419 528.339 927.901 548.955C921.578 564.234 913.659 579.032 906.196 593.326C891.27 621.592 875.802 650.821 872.014 683.945C869.165 708.272 881.214 726.528 897.138 747.854C936.646 800.792 992.876 827.868 1061.98 827.868C1084.2 827.719 1106.31 825.231 1127.72 820.469C1167.43 811.971 1205.12 795.569 1241.66 779.741C1290.72 758.414 1341.36 736.355 1396.97 733.744C1407.41 733.311 1417.87 733.416 1428.3 734.065L1428.38 727.238Z" fill="#5955B3" fill-opacity="0.03"/>
<path d="M1428.38 613.438C1383.53 625.506 1340.07 640.697 1298.49 658.84C1283.74 665.512 1269.56 672.973 1256.05 681.174C1241.44 689.626 1226.34 698.377 1210.22 704.859C1159.11 725.475 1066.42 725.475 1023.53 694.826C965.188 653.113 982.194 601.825 998.63 552.209C1004.9 533.333 1015.41 509.854 1026.57 484.977C1064.91 399.398 1112.66 292.881 1060.24 229.658C1001.88 159.265 873.21 163.091 772.259 190.144C764.226 192.297 754.256 195.916 743.774 199.764C711.158 211.607 666.579 227.871 641.968 213.027C634.591 208.583 630.574 203.865 629.663 198.779C627.897 188.655 638.408 177.476 648.548 166.71C652.536 162.495 656.296 158.486 659.401 154.478C663.56 149.14 667.947 143.757 672.504 138.054C701.701 101.792 734.83 60.7203 728.762 16.6478C728.124 12.1693 727.067 7.73578 725.6 3.38477H716.741C718.402 7.98618 719.584 12.6906 720.274 17.4495C725.971 59.0023 693.754 98.9746 665.326 134.274C660.711 140.001 656.353 145.407 652.166 150.79C649.317 154.546 645.586 158.418 641.74 162.541C630.517 174.452 618.952 186.776 621.203 199.741C622.427 206.613 627.697 213.004 636.841 218.525C665.326 235.798 710.902 219.281 747.249 206.018C757.589 202.261 767.331 198.711 774.937 196.672C872.897 170.421 997.434 166.298 1053.12 233.484C1103.14 293.82 1056.23 398.527 1018.51 482.641C1007.32 507.655 996.721 531.295 990.369 550.445C973.278 602.054 955.56 655.449 1017.86 699.957C1039.51 715.442 1073.75 724.674 1114.19 725.956C1117.33 725.956 1120.46 726.117 1123.59 726.117C1156.92 726.117 1190.14 720.596 1214.03 710.998C1230.78 704.264 1246.17 695.353 1261.03 686.74C1274.25 678.73 1288.1 671.429 1302.51 664.887C1342.84 647.318 1384.95 632.527 1428.38 620.677V613.438Z" fill="#5955B3" fill-opacity="0.03"/>
<path d="M1428.38 3.38477H1427.7C1427.7 12.5475 1421.26 21.4811 1408.76 30.2772C1351.47 70.5015 1274.02 63.7211 1199.05 57.1469C1162.45 53.9399 1124.62 50.6185 1090.47 53.1153C1060.47 55.406 1034.81 66.4928 1009.97 77.2819C985.128 88.071 962.254 98.0583 934.937 100.486C899.245 103.693 860.876 101.242 832.391 93.9809C793.508 84.0623 771.774 66.0118 767.786 40.3104C765.849 27.9179 768.812 15.8918 772.515 3.38477H763.741C760.181 15.6399 757.275 28.2156 759.298 41.1809C767.53 94.5765 843.129 108.756 903.204 108.756C914.12 108.756 925.027 108.282 935.877 107.336C964.846 104.747 989.856 93.8664 1014.04 83.3293C1039.22 72.3799 1063.01 62.026 1091.23 59.9644C1124.53 57.5363 1160.28 60.6516 1198.11 63.9731C1275.02 70.7077 1354.38 77.7171 1414.4 35.4313C1419.75 31.7673 1424.45 27.5367 1428.38 22.8555V3.38477Z" fill="#5955B3" fill-opacity="0.03"/>
<path d="M1063.38 3.38477C1058.36 4.71336 1053.21 6.08776 1047.91 7.55379C1003.73 19.5569 953.652 33.1864 914.029 14.1051C908.138 11.4168 903.014 7.76471 898.989 3.38477H888.791C893.688 10.4 900.946 16.1636 909.728 20.0151C924.97 27.1821 942.38 30.8208 960.032 30.5292C990.113 30.5292 1021.59 21.9621 1050.64 14.0593C1059.79 11.5625 1068.45 9.20308 1076.76 7.18728C1083.87 5.52972 1091.1 4.25933 1098.41 3.38477H1063.38Z" fill="#5955B3" fill-opacity="0.03"/>
<path d="M1428.38 168.312C1428.04 169.229 1427.64 170.168 1427.3 171.107C1416.53 201.436 1418.16 235.247 1428.38 268.76V168.312Z" fill="#5955B3" fill-opacity="0.03"/>
<path d="M1428.38 581.094L1424 582.033C1404.06 586.431 1386.11 594.838 1368.88 602.947C1360.33 606.91 1351.79 611.033 1342.9 614.561C1291.97 635.039 1172.87 659.664 1128.29 623.723C1026.46 541.923 1089.75 414.722 1135.96 321.789C1139.29 314.917 1143.53 308.343 1148.01 301.173C1156.84 287.177 1165.95 272.7 1168.34 257.353C1172.67 229.497 1144.39 213.829 1119.44 199.879C1090.58 183.844 1065.66 170.1 1083.6 141.123C1088.36 133.449 1095.88 126.233 1103.17 119.224C1105.45 116.933 1107.73 114.849 1109.89 112.673C1120.55 101.952 1140.2 104.357 1157.52 106.465C1160.54 106.831 1163.44 107.198 1166.24 107.473C1204.15 111.298 1292.97 124.905 1299.06 169.023C1303.56 201.482 1284.59 225.282 1264.54 250.458C1256.34 260.39 1248.79 270.657 1241.92 281.221C1235.54 291.598 1229.3 301.173 1223.29 310.336C1183.21 371.291 1156.75 411.561 1212.64 490.2C1225.94 508.938 1254.57 541.877 1296.75 552.048C1331.51 560.432 1380.3 555.53 1428.41 540.595V533.035C1381.04 548.177 1332.45 553.514 1299.2 545.497C1259.87 536.013 1232.72 504.654 1220.04 486.81C1166.49 411.446 1190.7 374.566 1230.84 313.566C1236.91 304.403 1243.17 294.782 1249.61 284.451C1256.31 274.088 1263.69 264.016 1271.72 254.283C1291.66 229.085 1312.34 203.246 1307.52 168.382C1300.77 119.407 1207.2 104.793 1167.29 100.784C1164.44 100.509 1161.59 100.143 1158.74 99.799C1140.12 97.5083 1116.9 94.6679 1103.14 108.504C1101.03 110.634 1098.81 112.764 1096.56 114.94C1088.59 122.016 1081.66 129.81 1075.91 138.168C1054.63 172.368 1085.08 189.296 1114.51 205.651C1139.69 219.67 1163.5 232.888 1159.8 256.62C1157.61 270.776 1148.83 284.703 1140.31 298.172C1135.96 305.044 1131.46 312.26 1127.95 319.27C1080.87 413.943 1016.38 543.573 1122.26 628.671C1140.6 643.446 1169.6 648.99 1201.5 648.99C1253.4 648.99 1312.96 634.283 1346.77 620.723C1355.83 617.08 1364.69 612.911 1373.24 608.88C1389.99 600.977 1407.42 592.845 1426.31 588.676L1428.44 588.195L1428.38 581.094Z" fill="#5955B3" fill-opacity="0.03"/>
<path d="M1428.38 1073.38C1417.39 1075.33 1406.42 1077.21 1395.63 1079.04C1344.21 1087.81 1295.67 1096.11 1263.17 1109.19C1238.79 1118.97 1216.93 1132.39 1198.77 1148.72H1210.56C1226.86 1135.08 1245.95 1123.79 1266.99 1115.33C1298.52 1102.66 1346.55 1094.46 1397.39 1085.78C1407.62 1084.03 1417.99 1082.25 1428.38 1080.42V1073.38Z" fill="#5955B3" fill-opacity="0.03"/>
<path d="M881.955 1124.21C872.127 1084.72 822.933 1073.38 779.408 1063.4C746.821 1055.88 716.029 1048.8 707.996 1031.19C701.331 1016.64 710.047 995.133 734.658 965.446C745.913 951.493 761.665 940.26 780.234 932.941C804.618 923.137 826.209 908.614 846.206 888.525C852.473 882.248 856.888 874.277 861.16 866.58C871.33 848.255 881.1 830.754 914.684 830.754C919.732 830.777 924.771 831.116 929.753 831.762C955.389 834.923 968.72 844.727 982.877 855.104C1004.38 870.887 1026.63 887.173 1091.32 878.538C1157.29 869.696 1228.05 844.315 1290.72 821.935L1301.77 817.972C1314.94 813.004 1327.75 807.419 1340.11 801.25C1360.59 791.469 1381.78 781.321 1405.62 777.519C1413.29 776.282 1420.95 775.365 1428.41 774.747V767.875C1420.27 768.539 1412.06 769.501 1403.83 770.83C1378.65 774.861 1356.83 785.307 1335.72 795.386C1323.64 801.422 1311.14 806.883 1298.26 811.741L1287.18 815.704C1225.17 837.924 1154.84 863.121 1089.92 871.803C1029.39 879.935 1009.6 865.435 988.66 850.064C974.189 839.459 959.235 828.509 931.091 825.004C878.508 818.476 865.148 842.574 853.384 863.831C849.84 871.079 845.2 877.949 839.569 884.287C820.341 903.575 799.69 917.502 776.446 926.848C756.606 934.73 739.757 946.745 727.651 961.643C701.046 993.713 692.272 1016.62 700.049 1033.57C709.591 1054.44 742.406 1062 777.129 1069.99C820.199 1079.91 864.75 1090.17 873.551 1125.56C875.443 1133.21 876.71 1140.94 877.34 1148.72H885.885C885.245 1140.49 883.931 1132.3 881.955 1124.21Z" fill="#5955B3" fill-opacity="0.03"/>
<path d="M1428.38 1011.72C1419.47 1014.76 1410.67 1017.83 1402.01 1020.88C1346.69 1040.19 1294.45 1058.43 1232.89 1068.34C1199.99 1073.64 1161.68 1078.88 1155.3 1078.38C1133.65 1066.35 1104.02 1024.91 1098.33 1006.34C1086.05 966.867 1133.25 939.15 1171.19 916.884C1177.6 913.105 1183.67 909.554 1189.25 906.049C1210.3 892.901 1232.49 890.656 1255.99 888.274C1270.8 887.161 1285.43 884.858 1299.66 881.402C1317.4 876.22 1334.69 870.1 1351.42 863.076C1372.07 854.876 1393.4 846.4 1414.48 842.162C1419.01 841.246 1423.68 840.559 1428.41 839.986V833.114C1423.03 833.714 1417.68 834.541 1412.4 835.588C1390.44 840.009 1368.68 848.645 1347.63 857.006C1331.25 863.88 1314.32 869.873 1296.95 874.942C1283.25 878.268 1269.16 880.485 1254.91 881.562C1231.3 883.967 1206.91 886.441 1184.01 900.758C1178.54 904.171 1172.62 907.63 1166.15 911.455C1126.27 934.935 1076.37 964.141 1090.04 1008.12C1096.31 1028.33 1126.81 1071.46 1151.11 1084.49C1151.62 1084.77 1152.45 1085.2 1156.29 1085.2C1163.84 1085.2 1183.13 1083.46 1234.57 1075.19C1297.04 1065.14 1349.68 1046.77 1405.48 1027.29L1428.47 1019.32L1428.38 1011.72Z" fill="#5955B3" fill-opacity="0.03"/>
<path d="M1428.38 962.698C1418.04 965.882 1407.82 969.18 1397.68 972.433C1355.32 986.177 1311.48 1000.26 1264.99 1003.66C1233.23 1005.95 1214.12 1002.97 1212.52 995.409C1209.13 979.374 1269.29 943.204 1304.79 936.057C1338.74 929.185 1374.78 921.443 1408.27 910.677C1413.32 909.05 1420.24 907.034 1428.38 904.812V897.643C1417.84 900.46 1409.58 902.842 1405.11 904.286C1372.07 914.914 1336.38 922.611 1302.71 929.483C1269.04 936.355 1199.34 974.037 1204.12 996.646C1206.71 1008.99 1227.62 1011.49 1245.28 1011.49C1253.6 1011.49 1261.18 1010.94 1265.76 1010.6C1313.5 1007.11 1357.91 992.774 1400.87 978.916C1409.95 975.984 1419.13 973.029 1428.38 970.143V962.698Z" fill="#5955B3" fill-opacity="0.03"/>
<path d="M1332.02 1148.72H1331.54C1327.02 1147.86 1322.32 1147.9 1317.83 1148.84L1332.02 1148.72Z" fill="#5955B3" fill-opacity="0.03"/>
<path d="M1428.38 1128.89C1418.98 1133.36 1411.59 1140.13 1407.31 1148.22C1407.23 1148.38 1407.16 1148.55 1407.11 1148.72H1416.39C1419.26 1144.22 1423.36 1140.31 1428.38 1137.27V1128.89Z" fill="#5955B3" fill-opacity="0.03"/>
<path d="M1072.89 1059.09C1050.64 1045.69 1036.86 1032.63 1025.29 1014.01C1015.21 997.79 1009.85 980.495 1004.67 963.774C998.06 942.379 991.195 920.251 974.418 900.001C967.41 891.549 956.415 886.669 941.717 885.478C915.083 883.371 885.544 894.114 880.616 898.077C871.444 905.453 862.898 911.477 855.35 916.792C833.018 932.552 816.895 943.936 807.979 972.616C800.972 995.11 835.097 1011.21 871.216 1028.26C902.151 1042.87 934.14 1058.03 938.754 1076.54C941.289 1086.07 938.441 1107.49 935.592 1132.18C934.937 1137.52 934.254 1143.06 933.598 1148.72H942.144C942.771 1143.29 943.426 1137.98 944.052 1132.85C947.271 1106.53 949.75 1085.73 947.214 1075.19C941.831 1053.59 908.161 1037.72 875.603 1022.32C842.304 1006.63 810.885 991.788 816.325 974.219C824.586 947.624 839.113 937.385 861.047 921.9C868.681 916.517 877.34 910.447 886.684 902.864C889.874 900.299 913.032 892.03 934.766 892.03C936.846 892.03 938.897 892.03 940.919 892.259C952.911 893.221 961.827 897.092 967.353 903.712C983.305 922.954 989.657 943.524 996.408 965.308C1001.71 982.397 1007.15 1000.06 1017.66 1016.96C1029.88 1036.62 1044.41 1050.38 1067.76 1064.47C1092.4 1079.32 1088.04 1117.02 1081.27 1148.61H1089.81C1096.9 1115.6 1100.95 1076.02 1072.89 1059.09Z" fill="#5955B3" fill-opacity="0.03"/>
<path d="M842.19 758.896C805.359 739.15 749.186 765.768 694.865 791.332C664.272 805.786 635.359 819.416 613.739 822.577C556.427 830.961 504.385 828.624 443.94 822.577C431.406 821.317 417.107 816.919 402.01 812.269C375.376 804.068 347.888 795.615 323.704 802.098C296.586 809.36 289.152 852.493 283.198 887.128C280.35 902.888 277.9 917.8 274.112 924.054C272.516 925.52 263.373 929.414 254.571 933.216C212.897 951.061 126.188 988.193 95.7379 1054.14C85.3978 1076.52 76.1687 1104.33 96.7349 1120.85C122.371 1141.46 175.097 1121.3 206.602 1109.28C211.729 1107.31 216.173 1105.61 219.79 1104.38C286.901 1081.24 380.361 1059.07 444.338 1084.79C476.413 1097.69 508.772 1123.14 532.87 1148.77H543.666C518.514 1120.87 483.591 1092.9 448.155 1078.65C426.564 1069.97 401.953 1066.44 376.202 1066.44C322.08 1066.44 263.002 1082 216.429 1098.05C212.669 1099.34 208.169 1101.08 202.927 1103.07C173.445 1114.32 124.109 1133.15 102.774 1115.99C85.6827 1102.25 94.2282 1077.05 103.742 1056.55C133.082 992.957 217.768 956.696 258.587 939.241C274.767 932.369 279.979 930.078 281.689 927.238C286.132 920.068 288.696 905.224 291.658 888.044C297.014 857.006 304.334 814.491 326.41 808.581C347.66 802.877 373.724 810.871 398.933 818.66C414.572 823.47 429.298 828.006 442.857 829.38C504.129 835.519 556.798 837.878 615.278 829.38C638.379 826.013 667.918 812.063 699.195 797.311C748.816 773.877 805.074 747.305 837.433 764.646C864.123 778.962 844.326 809.68 831.223 829.999C829.856 832.106 828.574 834.099 827.434 835.931C810.514 863.145 760.637 912.99 724.005 926.07L718.906 927.879C683.642 940.386 624.649 961.323 618.838 994.08C611.09 1037.6 660.312 1068.64 712.412 1101.42C736.51 1116.56 760.836 1131.93 779.523 1148.77H790.917C771.176 1129.64 744.087 1112.6 717.71 1096.08C667.605 1064.59 620.291 1034.83 627.327 995.156C632.482 966.156 690.962 945.403 722.381 934.27L727.509 932.438C766.391 918.533 817.208 867.863 835.097 839.093L838.828 833.251C852.444 811.994 875.232 776.626 842.19 758.896Z" fill="#5955B3" fill-opacity="0.03"/>
<path d="M652.992 1126.66C641.057 1113.22 630.46 1098.33 620.205 1083.92C613.825 1074.96 607.216 1065.59 600.266 1056.89C588.017 1041.13 582.548 1022.99 577.278 1005.42C571.41 986.04 565.372 965.996 550.218 948.931C529.224 925.268 501.28 914.571 474.276 904.034C457.897 897.688 440.92 891.114 425.253 881.677C420.183 878.607 414.6 872.651 408.704 866.352C393.891 850.5 375.433 830.778 349.483 841.154C336.038 846.56 327.863 853.203 324.502 861.473C318.805 875.217 328.461 890.152 336.864 903.278C343.416 913.471 349.597 923.138 346.15 928.704C340.083 938.462 321.824 943.067 305.702 947.03C298.236 948.713 290.941 950.857 283.882 953.443C269.469 959.239 143.365 1011.37 156.241 1056.02C156.655 1057.97 157.696 1059.79 159.261 1061.32C160.825 1062.84 162.857 1064.01 165.156 1064.7C182.589 1069.88 218.908 1049.65 257.761 1026.65C264.621 1022.34 271.762 1018.33 279.154 1014.63C332.307 993.278 409.9 980.519 454.65 1003.01C538.14 1044.98 557.937 1074.71 587.903 1119.7C593.885 1128.68 600.266 1138.26 607.587 1148.59H617.442C609.125 1137 602.032 1126.37 595.423 1116.52C565.913 1072.19 544.606 1040.17 459.179 997.218C440.351 987.781 417.762 984.139 394.461 984.139C350.11 984.139 303.309 997.31 275.337 1008.53C267.434 1012.37 259.824 1016.59 252.549 1021.16C228.08 1035.66 182.532 1062.62 167.976 1058.29C167.011 1057.98 166.168 1057.46 165.541 1056.8C164.913 1056.13 164.524 1055.34 164.416 1054.51C155.158 1022.44 240.927 978.389 287.557 959.628C294.222 957.228 301.095 955.221 308.123 953.627C325.84 949.16 345.951 944.097 353.699 931.728C359.111 923.046 351.961 911.891 344.384 900.071C336.807 888.251 328.062 874.644 332.563 863.557C335.155 857.143 341.935 851.806 353.215 847.271C371.388 839.94 384.805 852.241 401.81 870.383C408.077 877.095 414.002 883.44 420.041 887.082C436.363 896.932 453.71 903.644 470.488 910.127C497.72 920.664 523.442 930.605 543.182 952.825C557.424 968.86 562.95 987.345 568.818 1006.95C574.259 1025.05 579.899 1043.74 592.888 1060.44C599.639 1069.12 606.191 1078.33 612.514 1087.24C622.883 1101.79 633.593 1116.84 645.785 1130.56C651.761 1136.94 658.341 1142.93 665.468 1148.49L665.639 1148.63H677.546C675.58 1146.96 673.558 1145.31 671.593 1143.68C664.873 1138.39 658.655 1132.7 652.992 1126.66Z" fill="#5955B3" fill-opacity="0.03"/>
<path d="M235.486 1141.35C223.641 1142.41 212.061 1144.9 201.133 1148.72H230.814C232.609 1148.49 234.403 1148.29 236.169 1148.2C252.811 1147.21 269.528 1147.39 286.132 1148.72H336.608C303.596 1141.99 269.466 1139.5 235.486 1141.35Z" fill="#5955B3" fill-opacity="0.03"/>
<path d="M206.061 780.383C197.059 776.489 188.571 772.801 180.994 769.136C165.07 761.146 149.842 752.29 135.418 742.633C100.153 720.069 66.797 698.743 4.12988 702.042V708.914C63.9485 705.661 94.5984 725.292 130.062 748.016C144.795 757.857 160.335 766.886 176.579 775.046C184.355 778.78 192.929 782.49 202.016 786.499C223.266 795.662 245.256 805.237 258.473 815.866C261.008 817.904 260.496 826.174 260.239 830.159C260.239 831.648 260.068 833 260.068 834.076C260.068 862.687 250.64 887.793 204.636 917.411C196.091 922.909 185.694 926.07 174.698 929.391C162.763 933.034 150.401 936.79 140.317 943.869C64.803 996.944 -15.4963 1074.96 22.8161 1148.72H32.1591C-7.57748 1077.94 71.6679 1001.25 146.099 948.977C154.987 942.7 166.039 939.333 177.86 935.76C188.998 932.369 200.648 928.888 210.105 922.703C245.313 900.048 268.756 876.317 268.756 834.008C268.756 833.023 268.756 831.717 268.927 830.434C269.354 823.562 269.867 815.133 264.654 810.941C250.412 799.602 227.88 789.843 206.061 780.383Z" fill="#5955B3" fill-opacity="0.03"/>
<path d="M4.12988 964.163V971.883C6.02958 972.797 7.78875 973.889 9.37115 975.135C11.479 976.853 12.2197 980.725 11.0233 986.016C9.58337 992.098 7.27006 998.024 4.12988 1003.68V1019.46C11.479 1008.44 17.5749 996.439 19.4549 987.116C21.0216 979.35 19.6543 973.692 15.41 970.279C12.1377 967.711 8.31652 965.638 4.12988 964.163Z" fill="#5955B3" fill-opacity="0.03"/>
<path d="M98.4437 809.886C92.7467 802.144 86.8788 794.126 75.3708 788.583C58.5076 780.451 33.4692 775.847 4.1582 775.343V782.215C29.9657 782.719 54.5197 786.498 71.0126 794.447C80.6405 799.028 85.7109 805.9 91.0946 813.368C94.0915 817.681 97.471 821.814 101.207 825.738C122.628 847.27 130.262 864.679 123.995 877.507C111.974 901.559 53.4658 908.614 4.3576 913.86V920.732C56.0009 915.211 118.07 907.881 131.999 880.004C139.747 864.496 131.999 845.323 108.1 821.362C104.544 817.727 101.317 813.893 98.4437 809.886Z" fill="#5955B3" fill-opacity="0.03"/>
<path d="M741.894 332.189C735.969 330.425 730.5 328.432 725.144 326.508C712.212 321.812 699.992 317.345 683.499 316.2C641.199 313.108 589.498 319.567 534.892 326.394C440.094 338.259 342.048 350.491 271.234 317.964C219.449 294.164 194.04 252.382 169.457 211.996C145.53 172.711 122.97 135.602 78.3049 114.024C57.5393 103.991 31.4186 100.28 4.24382 100.876V107.748C27.744 107.267 53.295 110.038 74.0607 119.934C116.617 140.55 138.665 176.697 161.994 215.043C187.146 256.276 213.267 299.089 267.218 323.943C340.653 357.684 444.652 344.559 536.431 333.105C590.552 326.233 641.825 319.934 682.958 322.958C698.026 324.057 709.62 328.249 721.869 332.67C727.309 334.64 732.949 336.679 739.102 338.534C798.18 356.356 831.137 373.513 849.339 395.938C869.507 420.792 873.039 453.824 860.733 503.073C854.296 528.889 841.591 549.253 828.146 570.809C818.926 584.919 810.736 599.451 803.621 614.331C799.197 624.756 795.46 635.36 792.426 646.103C785.647 668.231 778.639 691.092 760.238 707.951C706.601 757.27 626.586 785.353 528.854 789.202C445.62 792.454 352.246 777.405 272.716 747.969C243.405 737.203 215.489 722.658 188.571 708.501C152.252 689.489 114.908 669.835 72.494 658.519C52.5544 653.158 29.4247 651.463 4.12988 653.388V660.26C28.6271 658.335 50.8168 659.916 69.8734 665.024C111.148 676.088 148.15 695.49 183.814 714.251C211.074 728.499 239.132 743.274 269.041 754.361C343.473 781.739 424.248 796.179 506.094 796.738C513.879 796.738 521.581 796.585 529.195 796.28C629.292 792.363 711.5 763.455 766.59 712.693C786.359 694.551 793.622 670.842 800.63 647.936C803.589 637.433 807.241 627.063 811.568 616.874C818.567 602.214 826.622 587.895 835.695 573.993C848.798 552.964 862.385 531.249 869.023 504.516C881.755 453.366 877.824 418.754 856.347 392.273C837.091 368.519 802.909 350.56 741.894 332.189Z" fill="#5955B3" fill-opacity="0.03"/>
<path d="M612.885 379.056C576.053 371.657 539.108 376.353 503.359 380.889C492.678 382.24 481.654 383.637 470.886 384.691C461.857 385.561 452.77 386.478 443.655 387.394C370.306 394.793 294.478 402.444 222.61 389.318C164.729 378.804 95.9657 339.29 81.0395 291.483C77.1086 278.839 77.6213 263.995 78.191 247.961C79.3589 214.241 80.6977 176.01 31.5895 161.189C22.773 158.674 13.4847 157.395 4.12988 157.409V164.281C12.4796 164.271 20.7681 165.426 28.6271 167.694C72.0098 180.797 70.8703 213.348 69.674 247.869C69.1328 263.468 68.5915 279.572 72.8073 293.156C82.1504 323.186 109.183 345.841 130.233 359.585C157.038 377.132 190.052 390.395 220.73 396.007C294.051 409.407 370.647 401.688 444.709 394.22C453.824 393.281 462.911 392.388 471.883 391.517C482.822 390.464 493.931 389.043 504.698 387.669C539.592 383.248 575.683 378.667 610.805 385.722C647.067 393.006 684.496 411.973 710.93 436.46C739.957 463.307 753.145 493.727 747.961 522.246C740.014 567.075 708.566 606.268 654.473 638.704C557.624 696.727 415.198 716.129 324.331 705.317C283.284 700.484 244.971 684.907 207.884 669.972C193.954 664.314 179.399 658.518 165.156 653.273C142.795 645.187 122.856 630.366 101.72 614.744C72.494 592.822 42.1859 570.465 4.12988 566.433V573.443C39.2804 577.658 68.0218 598.961 96.0227 619.577C116.703 634.924 138.124 650.799 161.738 659.343C175.98 664.451 190.223 670.27 204.038 675.905C241.724 691.206 280.663 707.035 323.191 712.097C415.796 723.115 561.099 703.347 659.714 644.202C714.89 611.101 748.36 569.251 756.563 523.185C761.947 492.719 748.018 460.306 717.396 431.925C689.851 406.544 650.741 386.753 612.885 379.056Z" fill="#5955B3" fill-opacity="0.03"/>
<path d="M403.519 457.993C385.431 452.175 366.489 446.54 348.23 441.111C311.769 430.23 273.884 418.983 240.556 405.628C229.96 401.368 216.059 401.803 202.614 402.238C195.022 402.708 187.391 402.593 179.826 401.894C160.228 399.26 136.215 388.54 117.472 379.514C84.4292 363.48 44.3222 325.042 37.201 290.613C35.6343 283.123 34.8082 275.128 33.8967 266.676C31.3046 241.616 28.3422 213.6 4.12988 197.68V207.255C20.6228 221.892 23.0725 244.869 25.4367 267.294C26.3483 275.884 27.2313 283.993 28.8265 291.759C36.3749 328.135 78.4474 368.702 113.142 385.424C132.512 394.77 157.437 405.88 178.487 408.698C186.645 409.481 194.877 409.625 203.07 409.133C215.432 408.743 228.222 408.331 236.853 411.79C270.465 425.305 308.493 436.621 345.267 447.57C363.498 452.999 382.298 458.612 400.357 464.407C435.451 475.7 495.725 515.649 485.813 551.75C478.976 576.536 452.599 593.784 431.691 603.863C406.126 615.871 378.025 623.987 348.799 627.801C272.203 637.284 151.398 585.355 63.2079 547.467C45.1483 539.701 28.1143 532.394 13.6724 526.576C10.4536 525.27 7.26326 524.01 4.12988 522.773V530.447L9.82691 532.738C24.0695 538.51 41.1604 545.818 59.1345 553.537C141.001 588.722 250.583 635.818 329.458 635.818C336.351 635.839 343.236 635.433 350.053 634.604C400.642 628.351 480.714 601.527 494.045 553.239C505.24 512.809 442.06 470.386 403.519 457.993Z" fill="#5955B3" fill-opacity="0.03"/>
<path d="M215.09 438.613L209.393 437.399L191.676 433.597C141.257 422.831 72.2091 408.102 37.8561 384.485C25.2089 375.597 13.0742 360.272 4.12988 344.421V359.791C12.3051 371.68 22.0755 382.469 32.6149 389.57C68.3637 414.195 138.494 429.176 189.71 440.102C195.948 441.431 201.873 442.691 207.371 443.905L213.068 445.119C243.205 451.579 269.24 457.168 262.547 486.764C259.698 498.744 250.668 509.235 236.027 517.115C213.951 529.004 180.282 534.158 154.132 529.645C112.743 522.658 72.494 496.132 33.7258 470.454C23.7561 463.88 13.7863 457.374 4.12988 451.235V459.985C12.1057 465.094 20.167 470.408 28.3137 475.768C67.9364 501.951 108.926 529.026 152.167 536.471C159.453 537.706 166.882 538.313 174.328 538.281C197.773 538.352 220.754 533.026 240.556 522.933C257.163 514 267.588 501.951 270.722 488.092C278.897 452.358 245 445.004 215.09 438.613Z" fill="#5955B3" fill-opacity="0.03"/>
</svg>
