<svg width="62" height="62" viewBox="0 0 62 62" fill="none" xmlns="http://www.w3.org/2000/svg">
<g clip-path="url(#clip0_5274_2449)">
<path d="M47.2917 45.2126C47.4714 45.1924 47.6454 45.137 47.8036 45.0494C47.9619 44.9619 48.1014 44.844 48.214 44.7025C48.3267 44.561 48.4103 44.3987 48.4601 44.2248C48.5099 44.051 48.5249 43.869 48.5043 43.6893L47.689 36.5271L54.1853 28.3663C55.0937 27.2251 55.5117 25.7697 55.3471 24.3203C55.1825 22.8709 54.4489 21.5463 53.3076 20.6378L33.9437 5.22344C32.8025 4.31496 31.3471 3.89705 29.8977 4.06164C28.4484 4.22624 27.1237 4.95985 26.2152 6.1011L5.66272 31.9196C4.75425 33.0608 4.33634 34.5162 4.50093 35.9656C4.66552 37.415 5.39914 38.7396 6.54038 39.6481L25.9042 55.0625C27.0455 55.9709 28.5009 56.3889 29.9503 56.2243C31.3996 56.0597 32.7243 55.3261 33.6327 54.1848L40.1291 46.024L47.2917 45.2126ZM21.1623 47.7728L14.7077 42.6347L38.6857 12.5131L45.1403 17.6512L21.1623 47.7728ZM47.2918 19.3639L51.5949 22.7894C52.1655 23.2436 52.5323 23.9059 52.6146 24.6306C52.6969 25.3553 52.488 26.083 52.0337 26.6536L45.5374 34.8144C45.0833 35.3851 44.8745 36.1128 44.9569 36.8374L45.6152 42.6337L39.8188 43.292C39.0942 43.3742 38.4318 43.7408 37.9775 44.3113L31.4812 52.4721C31.027 53.0427 30.3647 53.4095 29.64 53.4918C28.9153 53.5741 28.1876 53.3652 27.617 52.9109L23.3139 49.4855L47.2918 19.3639ZM36.5341 10.8004L12.5562 40.922L8.25309 37.4965C7.68247 37.0423 7.31566 36.38 7.23337 35.6553C7.15107 34.9306 7.36003 34.2029 7.81427 33.6323L28.3668 7.81381C28.821 7.24318 29.4833 6.87638 30.208 6.79408C30.9327 6.71178 31.6604 6.92074 32.231 7.37498L36.5341 10.8004ZM28.2539 49.903C28.5392 50.1302 28.9031 50.2346 29.2654 50.1935C29.6277 50.1523 29.9589 49.9689 30.186 49.6836L43.8877 32.4713C44.1148 32.186 44.2193 31.8221 44.1782 31.4598C44.137 31.0974 43.9536 30.7663 43.6683 30.5392C43.383 30.3121 43.0191 30.2076 42.6568 30.2487C42.2944 30.2899 41.9633 30.4733 41.7362 30.7586L28.0345 47.9709C27.8074 48.2562 27.7029 48.6201 27.744 48.9824C27.7852 49.3448 27.9686 49.6759 28.2539 49.903ZM19.6477 43.0522C19.933 43.2793 20.2969 43.3838 20.6592 43.3426C21.0216 43.3015 21.3527 43.1181 21.5799 42.8328L40.4197 19.1658C40.6468 18.8805 40.7513 18.5167 40.7101 18.1543C40.669 17.792 40.4856 17.4608 40.2003 17.2337C39.9149 17.0066 39.5511 16.9021 39.1888 16.9433C38.8264 16.9844 38.4953 17.1678 38.2681 17.4531L19.4283 41.1201C19.2012 41.4054 19.0967 41.7692 19.1379 42.1316C19.179 42.4939 19.3624 42.8251 19.6477 43.0522ZM11.0416 36.2014C11.3269 36.4285 11.6907 36.5329 12.0531 36.4918C12.4154 36.4507 12.7466 36.2672 12.9737 35.9819L23.25 23.0727C23.4771 22.7874 23.5816 22.4235 23.5404 22.0612C23.4993 21.6988 23.3159 21.3677 23.0305 21.1406C22.7452 20.9135 22.3814 20.809 22.019 20.8501C21.6567 20.8913 21.3255 21.0747 21.0984 21.36L10.8222 34.2692C10.595 34.5545 10.4906 34.9184 10.5317 35.2807C10.5729 35.6431 10.7563 35.9742 11.0416 36.2014Z" fill="#FF4F00"/>
</g>
<defs>
<clipPath id="clip0_5274_2449">
<rect width="44" height="44" fill="white" transform="translate(0.0859375 34.5098) rotate(-51.4788)"/>
</clipPath>
</defs>
</svg>
