<svg width="371" height="281" viewBox="0 0 371 281" fill="none" xmlns="http://www.w3.org/2000/svg">
<path d="M157.5 186.2L147.5 176.2L116.5 186.1H115.5C115.013 186.127 114.526 186.052 114.07 185.88C113.613 185.708 113.198 185.442 112.85 185.1L105.6 177.95C105.015 177.393 104.64 176.65 104.54 175.848C104.439 175.046 104.62 174.234 105.05 173.55L113.5 159C118.734 150.043 126.036 142.469 134.795 136.91C143.555 131.352 153.517 127.971 163.85 127.05L176.3 125.95M176.3 125.95C183.534 117.35 190.2 109.983 196.3 103.85C207.875 91.5902 221.69 81.6613 237 74.6C252.605 68.7631 269.198 66.0287 285.85 66.55C286.857 66.5639 287.821 66.9567 288.55 67.65C288.897 67.968 289.173 68.3544 289.362 68.7847C289.552 69.215 289.65 69.6799 289.65 70.15C289.988 86.8513 287.014 103.454 280.9 119C274.02 134.355 264.202 148.215 252 159.8C245.85 166 238.45 172.65 229.9 179.8L228.8 192.2C227.903 202.528 224.549 212.492 219.017 221.259C213.485 230.027 205.936 237.344 197 242.6L182.55 251.05C181.979 251.347 181.344 251.501 180.7 251.5C179.744 251.48 178.824 251.127 178.1 250.5L170.85 243.2C170.382 242.752 170.05 242.182 169.89 241.554C169.731 240.926 169.752 240.267 169.95 239.65L179.6 208.3M176.3 125.95L147.75 176.45M179.6 208.3L169.9 198.6M179.6 208.3L230.1 179.8M264.1 112.5C264.114 107.072 261.973 101.86 258.149 98.0073C254.325 94.1548 249.129 91.9765 243.7 91.95C240.92 91.8127 238.14 92.2419 235.531 93.2114C232.921 94.1809 230.535 95.6706 228.519 97.59C226.502 99.5094 224.897 101.819 223.8 104.377C222.703 106.936 222.137 109.691 222.137 112.475C222.137 115.259 222.703 118.014 223.8 120.573C224.897 123.131 226.502 125.441 228.519 127.36C230.535 129.279 232.921 130.769 235.531 131.739C238.14 132.708 240.92 133.137 243.7 133C249.089 133.002 254.262 130.883 258.1 127.1C260.03 125.197 261.552 122.921 262.575 120.411C263.598 117.901 264.1 115.21 264.05 112.5H264.1Z" stroke="white" stroke-opacity="0.5" stroke-width="2" stroke-linecap="round" stroke-linejoin="round"/>
<path d="M142 214C162 210.3 197.5 177 201.65 154.35C178.85 158.7 145.55 194 142 214Z" stroke="white" stroke-opacity="0.5" stroke-width="2" stroke-linecap="round" stroke-linejoin="round"/>
<path d="M143.989 10.266C146.065 10.266 147.747 8.58349 147.747 6.508C147.747 4.43251 146.065 2.75 143.989 2.75C141.914 2.75 140.231 4.43251 140.231 6.508C140.231 8.58349 141.914 10.266 143.989 10.266Z" stroke="white" stroke-opacity="0.44" stroke-width="2" stroke-linecap="round" stroke-linejoin="round"/>
<path d="M154.011 21.2504C156.086 21.2504 157.769 19.5679 157.769 17.4924C157.769 15.4169 156.086 13.7344 154.011 13.7344C151.935 13.7344 150.253 15.4169 150.253 17.4924C150.253 19.5679 151.935 21.2504 154.011 21.2504Z" stroke="white" stroke-opacity="0.44" stroke-width="2" stroke-linecap="round" stroke-linejoin="round"/>
<path d="M142.486 21.25L155.513 2.75" stroke="white" stroke-opacity="0.44" stroke-width="2" stroke-linecap="round" stroke-linejoin="round"/>
<g clip-path="url(#clip0_5308_4718)">
<path d="M348.999 113.76C350.624 112.468 350.894 110.104 349.603 108.48C348.312 106.855 345.948 106.584 344.323 107.876C342.698 109.167 342.428 111.531 343.719 113.156C345.01 114.781 347.374 115.051 348.999 113.76Z" stroke="white" stroke-opacity="0.44" stroke-width="2" stroke-linecap="round" stroke-linejoin="round"/>
<path d="M363.678 116.124C365.303 114.833 365.573 112.469 364.282 110.844C362.99 109.219 360.626 108.949 359.002 110.24C357.377 111.531 357.106 113.895 358.398 115.52C359.689 117.145 362.053 117.415 363.678 116.124Z" stroke="white" stroke-opacity="0.44" stroke-width="2" stroke-linecap="round" stroke-linejoin="round"/>
<path d="M354.656 123.294L353.344 100.705" stroke="white" stroke-opacity="0.44" stroke-width="2" stroke-linecap="round" stroke-linejoin="round"/>
</g>
<g clip-path="url(#clip1_5308_4718)">
<path d="M14.6927 209.226C16.1572 210.697 18.5366 210.702 20.0073 209.237C21.4781 207.773 21.4832 205.394 20.0188 203.923C18.5543 202.452 16.1749 202.447 14.7042 203.911C13.2334 205.376 13.2283 207.755 14.6927 209.226Z" stroke="white" stroke-opacity="0.44" stroke-width="2" stroke-linecap="round" stroke-linejoin="round"/>
<path d="M13.9798 224.078C15.4443 225.548 17.8237 225.553 19.2944 224.089C20.7652 222.625 20.7703 220.245 19.3059 218.774C17.8415 217.304 15.462 217.298 13.9913 218.763C12.5205 220.227 12.5154 222.607 13.9798 224.078Z" stroke="white" stroke-opacity="0.44" stroke-width="2" stroke-linecap="round" stroke-linejoin="round"/>
<path d="M5.84938 215.911L28.1506 212.089" stroke="white" stroke-opacity="0.44" stroke-width="2" stroke-linecap="round" stroke-linejoin="round"/>
</g>
<g clip-path="url(#clip2_5308_4718)">
<path d="M305.161 258.765C306.141 260.594 308.419 261.282 310.248 260.301C312.078 259.32 312.765 257.042 311.785 255.213C310.804 253.384 308.526 252.696 306.697 253.677C304.868 254.658 304.18 256.936 305.161 258.765Z" stroke="white" stroke-opacity="0.44" stroke-width="2" stroke-linecap="round" stroke-linejoin="round"/>
<path d="M300.215 272.786C301.196 274.616 303.474 275.303 305.303 274.323C307.132 273.342 307.82 271.064 306.839 269.235C305.859 267.406 303.581 266.718 301.752 267.699C299.922 268.679 299.235 270.957 300.215 272.786Z" stroke="white" stroke-opacity="0.44" stroke-width="2" stroke-linecap="round" stroke-linejoin="round"/>
<path d="M294.77 262.631L317.23 265.369" stroke="white" stroke-opacity="0.44" stroke-width="2" stroke-linecap="round" stroke-linejoin="round"/>
</g>
<defs>
<clipPath id="clip0_5308_4718">
<rect width="24" height="24" fill="white" transform="translate(337.14 110.071) rotate(-38.4754)"/>
</clipPath>
<clipPath id="clip1_5308_4718">
<rect width="24" height="24" fill="white" transform="translate(17.0361 197.029) rotate(45.1233)"/>
</clipPath>
<clipPath id="clip2_5308_4718">
<rect width="24" height="24" fill="white" transform="translate(310.905 247.754) rotate(61.8006)"/>
</clipPath>
</defs>
</svg>
