<svg width="200" height="200" viewBox="0 0 200 200" fill="none" xmlns="http://www.w3.org/2000/svg">
<path d="M4.874 79.5966C-2.016 91.5286 2.128 106.997 14.062 113.885C20.792 117.773 28.644 118.145 35.45 115.589L61.57 154.057C60.7454 155.055 60.003 156.118 59.35 157.237C52.462 169.171 56.606 184.637 68.54 191.527C80.474 198.417 95.936 194.271 102.826 182.337C109.476 170.817 105.772 156.083 94.776 148.873C94.4257 148.562 94.0451 148.287 93.64 148.053C93.2337 147.818 92.8049 147.625 92.36 147.477C86.206 144.377 79.27 144.067 73.096 146.111L46.672 107.201C47.272 106.405 47.838 105.581 48.348 104.699C52.96 96.7066 52.586 87.1746 48.256 79.6746L74.216 53.5406C85.276 57.7666 98.152 53.6186 104.524 43.3206L148.518 52.5406C149.36 60.2466 153.69 67.4846 160.86 71.6246C172.794 78.5146 188.256 74.3686 195.146 62.4346C201.798 50.9146 198.092 36.1806 187.098 28.9706C186.746 28.6598 186.365 28.3851 185.958 28.1506C185.553 27.9165 185.126 27.7235 184.682 27.5746C172.94 21.6586 158.322 25.8146 151.672 37.3346C151.406 37.7986 151.182 38.2726 150.948 38.7446L108.22 29.7866C108.05 21.7186 104.012 13.8866 96.888 9.21664C96.5377 8.906 96.1571 8.63129 95.752 8.39664C95.3456 8.16293 94.9168 7.97063 94.472 7.82264C82.732 1.90464 68.116 6.06264 61.464 17.5826C56.364 26.4146 57.324 37.1746 63 44.9686L38.186 69.9486L37.886 69.8366C26.142 63.9186 11.524 68.0766 4.874 79.5966ZM17 86.5966C20.106 81.2166 26.782 79.4286 32.162 82.5366C37.542 85.6426 39.332 92.3166 36.224 97.6966C33.116 103.077 26.444 104.869 21.064 101.761C15.684 98.6526 13.894 91.9766 17 86.5966ZM73.586 24.5806C76.692 19.2006 83.368 17.4126 88.75 20.5206C94.13 23.6266 95.918 30.3006 92.81 35.6806C89.704 41.0606 83.03 42.8526 77.65 39.7446C72.27 36.6366 70.48 29.9606 73.586 24.5806ZM71.476 164.235C74.582 158.855 81.258 157.069 86.64 160.175C92.022 163.281 93.808 169.955 90.7 175.335C87.594 180.715 80.92 182.507 75.54 179.401C70.16 176.295 68.37 169.617 71.476 164.235ZM163.796 44.3306C166.904 38.9506 173.578 37.1646 178.96 40.2706C184.342 43.3766 186.128 50.0506 183.02 55.4306C179.916 60.8106 173.24 62.6026 167.86 59.4966C162.48 56.3906 160.69 49.7126 163.796 44.3306Z" fill="black"/>
<path d="M39.5421 41.4923C37.5481 42.0523 37.3741 42.6643 36.7581 44.5003L33.3741 54.5663L42.8541 57.7503L45.5241 49.8163L52.0901 47.0243L48.1761 37.8203L39.5421 41.4923ZM100.344 58.1083L114.204 72.5263L121.41 65.5963L107.55 51.1783L100.344 58.1083ZM126.086 67.9423L130.648 76.8423L148.446 67.7203L143.884 58.8203L126.086 67.9423ZM15.9541 144.576L25.9061 145.536L27.8321 125.628L17.8761 124.668L15.9541 144.576ZM30.5881 156.376L48.8261 164.578L52.9321 155.462L34.6921 147.254L30.5881 156.376Z" fill="black"/>
</svg>
