<svg width="213" height="67" viewBox="0 0 213 67" fill="none" xmlns="http://www.w3.org/2000/svg">
<path fill-rule="evenodd" clip-rule="evenodd" d="M118.345 24.6035V28.2746C118.345 41.3684 109.227 49.3225 97.234 49.3225C83.772 49.3225 74.1039 39.4104 74.1039 27.1121C74.1039 14.6914 83.9556 4.7793 96.5609 4.7793C104.761 4.7793 111.675 8.81756 115.285 14.569L106.963 19.3415C105.189 16.527 101.334 14.3243 96.4997 14.3243C89.2792 14.3243 83.8944 19.6474 83.8944 27.1733C83.8944 34.4544 89.0345 39.7775 97.3564 39.7775C103.047 39.7775 106.78 37.2689 108.31 33.1695H96.8669V24.6035H118.345ZM28.7681 17.873H37.702V46.9363C37.702 57.2155 29.686 61.5596 21.5476 61.5596C15.1837 61.5596 9.8601 59.1734 7.04531 54.1562L14.8778 49.6284C16.0404 51.7699 17.8149 53.4831 21.8535 53.4831C26.1369 53.4831 28.7681 51.2804 28.7681 46.9363V44.1217C26.7488 46.6303 23.8116 48.0988 19.8342 48.0988C11.1451 48.0988 4.78125 41.0012 4.78125 32.5576C4.78125 24.114 11.1451 17.0164 19.8342 17.0164C23.8116 17.0164 26.7488 18.4849 28.7681 20.9935V17.873ZM21.364 39.6552C25.7085 39.6552 28.7681 36.7794 28.7681 32.5576C28.7681 28.3358 25.7085 25.4601 21.364 25.4601C17.0194 25.4601 13.9599 28.3358 13.9599 32.5576C13.9599 36.7794 17.0194 39.6552 21.364 39.6552ZM139.468 17.2612C135.613 17.2612 131.513 19.2191 130.29 23.3186V17.873H121.111V48.4659H130.29V34.6379C130.29 28.5805 135.674 27.0509 139.468 27.6628V17.2612ZM161.076 17.873H170.254V48.4659H161.076V45.5902C159.424 47.854 156.364 49.3225 152.325 49.3225C146.145 49.3225 140.883 44.9171 140.883 36.6571V17.873H150.061V35.311C150.061 39.1045 152.448 40.8789 155.385 40.8789C158.751 40.8789 161.076 38.9209 161.076 34.5767V17.873ZM207.459 33.1695C207.459 24.0528 200.85 17.0164 192.834 17.0164C188.735 17.0164 185.736 18.4237 183.717 20.7488V5.6359H174.538V48.4659H183.717V45.5902C185.736 47.9152 188.735 49.3225 192.834 49.3225C200.85 49.3225 207.459 42.2861 207.459 33.1695ZM198.28 33.1695C198.28 37.7584 195.221 40.6341 190.999 40.6341C186.776 40.6341 183.717 37.7584 183.717 33.1695C183.717 28.5805 186.776 25.7048 190.999 25.7048C195.221 25.7048 198.28 28.5805 198.28 33.1695ZM47.7365 13.3663C47.5107 13.1625 47.3349 12.9242 47.2092 12.6515C47.0835 12.3787 47.0135 12.103 46.9992 11.8245C46.9849 11.546 47.0244 11.2688 47.1178 10.9927C47.2112 10.7167 47.3639 10.4655 47.5759 10.2392L48.425 9.29806C48.5383 9.17258 48.6207 9.03271 48.6725 8.87847C48.7242 8.72423 48.7462 8.56753 48.7383 8.40837C48.7305 8.24922 48.6926 8.09559 48.6247 7.94749C48.5568 7.7994 48.4604 7.66872 48.3355 7.55546L47.7458 7.0233C47.6454 6.93271 47.5939 6.82367 47.5912 6.69616C47.5884 6.56865 47.6325 6.45469 47.7234 6.35429C47.8143 6.25388 47.9252 6.20032 48.056 6.1936C48.1868 6.18689 48.3027 6.2288 48.4037 6.31935L48.9809 6.84019C49.2067 7.044 49.3802 7.27842 49.5014 7.54346C49.6225 7.80849 49.6904 8.08024 49.705 8.35873C49.7197 8.63721 49.68 8.91257 49.5862 9.18482C49.4923 9.45706 49.3435 9.70596 49.1396 9.93152L48.2905 10.8727C48.1698 11.0065 48.0833 11.1506 48.0313 11.3048C47.9792 11.4591 47.9574 11.6158 47.9659 11.7749C47.9744 11.934 48.0122 12.0897 48.0794 12.242C48.1466 12.3943 48.2474 12.5306 48.3819 12.6511L48.9716 13.1832C49.072 13.2738 49.1255 13.3848 49.1323 13.5163C49.139 13.6477 49.0971 13.7635 49.0065 13.8636C48.9159 13.9636 48.8049 14.0172 48.6735 14.0243C48.5421 14.0313 48.4263 13.9894 48.3263 13.8985L47.7365 13.3663ZM45.3496 13.4889C45.1237 13.2851 44.95 13.0488 44.8283 12.78C44.7067 12.5111 44.6388 12.2371 44.6248 11.958C44.6108 11.6788 44.6502 11.3996 44.7431 11.1204C44.836 10.8412 44.9846 10.5883 45.189 10.3618L46.0381 9.42065C46.1513 9.29516 46.2338 9.1553 46.2856 9.00106C46.3373 8.84682 46.3593 8.69012 46.3514 8.53096C46.3436 8.3718 46.3057 8.21818 46.2378 8.07008C46.1698 7.92199 46.0735 7.79131 45.9486 7.67805L45.3589 7.14588C45.2669 7.06285 45.2154 6.95587 45.2046 6.82495C45.1937 6.69403 45.2337 6.57821 45.3246 6.47749C45.4072 6.37751 45.516 6.32214 45.6511 6.31137C45.7861 6.3006 45.9039 6.34035 46.0042 6.43061L46.594 6.96278C46.8198 7.16659 46.9933 7.40101 47.1145 7.66604C47.2356 7.93107 47.3035 8.20283 47.3181 8.48131C47.3327 8.75979 47.293 9.03517 47.1988 9.30743C47.1046 9.57969 46.9559 9.82858 46.7527 10.0541L45.9036 10.9952C45.7828 11.1291 45.6964 11.2732 45.6444 11.4274C45.5923 11.5817 45.5705 11.7384 45.579 11.8975C45.5875 12.0566 45.6253 12.2123 45.6925 12.3646C45.7597 12.5169 45.8605 12.6532 45.9949 12.7737L46.5847 13.3058C46.6851 13.3964 46.7386 13.5074 46.7454 13.6389C46.7521 13.7703 46.7102 13.8861 46.6196 13.9862C46.529 14.0862 46.418 14.1398 46.2866 14.1469C46.1552 14.1539 46.0394 14.112 45.9393 14.0211L45.3496 13.4889ZM42.9621 13.5996C42.7362 13.3958 42.5626 13.1614 42.4411 12.8963C42.3196 12.6313 42.2519 12.3596 42.2379 12.081C42.2239 11.8025 42.2634 11.5233 42.3562 11.2435C42.449 10.9636 42.5977 10.7106 42.8021 10.4844L43.6506 9.5313C43.7638 9.40582 43.8463 9.26595 43.898 9.11171C43.9498 8.95747 43.9717 8.80077 43.9639 8.64161C43.956 8.48246 43.9181 8.32883 43.8502 8.18073C43.7823 8.03264 43.6859 7.90196 43.5611 7.7887L42.9714 7.25653C42.8793 7.1735 42.8279 7.06652 42.817 6.9356C42.8062 6.80468 42.8462 6.68886 42.937 6.58814C43.0201 6.49612 43.1292 6.44663 43.2645 6.43969C43.3997 6.43274 43.5134 6.47078 43.6054 6.55381L44.207 7.08537C44.4329 7.28918 44.6064 7.5236 44.7275 7.78863C44.8487 8.05366 44.9166 8.32542 44.9312 8.6039C44.9458 8.88238 44.906 9.15775 44.8118 9.43002C44.7177 9.70228 44.569 9.95117 44.3658 10.1767L43.5167 11.1178C43.3959 11.2517 43.3096 11.3978 43.2578 11.5562C43.2059 11.7146 43.1842 11.8732 43.1927 12.032C43.2012 12.1908 43.2389 12.3445 43.3059 12.4929C43.3728 12.6414 43.4736 12.7758 43.608 12.8962L44.1978 13.4284C44.2981 13.519 44.3497 13.628 44.3524 13.7555C44.3551 13.8831 44.311 13.997 44.2201 14.0974C44.1292 14.1898 44.0201 14.2414 43.893 14.2521C43.7659 14.2628 43.6522 14.2226 43.5518 14.1317L42.9621 13.5996ZM49.6986 17.4919C48.7802 17.9225 47.9088 18.4365 47.0939 19.0241C47.153 19.0747 47.2096 19.1295 47.2634 19.1885L57.3427 30.2309C57.6137 29.6556 57.7755 29.0288 57.8129 28.382C57.8879 27.0861 57.4579 25.8121 56.6139 24.8269L49.6986 17.4919ZM44.2939 21.5872C43.6352 22.3485 43.0461 23.1717 42.5363 24.0468L49.2023 31.5905C50.1066 32.5207 51.3363 33.065 52.6339 33.1084C53.2814 33.13 53.9204 33.0261 54.518 32.8086L44.439 21.7665C44.3865 21.709 44.3381 21.649 44.2939 21.5872ZM40.8981 27.968C40.5325 29.3217 40.3375 30.7455 40.3375 32.2148C40.3375 41.1908 47.6146 48.4673 56.5914 48.4673C60.1175 48.4673 63.3814 47.3446 66.045 45.4371L57.2103 35.7582C55.7928 36.5732 54.1653 36.9858 52.5061 36.9303C50.1993 36.8532 48.014 35.8773 46.4168 34.2111C46.3989 34.1924 46.3815 34.1734 46.3644 34.1541L40.8981 27.968ZM68.8721 42.862C71.3472 40.01 72.8452 36.2874 72.8452 32.2148C72.8452 23.2389 65.5681 15.9624 56.5914 15.9624C55.6208 15.9624 54.67 16.0475 53.7462 16.2106L59.4251 22.2341C59.4428 22.2529 59.4602 22.272 59.4771 22.2915C60.9911 24.0337 61.764 26.2987 61.6306 28.6029C61.5347 30.2601 60.9756 31.8432 60.0349 33.1803L68.8721 42.862Z" fill="white"/>
</svg>
