<svg width="140" height="44" viewBox="0 0 140 44" fill="none" xmlns="http://www.w3.org/2000/svg">
<path fill-rule="evenodd" clip-rule="evenodd" d="M78.3176 16.5731V18.9868C78.3176 27.5958 72.323 32.8255 64.4375 32.8255C55.5865 32.8255 49.2298 26.3084 49.2298 18.2225C49.2298 10.0561 55.7072 3.53906 63.995 3.53906C69.3861 3.53906 73.9323 6.19415 76.306 9.97564L70.8344 13.1135C69.6677 11.2629 67.1331 9.81472 63.9547 9.81472C59.2074 9.81472 55.6669 13.3146 55.6669 18.2627C55.6669 23.0499 59.0464 26.5498 64.518 26.5498C68.2596 26.5498 70.7137 24.9004 71.7195 22.2051H64.1961V16.5731H78.3176ZM19.4223 12.148H25.2962V31.2566C25.2962 38.015 20.0258 40.8712 14.6749 40.8712C10.4908 40.8712 6.99062 39.3023 5.13995 36.0035L10.2896 33.0266C11.0541 34.4346 12.2208 35.561 14.8761 35.561C17.6923 35.561 19.4223 34.1128 19.4223 31.2566V29.406C18.0947 31.0554 16.1635 32.0209 13.5484 32.0209C7.8355 32.0209 3.65137 27.3544 3.65137 21.8028C3.65137 16.2513 7.8355 11.5848 13.5484 11.5848C16.1635 11.5848 18.0947 12.5503 19.4223 14.1996V12.148ZM14.5542 26.4694C17.4107 26.4694 19.4223 24.5786 19.4223 21.8028C19.4223 19.0271 17.4107 17.1363 14.5542 17.1363C11.6978 17.1363 9.68617 19.0271 9.68617 21.8028C9.68617 24.5786 11.6978 26.4694 14.5542 26.4694ZM92.2058 11.7457C89.6712 11.7457 86.9756 13.033 86.171 15.7283V12.148H80.1362V32.2623H86.171V23.1706C86.171 19.188 89.7114 18.1823 92.2058 18.5846V11.7457ZM106.412 12.148H112.447V32.2623H106.412V30.3715C105.326 31.86 103.315 32.8255 100.659 32.8255C96.5958 32.8255 93.1358 29.929 93.1358 24.4981V12.148H99.1706V23.6131C99.1706 26.1073 100.74 27.2739 102.671 27.2739C104.884 27.2739 106.412 25.9866 106.412 23.1304V12.148ZM136.909 22.2051C136.909 16.2111 132.564 11.5848 127.293 11.5848C124.598 11.5848 122.626 12.51 121.299 14.0387V4.10226H115.264V32.2623H121.299V30.3715C122.626 31.9002 124.598 32.8255 127.293 32.8255C132.564 32.8255 136.909 28.1992 136.909 22.2051ZM130.874 22.2051C130.874 25.2223 128.862 27.113 126.086 27.113C123.31 27.113 121.299 25.2223 121.299 22.2051C121.299 19.188 123.31 17.2972 126.086 17.2972C128.862 17.2972 130.874 19.188 130.874 22.2051ZM31.9031 9.17889C31.7539 9.04562 31.6376 8.88951 31.5541 8.71057C31.4706 8.53163 31.4236 8.35063 31.4133 8.16757C31.403 7.98451 31.4281 7.80208 31.4886 7.62029C31.5491 7.43849 31.6487 7.27286 31.7874 7.12339L32.3427 6.50189C32.4167 6.41902 32.4705 6.3268 32.504 6.22522C32.5375 6.12364 32.5515 6.02055 32.5458 5.91593C32.5401 5.81131 32.5147 5.71043 32.4696 5.61328C32.4245 5.51613 32.3607 5.43052 32.2782 5.35646L31.8888 5.00847C31.8225 4.94923 31.7883 4.8777 31.7861 4.79388C31.7839 4.71005 31.8125 4.63499 31.8719 4.56868C31.9313 4.50238 32.0041 4.4668 32.09 4.46197C32.176 4.45713 32.2524 4.48432 32.3191 4.54352L32.7002 4.88411C32.8494 5.01738 32.9642 5.17095 33.0447 5.34482C33.1252 5.51868 33.1707 5.69713 33.1812 5.88018C33.1917 6.06323 33.1666 6.2444 33.1057 6.4237C33.0449 6.603 32.9478 6.76712 32.8145 6.91607L32.2593 7.53758C32.1803 7.62597 32.124 7.72096 32.0902 7.82255C32.0565 7.92414 32.0427 8.02723 32.0488 8.13182C32.0549 8.23641 32.0802 8.33866 32.1249 8.43857C32.1695 8.53848 32.2363 8.6278 32.3251 8.70654L32.7145 9.05453C32.7808 9.11377 32.8164 9.18659 32.8212 9.27299C32.8261 9.35939 32.7989 9.43564 32.7397 9.50172C32.6804 9.56781 32.6076 9.60339 32.5212 9.60846C32.4348 9.61352 32.3586 9.58633 32.2925 9.52688L31.9031 9.17889ZM30.3341 9.26716C30.185 9.13389 30.07 8.97907 29.9891 8.80271C29.9083 8.62634 29.8628 8.44642 29.8527 8.26293C29.8426 8.07944 29.8676 7.89576 29.9277 7.71188C29.9879 7.52801 30.0848 7.36127 30.2185 7.21166L30.7737 6.59016C30.8478 6.50729 30.9015 6.41507 30.9351 6.31349C30.9686 6.21191 30.9825 6.10882 30.9768 6.0042C30.9712 5.89958 30.9458 5.7987 30.9006 5.70155C30.8555 5.6044 30.7917 5.51879 30.7093 5.44473L30.3198 5.09674C30.2591 5.04244 30.2249 4.97227 30.2173 4.88623C30.2098 4.80019 30.2357 4.72391 30.2951 4.65739C30.3491 4.59139 30.4205 4.55464 30.5093 4.54712C30.598 4.53961 30.6756 4.56537 30.7418 4.62439L31.1313 4.97238C31.2804 5.10565 31.3953 5.25922 31.4758 5.43309C31.5563 5.60695 31.6018 5.7854 31.6123 5.96845C31.6228 6.1515 31.5975 6.33268 31.5365 6.51199C31.4754 6.69129 31.3784 6.85541 31.2456 7.00434L30.6903 7.62585C30.6114 7.71424 30.555 7.80923 30.5213 7.91082C30.4875 8.01241 30.4737 8.1155 30.4798 8.22009C30.4859 8.32468 30.5113 8.42693 30.5559 8.52684C30.6006 8.62674 30.6673 8.71607 30.7561 8.79481L31.1456 9.1428C31.2118 9.20204 31.2474 9.27486 31.2523 9.36126C31.2571 9.44766 31.23 9.52391 31.1707 9.58999C31.1115 9.65608 31.0387 9.69166 30.9523 9.69672C30.8659 9.70179 30.7897 9.6746 30.7236 9.61515L30.3341 9.26716ZM28.7647 9.34758C28.6156 9.21431 28.5006 9.06075 28.4199 8.8869C28.3392 8.71305 28.2938 8.53458 28.2837 8.35151C28.2736 8.16844 28.2987 7.98476 28.3588 7.80046C28.419 7.61617 28.5159 7.44933 28.6495 7.29993L29.2043 6.67058C29.2784 6.58771 29.3322 6.49549 29.3657 6.39391C29.3992 6.29234 29.4131 6.18924 29.4075 6.08463C29.4018 5.98001 29.3764 5.87912 29.3313 5.78197C29.2861 5.68482 29.2223 5.59921 29.1399 5.52515L28.7504 5.17716C28.6897 5.12286 28.6555 5.05269 28.6479 4.96665C28.6404 4.88061 28.6663 4.80433 28.7257 4.73782C28.78 4.67705 28.8516 4.64416 28.9405 4.63916C29.0294 4.63416 29.1043 4.65881 29.165 4.7131L29.5623 5.06065C29.7115 5.19392 29.8263 5.34749 29.9068 5.52136C29.9873 5.69522 30.0328 5.87367 30.0433 6.05672C30.0538 6.23977 30.0286 6.42095 29.9675 6.60026C29.9065 6.77956 29.8095 6.94368 29.6766 7.09261L29.1214 7.71412C29.0424 7.80251 28.9862 7.89886 28.9526 8.00317C28.919 8.10747 28.9052 8.21182 28.9113 8.31621C28.9174 8.42059 28.9427 8.52148 28.9872 8.61888C29.0317 8.71627 29.0984 8.80434 29.1872 8.88308L29.5766 9.23107C29.6429 9.29031 29.6771 9.36184 29.6793 9.44566C29.6815 9.52949 29.6529 9.60455 29.5935 9.67086C29.534 9.73192 29.4624 9.76617 29.3789 9.77359C29.2954 9.78102 29.2205 9.75502 29.1542 9.69557L28.7647 9.34758ZM33.257 11.8609C32.6451 12.142 32.0642 12.4792 31.5211 12.8659C31.5761 12.9088 31.6283 12.9568 31.677 13.0099L38.3316 20.2766C38.5119 19.897 38.6195 19.4831 38.6442 19.0563C38.6936 18.2056 38.4105 17.3684 37.8535 16.7204L33.257 11.8609ZM29.6831 14.5251C29.2428 15.0261 28.8486 15.5686 28.5072 16.146L32.956 21.1641C33.553 21.7762 34.3657 22.1351 35.224 22.1637C35.6521 22.178 36.0744 22.1095 36.4692 21.9664L29.8225 14.7083C29.7696 14.6505 29.7232 14.5892 29.6831 14.5251ZM27.4163 18.7062C27.1623 19.6194 27.0265 20.5819 27.0265 21.5762C27.0265 27.4777 31.8111 32.2619 37.7131 32.2619C40.0699 32.2619 42.2486 31.499 44.0155 30.2067L38.2436 23.9039C37.3082 24.4412 36.2341 24.713 35.1395 24.6765C33.6202 24.6259 32.1801 23.9853 31.1271 22.8903C31.1153 22.878 31.1038 22.8656 31.0925 22.8529L27.4163 18.7062ZM45.8576 28.4948C47.4431 26.6306 48.3997 24.2151 48.3997 21.5762C48.3997 15.6746 43.6152 10.8904 37.7131 10.8904C37.1087 10.8904 36.5161 10.9406 35.9391 11.037L39.6993 15.0124C39.711 15.0247 39.7224 15.0373 39.7336 15.0501C40.732 16.1953 41.2424 17.685 41.1543 19.2013C41.0911 20.2911 40.7224 21.3316 40.1026 22.2105L45.8576 28.4948Z" fill="#FF4F00"/>
</svg>
