<svg width="849" height="268" viewBox="0 0 849 268" fill="none" xmlns="http://www.w3.org/2000/svg">
<path fill-rule="evenodd" clip-rule="evenodd" d="M473.376 98.4168V113.101C473.376 165.476 436.906 197.293 388.932 197.293C335.084 197.293 296.412 157.645 296.412 108.451C296.412 58.7685 335.819 19.1201 386.24 19.1201C419.038 19.1201 446.696 35.2732 461.138 58.279L427.85 77.3689C420.752 66.1107 405.331 57.3 385.995 57.3C357.113 57.3 335.574 78.5926 335.574 108.696C335.574 137.82 356.134 159.113 389.422 159.113C412.185 159.113 427.115 149.079 433.234 132.681H387.464V98.4168H473.376ZM115.068 71.4951H150.804V187.748C150.804 228.865 118.74 246.241 86.1863 246.241C60.7309 246.241 39.4365 236.697 28.1774 216.628L59.5071 198.517C64.1576 207.083 71.2558 213.935 87.4102 213.935C104.544 213.935 115.068 205.125 115.068 187.748V176.49C106.991 186.524 95.2426 192.398 79.333 192.398C44.5765 192.398 19.1211 164.008 19.1211 130.233C19.1211 96.4589 44.5765 68.0687 79.333 68.0687C95.2426 68.0687 106.991 73.9425 115.068 83.977V71.4951ZM85.4521 158.624C102.83 158.624 115.068 147.121 115.068 130.233C115.068 113.346 102.83 101.843 85.4521 101.843C68.0738 101.843 55.8356 113.346 55.8356 130.233C55.8356 147.121 68.0738 158.624 85.4521 158.624ZM557.869 69.0477C542.449 69.0477 526.05 76.8794 521.154 93.2772V71.4951H484.44V193.867H521.154V138.555C521.154 114.325 542.694 108.207 557.869 110.654V69.0477ZM644.299 71.4951H681.014V193.867H644.299V182.364C637.691 191.419 625.452 197.293 609.298 197.293C584.577 197.293 563.527 179.671 563.527 146.631V71.4951H600.242V141.247C600.242 156.421 609.787 163.518 621.536 163.518C634.998 163.518 644.299 155.687 644.299 138.31V71.4951ZM829.832 132.681C829.832 96.2141 803.398 68.0687 771.333 68.0687C754.934 68.0687 742.941 73.6978 734.864 82.998V22.5465H698.149V193.867H734.864V182.364C742.941 191.664 754.934 197.293 771.333 197.293C803.398 197.293 829.832 169.147 829.832 132.681ZM793.117 132.681C793.117 151.037 780.879 162.539 763.99 162.539C747.102 162.539 734.864 151.037 734.864 132.681C734.864 114.325 747.102 102.822 763.99 102.822C780.879 102.822 793.117 114.325 793.117 132.681ZM190.937 53.463C190.033 52.6478 189.33 51.6946 188.827 50.6035C188.325 49.5124 188.045 48.4099 187.987 47.2959C187.93 46.1819 188.088 45.0728 188.462 43.9686C188.835 42.8644 189.446 41.8597 190.294 40.9545L193.691 37.1899C194.144 36.688 194.474 36.1285 194.681 35.5116C194.888 34.8946 194.975 34.2678 194.944 33.6312C194.912 32.9946 194.761 32.38 194.489 31.7877C194.218 31.1953 193.832 30.6726 193.333 30.2195L190.974 28.0909C190.572 27.7285 190.366 27.2924 190.355 26.7823C190.344 26.2723 190.521 25.8165 190.884 25.4148C191.248 25.0132 191.691 24.799 192.214 24.7721C192.738 24.7452 193.201 24.9129 193.605 25.2751L195.914 27.3585C196.818 28.1737 197.512 29.1114 197.996 30.1715C198.481 31.2316 198.752 32.3187 198.811 33.4326C198.869 34.5465 198.711 35.648 198.335 36.737C197.96 37.8259 197.364 38.8215 196.549 39.7238L193.153 43.4883C192.67 44.0237 192.324 44.6 192.116 45.217C191.907 45.834 191.82 46.4608 191.854 47.0973C191.888 47.7338 192.04 48.3566 192.308 48.9657C192.577 49.5749 192.98 50.1203 193.518 50.602L195.877 52.7306C196.278 53.093 196.493 53.537 196.52 54.0628C196.547 54.5886 196.379 55.0517 196.017 55.452C195.654 55.8522 195.21 56.0665 194.685 56.0948C194.159 56.1231 193.696 55.9554 193.296 55.5917L190.937 53.463ZM181.389 53.9534C180.486 53.1382 179.791 52.1929 179.304 51.1175C178.817 50.0422 178.546 48.9462 178.49 47.8296C178.434 46.713 178.591 45.5963 178.963 44.4794C179.334 43.3625 179.929 42.351 180.747 41.4449L184.143 37.6803C184.596 37.1783 184.926 36.6189 185.133 36.0019C185.34 35.385 185.428 34.7582 185.396 34.1215C185.365 33.4849 185.213 32.8704 184.942 32.278C184.67 31.6856 184.284 31.1629 183.785 30.7099L181.426 28.5812C181.058 28.2491 180.852 27.8212 180.809 27.2975C180.765 26.7738 180.925 26.3105 181.289 25.9076C181.619 25.5077 182.055 25.2862 182.595 25.2432C183.135 25.2001 183.606 25.3591 184.007 25.7201L186.366 27.8488C187.27 28.664 187.964 29.6017 188.448 30.6619C188.933 31.722 189.205 32.809 189.263 33.9229C189.322 35.0369 189.162 36.1384 188.786 37.2274C188.409 38.3165 187.814 39.312 187.001 40.2141L183.605 43.9787C183.122 44.5141 182.776 45.0903 182.568 45.7073C182.36 46.3244 182.273 46.9511 182.307 47.5876C182.34 48.2241 182.492 48.8469 182.761 49.4561C183.029 50.0652 183.432 50.6106 183.97 51.0923L186.329 53.221C186.731 53.5833 186.945 54.0274 186.972 54.5532C186.999 55.079 186.831 55.542 186.469 55.9423C186.107 56.3426 185.663 56.5569 185.137 56.5851C184.611 56.6134 184.148 56.4457 183.748 56.0821L181.389 53.9534ZM171.839 54.396C170.935 53.5808 170.241 52.6431 169.755 51.583C169.269 50.523 168.998 49.4359 168.942 48.3219C168.886 47.2078 169.044 46.0911 169.415 44.9717C169.787 43.8523 170.381 42.8401 171.199 41.9352L174.593 38.1229C175.046 37.621 175.376 37.0615 175.583 36.4445C175.79 35.8276 175.878 35.2008 175.846 34.5641C175.815 33.9275 175.663 33.313 175.391 32.7206C175.12 32.1282 174.734 31.6055 174.235 31.1525L171.876 29.0238C171.508 28.6917 171.302 28.2638 171.259 27.7401C171.215 27.2164 171.375 26.7531 171.739 26.3502C172.071 25.9822 172.507 25.7842 173.048 25.7564C173.589 25.7286 174.044 25.8808 174.412 26.2129L176.819 28.3392C177.722 29.1544 178.416 30.0921 178.901 31.1522C179.385 32.2123 179.657 33.2994 179.715 34.4133C179.774 35.5272 179.615 36.6287 179.238 37.7178C178.861 38.8068 178.266 39.8024 177.454 40.7045L174.057 44.469C173.574 45.0044 173.229 45.5889 173.022 46.2225C172.814 46.8561 172.727 47.4905 172.761 48.1257C172.795 48.761 172.946 49.3755 173.214 49.9693C173.482 50.5632 173.885 51.101 174.423 51.5827L176.782 53.7113C177.183 54.0737 177.389 54.5098 177.4 55.0199C177.411 55.5299 177.235 55.9857 176.871 56.3874C176.507 56.7571 176.071 56.9633 175.563 57.006C175.054 57.0487 174.599 56.8883 174.198 56.5247L171.839 54.396ZM198.782 69.9648C195.108 71.6872 191.622 73.7432 188.363 76.0936C188.599 76.2962 188.826 76.5153 189.041 76.751L229.358 120.921C230.442 118.62 231.089 116.112 231.239 113.525C231.539 108.342 229.819 103.245 226.443 99.3048L198.782 69.9648ZM177.163 86.3458C174.528 89.3913 172.172 92.6839 170.133 96.1843L196.796 126.359C200.414 130.08 205.333 132.257 210.523 132.431C213.113 132.517 215.669 132.101 218.059 131.232L177.743 87.0633C177.533 86.833 177.34 86.5934 177.163 86.3458ZM163.58 111.869C162.118 117.284 161.338 122.979 161.338 128.857C161.338 164.76 190.446 193.866 226.353 193.866C240.457 193.866 253.513 189.375 264.167 181.746L228.828 143.03C223.159 146.29 216.649 147.94 210.012 147.718C200.784 147.41 192.043 143.507 185.655 136.841C185.583 136.767 185.513 136.691 185.445 136.613L163.58 111.869ZM275.476 171.445C285.376 160.037 291.368 145.147 291.368 128.857C291.368 92.9526 262.26 63.8467 226.353 63.8467C222.47 63.8467 218.667 64.187 214.972 64.8394L237.688 88.9335C237.759 89.0086 237.828 89.0852 237.896 89.1632C243.952 96.1318 247.043 105.192 246.51 114.409C246.126 121.038 243.89 127.37 240.127 132.718L275.476 171.445Z" fill="white"/>
</svg>
