<svg width="140" height="73" viewBox="0 0 140 73" fill="none" xmlns="http://www.w3.org/2000/svg">
<g clip-path="url(#clip0_7356_9144)">
<path d="M14.9355 24.5645C17.5484 24.5645 19.4782 25.5298 20.8047 27.1777V25.127H26.6738V44.2207C26.6736 50.9733 21.4069 53.8271 16.0605 53.8271C11.88 53.8271 8.38235 52.2597 6.5332 48.9639L11.6787 45.9893C12.4425 47.396 13.6087 48.5214 16.2617 48.5215C19.0755 48.5215 20.8045 47.0743 20.8047 44.2207V42.3711C19.4782 44.0191 17.5484 44.9843 14.9355 44.9844C9.22731 44.9844 5.04597 40.3214 5.0459 34.7744C5.0459 29.2274 9.22726 24.5645 14.9355 24.5645ZM65.3408 16.5254C70.7275 16.5254 75.2699 19.1787 77.6416 22.957L72.1748 26.0918C71.0091 24.2429 68.4764 22.796 65.3008 22.7959C60.5573 22.7959 57.0195 26.2932 57.0195 31.2373C57.0197 36.0205 60.3963 39.5176 65.8633 39.5176C69.6018 39.5176 72.0536 37.8689 73.0586 35.1758H65.542V29.5488H79.6514V31.9609C79.6512 40.5625 73.662 45.7879 65.7832 45.7881C56.9395 45.7881 50.5881 39.2764 50.5879 31.1973C50.5879 23.0375 57.0598 16.5254 65.3408 16.5254ZM100.487 36.583C100.487 39.0751 102.056 40.2412 103.985 40.2412C106.196 40.2411 107.724 38.9543 107.724 36.1006V25.127H113.753V45.2256H107.724V43.3359C106.638 44.8232 104.628 45.7881 101.975 45.7881C97.9148 45.7879 94.4582 42.8938 94.458 37.4678V25.127H100.487V36.583ZM122.598 27.0166C123.924 25.4892 125.894 24.5645 128.587 24.5645C133.853 24.5645 138.195 29.1868 138.195 35.1758C138.195 41.165 133.853 45.7881 128.587 45.7881C125.894 45.788 123.924 44.8633 122.598 43.3359V45.2256H116.567V17.0879H122.598V27.0166ZM93.5283 31.5586C91.036 31.1567 87.4992 32.1616 87.499 36.1406V45.2256H81.4688V25.127H87.499V28.7051C88.303 26.012 90.9958 24.7256 93.5283 24.7256V31.5586ZM32.4658 35.8232L32.5 35.8613L32.7021 36.0615C33.7325 37.033 35.0861 37.5979 36.5088 37.6455C37.602 37.6819 38.6751 37.4093 39.6094 36.873L45.376 43.1689C43.6107 44.4597 41.4355 45.2246 39.0811 45.2246C33.1843 45.2244 28.4038 40.4441 28.4033 34.5479C28.4033 33.5557 28.5417 32.5951 28.7949 31.6836L32.4658 35.8232ZM39.0811 23.8711C44.9783 23.8711 49.7588 28.6511 49.7588 34.5479C49.7586 37.1846 48.8001 39.5964 47.2158 41.459L41.4668 35.1807C42.0857 34.3028 42.4562 33.2632 42.5195 32.1748C42.6019 30.7547 42.1578 29.3578 41.2803 28.2461L41.1006 28.0273L41.0654 27.9893L37.3105 24.0195C37.8865 23.9234 38.4778 23.8711 39.0811 23.8711ZM127.381 30.2725C124.607 30.2726 122.598 32.1615 122.598 35.1758C122.598 38.1903 124.607 40.0799 127.381 40.0801C130.155 40.0801 132.165 38.1905 132.165 35.1758C132.165 32.1614 130.154 30.2725 127.381 30.2725ZM15.9404 30.1113C13.0863 30.1113 11.0762 32.0009 11.0762 34.7744C11.0762 37.5478 13.0863 39.4365 15.9404 39.4365C18.7944 39.4364 20.8046 37.5478 20.8047 34.7744C20.8047 32.001 18.7945 30.1114 15.9404 30.1113ZM31.1143 27.5869L31.1963 27.6865L37.8369 34.9375C37.4428 35.0802 37.0211 35.1499 36.5938 35.1357C35.7327 35.107 34.9174 34.7441 34.3203 34.1279L29.8838 29.124C30.2249 28.5469 30.6195 28.0046 31.0596 27.5039C31.077 27.5316 31.0944 27.5603 31.1143 27.5869ZM39.2148 29.6895C39.7751 30.3377 40.0611 31.1774 40.0117 32.0303C39.9868 32.4564 39.8773 32.87 39.6973 33.249L33.0488 25.9893L32.958 25.8994C32.9376 25.8812 32.9158 25.8643 32.8945 25.8477C33.4375 25.4609 34.0181 25.1238 34.6299 24.8428L39.2148 29.6895ZM30.3145 17.624C30.4033 17.619 30.4783 17.644 30.5391 17.6982L30.9355 18.0449C31.0845 18.178 31.1999 18.3322 31.2803 18.5059C31.3606 18.6794 31.4065 18.8583 31.417 19.041C31.4274 19.2236 31.4017 19.4051 31.3408 19.584C31.2798 19.7629 31.1824 19.9275 31.0498 20.0762L30.4951 20.6963C30.4164 20.7844 30.3607 20.8814 30.3271 20.9854C30.2937 21.0893 30.2792 21.1939 30.2852 21.2979C30.2913 21.402 30.3169 21.5034 30.3613 21.6006C30.4058 21.6978 30.4729 21.7857 30.5615 21.8643L30.9502 22.2129C31.0161 22.272 31.0505 22.3432 31.0527 22.4268C31.0548 22.5103 31.026 22.5853 30.9668 22.6514C30.9074 22.7122 30.8362 22.7474 30.7529 22.7549C30.6697 22.7623 30.5944 22.7359 30.5283 22.6768L30.1387 22.3291C29.9898 22.196 29.8755 22.0417 29.7949 21.8682C29.7144 21.6948 29.6684 21.5166 29.6582 21.334C29.6481 21.1513 29.6735 20.9671 29.7334 20.7832C29.7934 20.5994 29.8902 20.4323 30.0234 20.2832L30.5781 19.6543C30.6519 19.5717 30.7057 19.4791 30.7393 19.3779C30.7727 19.2766 30.7869 19.1727 30.7812 19.0684C30.7756 18.9642 30.7499 18.8634 30.7051 18.7666C30.66 18.6696 30.5959 18.5837 30.5137 18.5098L30.125 18.1621C30.0644 18.108 30.0301 18.0369 30.0225 17.9512C30.015 17.8655 30.0406 17.7889 30.0996 17.7227C30.1538 17.662 30.2258 17.6291 30.3145 17.624ZM31.8818 17.5322C31.9704 17.5247 32.0481 17.5505 32.1143 17.6094L32.5039 17.957C32.6528 18.0901 32.7673 18.2443 32.8477 18.418C32.9279 18.5914 32.9739 18.7696 32.9844 18.9521C32.9948 19.1348 32.9691 19.3162 32.9082 19.4951C32.8472 19.674 32.7507 19.8387 32.6182 19.9873L32.0635 20.6084C31.9847 20.6966 31.9282 20.7922 31.8945 20.8936C31.861 20.9948 31.8465 21.0979 31.8525 21.2021C31.8587 21.3065 31.8842 21.4091 31.9287 21.5088C31.9733 21.6085 32.0403 21.6978 32.1289 21.7764L32.5176 22.124C32.5837 22.1832 32.6201 22.2565 32.625 22.3428C32.6297 22.4288 32.602 22.5054 32.543 22.5713C32.4839 22.6369 32.4111 22.6726 32.3252 22.6777C32.239 22.6828 32.1626 22.655 32.0967 22.5957L31.707 22.248C31.5582 22.115 31.443 21.9601 31.3623 21.7842C31.2817 21.6082 31.2357 21.4282 31.2256 21.2451C31.2155 21.0619 31.2408 20.8779 31.3008 20.6943C31.3609 20.5107 31.4584 20.3437 31.5918 20.1943L32.1465 19.5732C32.2202 19.4906 32.2741 19.3981 32.3076 19.2969C32.341 19.1957 32.3552 19.0925 32.3496 18.9883C32.3439 18.8839 32.3184 18.7825 32.2734 18.6855C32.2284 18.5886 32.1643 18.5027 32.082 18.4287L31.6924 18.0811C31.6321 18.027 31.5984 17.9566 31.5908 17.8711C31.5833 17.7853 31.6089 17.7089 31.668 17.6426C31.7218 17.5767 31.7933 17.5398 31.8818 17.5322ZM33.4619 17.4473C33.5476 17.4425 33.6239 17.4694 33.6904 17.5283L34.0713 17.8691C34.2201 18.0022 34.3347 18.1556 34.415 18.3291C34.4954 18.5027 34.5413 18.6815 34.5518 18.8643C34.5622 19.047 34.5373 19.2283 34.4766 19.4072C34.4158 19.5862 34.3186 19.7507 34.1855 19.8994L33.6309 20.5205C33.5522 20.6086 33.4956 20.7034 33.4619 20.8047C33.4283 20.9061 33.4138 21.0099 33.4199 21.1143C33.4261 21.2186 33.4516 21.3213 33.4961 21.4209C33.5407 21.5205 33.6077 21.6099 33.6963 21.6885L34.0859 22.0361C34.1518 22.0952 34.1875 22.1679 34.1924 22.2539C34.1971 22.34 34.1694 22.4165 34.1104 22.4824C34.0512 22.5482 33.9787 22.5848 33.8926 22.5898C33.8064 22.5949 33.73 22.5671 33.6641 22.5078L33.2744 22.1602C33.1256 22.0271 33.0092 21.8709 32.9258 21.6924C32.8424 21.5138 32.7955 21.3321 32.7852 21.1494C32.7749 20.9668 32.8001 20.7839 32.8604 20.6025C32.9208 20.4211 33.0208 20.2556 33.1592 20.1064L33.7139 19.4854C33.7877 19.4027 33.8415 19.3103 33.875 19.209C33.9084 19.1078 33.9225 19.0046 33.917 18.9004C33.9113 18.796 33.8858 18.6946 33.8408 18.5977C33.7958 18.5007 33.7317 18.4148 33.6494 18.3408L33.2607 17.9932C33.1947 17.9342 33.1606 17.8627 33.1582 17.7793C33.156 17.6957 33.1849 17.6199 33.2441 17.5537C33.3035 17.4877 33.3762 17.4521 33.4619 17.4473Z" fill="black"/>
</g>
<path d="M113.491 63.4209V60.0459H115.605V63.4209H117.718V65.6707H115.605V66.796C115.605 67.4168 115.811 67.9472 116.224 68.3865C116.637 68.8257 117.135 69.0458 117.718 69.0458V71.2955C117.157 71.2955 116.617 71.1815 116.1 70.9526C115.582 70.7244 115.126 70.3992 114.73 69.9769C114.334 69.5547 114.028 69.0687 113.813 68.5176C113.599 67.9672 113.491 67.3923 113.491 66.7952V65.67H112.434V63.4202H113.491V63.4209Z" fill="#0D0D0D"/>
<path d="M120.551 66.7952V71.2948H118.438V66.7952C118.438 66.1974 118.545 65.6233 118.76 65.0729C118.974 64.5225 119.28 64.0358 119.676 63.6135C120.072 63.192 120.53 62.8668 121.047 62.6379C121.564 62.4097 122.104 62.2949 122.665 62.2949V64.5447C122.082 64.5447 121.584 64.7647 121.171 65.204C120.758 65.6433 120.551 66.1737 120.551 66.7945V66.7952Z" fill="#0D0D0D"/>
<path d="M126.937 71.2945C126.375 71.2945 125.836 71.1805 125.318 70.9516C124.801 70.7234 124.344 70.3982 123.948 69.9759C123.552 69.5537 123.246 69.0677 123.031 68.5166C122.817 67.9662 122.709 67.3913 122.709 66.7942C122.709 66.1972 122.816 65.6223 123.031 65.0719C123.246 64.5215 123.551 64.0348 123.948 63.6126C124.344 63.191 124.801 62.8658 125.318 62.6369C125.836 62.4088 126.376 62.2939 126.937 62.2939C127.498 62.2939 128.038 62.408 128.555 62.6369C129.072 62.8651 129.529 63.1903 129.925 63.6126C130.321 64.0348 130.627 64.5208 130.842 65.0719C131.056 65.6231 131.164 66.1972 131.164 66.7942C131.164 67.3913 131.057 67.9662 130.842 68.5166C130.628 69.0677 130.322 69.5537 129.925 69.9759C129.529 70.3974 129.072 70.7227 128.555 70.9516C128.037 71.1797 127.498 71.2945 126.937 71.2945ZM126.937 69.0448C127.52 69.0448 128.018 68.8248 128.431 68.3855C128.844 67.9462 129.05 67.4158 129.05 66.795C129.05 66.1742 128.844 65.6438 128.431 65.2045C128.018 64.7652 127.52 64.5452 126.937 64.5452C126.353 64.5452 125.855 64.7652 125.442 65.2045C125.03 65.6438 124.823 66.1742 124.823 66.795C124.823 67.4158 125.03 67.9462 125.442 68.3855C125.855 68.8248 126.353 69.0448 126.937 69.0448Z" fill="#0D0D0D"/>
<path d="M135.772 71.2945C135.21 71.2945 134.67 71.1805 134.153 70.9516C133.635 70.7234 133.179 70.3982 132.783 69.9759C132.387 69.5537 132.081 69.0677 131.866 68.5166C131.652 67.9662 131.544 67.3913 131.544 66.7942C131.544 66.1972 131.651 65.6223 131.866 65.0719C132.081 64.5215 132.386 64.0348 132.783 63.6126C133.179 63.191 133.636 62.8658 134.153 62.6369C134.67 62.4088 135.211 62.2939 135.772 62.2939C136.333 62.2939 136.873 62.408 137.39 62.6369C137.907 62.8651 138.364 63.1903 138.76 63.6126C139.156 64.0348 139.462 64.5208 139.677 65.0719C139.891 65.6231 139.999 66.1972 139.999 66.7942C139.999 67.3913 139.892 67.9662 139.677 68.5166C139.463 69.0677 139.157 69.5537 138.76 69.9759C138.364 70.3974 137.907 70.7227 137.39 70.9516C136.872 71.1797 136.333 71.2945 135.772 71.2945ZM135.772 69.0448C136.355 69.0448 136.853 68.8248 137.266 68.3855C137.679 67.9462 137.885 67.4158 137.885 66.795C137.885 66.1742 137.679 65.6438 137.266 65.2045C136.853 64.7652 136.355 64.5452 135.772 64.5452C135.188 64.5452 134.69 64.7652 134.277 65.2045C133.864 65.6438 133.658 66.1742 133.658 66.795C133.658 67.4158 133.864 67.9462 134.277 68.3855C134.69 68.8248 135.188 69.0448 135.772 69.0448Z" fill="#0D0D0D"/>
<path d="M97.9196 66.8507C98.4702 69.8094 100.922 72.0407 103.864 72.0407C107.212 72.0407 109.925 69.1524 109.925 65.5899C109.925 62.8912 108.368 60.5807 106.158 59.6191C107.694 60.6814 108.709 62.523 108.709 64.6173C108.709 67.9078 106.202 70.5747 103.111 70.5747C100.761 70.5747 98.7493 69.0338 97.9189 66.8507H97.9196Z" fill="#0D0D0D"/>
<path d="M98.3203 65.4081C98.7428 67.7171 100.654 69.4602 102.947 69.4602C105.551 69.4602 107.662 67.2134 107.662 64.4429C107.661 61.8449 105.805 59.7077 103.427 59.4521C105.004 60.0589 106.131 61.6664 106.131 63.5546C106.131 65.9644 104.296 67.9179 102.031 67.9179C100.39 67.9179 98.9746 66.8912 98.3203 65.4081Z" fill="#0D0D0D"/>
<path d="M98.6406 63.3734C98.6406 64.9439 99.6095 66.2736 100.945 66.724C100.277 66.161 99.8489 65.2884 99.8489 64.3113C99.8489 62.6104 101.144 61.2325 102.742 61.2325C103.758 61.2325 104.653 61.7911 105.169 62.6363C104.851 61.0496 103.526 59.8613 101.941 59.8613C100.118 59.8613 98.6406 61.4333 98.6406 63.3734Z" fill="#0D0D0D"/>
<path d="M41.6734 66.4187C41.6734 67.9462 40.7432 69.1507 39.3233 69.1507C38.775 69.1507 38.3049 68.9548 37.8937 68.5631V70.9426H36.2193V63.7846H37.7566V64.3819C38.1874 63.9315 38.7064 63.6867 39.3233 63.6867C40.7432 63.6867 41.6734 64.9107 41.6734 66.4187ZM39.9304 66.4187C39.9304 65.5962 39.431 65.1947 38.9218 65.1947C38.4029 65.1947 37.9133 65.5962 37.9133 66.4285C37.9133 67.2706 38.4127 67.6427 38.9218 67.6427C39.431 67.6427 39.9304 67.2608 39.9304 66.4187ZM45.0284 69.1507C43.4714 69.1507 42.2768 67.9267 42.2768 66.4187C42.2768 64.9107 43.4714 63.6867 45.0284 63.6867C46.5853 63.6867 47.7799 64.9107 47.7799 66.4187C47.7799 67.9267 46.5853 69.1507 45.0284 69.1507ZM45.0284 67.6525C45.5473 67.6525 46.0369 67.2412 46.0369 66.4187C46.0369 65.5962 45.5473 65.1947 45.0284 65.1947C44.5094 65.1947 44.0198 65.5962 44.0198 66.4187C44.0198 67.2412 44.5094 67.6525 45.0284 67.6525ZM52.8586 69.0527L52.0459 66.0662L51.2331 69.0527H49.5587L48.0801 63.7846H49.7154L50.4498 66.6733L51.2233 63.7846H52.8978L53.6322 66.6733L54.3666 63.7846H56.0116L54.5232 69.0527H52.8586ZM59.0229 69.1409C57.3974 69.1409 56.3105 68.0442 56.3105 66.4089C56.3105 64.8324 57.4464 63.6867 59.0131 63.6867C60.7561 63.6867 61.9213 65.1066 61.6178 66.8397H58.0437C58.1318 67.5056 58.4451 67.8385 58.9837 67.8385C59.4537 67.8385 59.7671 67.6427 59.9139 67.2608H61.5884C61.2652 68.4652 60.335 69.1409 59.0229 69.1409ZM58.9739 64.9205C58.4745 64.9205 58.1808 65.2045 58.0633 65.792H59.8258C59.8062 65.2632 59.4733 64.9205 58.9739 64.9205ZM64.278 66.6243V69.0527H62.6036V63.7846H64.1409V64.7149C64.5424 64.098 65.3747 63.7455 66.2168 63.7455V65.4884C65.032 65.3709 64.278 65.4591 64.278 66.6243ZM69.3654 69.1409C67.7399 69.1409 66.653 68.0442 66.653 66.4089C66.653 64.8324 67.7889 63.6867 69.3556 63.6867C71.0986 63.6867 72.2638 65.1066 71.9603 66.8397H68.3862C68.4743 67.5056 68.7877 67.8385 69.3262 67.8385C69.7963 67.8385 70.1096 67.6427 70.2565 67.2608H71.9309C71.6078 68.4652 70.6775 69.1409 69.3654 69.1409ZM69.3164 64.9205C68.8171 64.9205 68.5233 65.2045 68.4058 65.792H70.1684C70.1488 65.2632 69.8158 64.9205 69.3164 64.9205ZM72.5176 66.4187C72.5176 64.8911 73.4478 63.6867 74.8677 63.6867C75.416 63.6867 75.886 63.8826 76.2973 64.2742V62.0221H77.9717V69.0527H76.4344V68.4554C76.0035 68.9059 75.4846 69.1507 74.8677 69.1507C73.4478 69.1507 72.5176 67.9267 72.5176 66.4187ZM74.2605 66.4187C74.2605 67.2412 74.7599 67.6427 75.2691 67.6427C75.7881 67.6427 76.2777 67.2412 76.2777 66.4089C76.2777 65.5668 75.7783 65.1947 75.2691 65.1947C74.7599 65.1947 74.2605 65.5766 74.2605 66.4187ZM86.9164 66.4187C86.9164 67.9267 85.9861 69.1507 84.5663 69.1507C83.9494 69.1507 83.4304 68.9059 82.9996 68.4554V69.0527H81.4622V62.0221H83.1367V64.2742C83.5479 63.8826 84.0179 63.6867 84.5663 63.6867C85.9861 63.6867 86.9164 64.8911 86.9164 66.4187ZM85.1734 66.4187C85.1734 65.5766 84.674 65.1947 84.1648 65.1947C83.6556 65.1947 83.1562 65.5668 83.1562 66.4089C83.1562 67.2412 83.6458 67.6427 84.1648 67.6427C84.674 67.6427 85.1734 67.2412 85.1734 66.4187ZM92.7239 63.7846L90.2172 70.9426H88.3861L89.1205 68.994L87.0641 63.7846H88.8855L90.0213 67.0454L91.0397 63.7846H92.7239Z" fill="#929292"/>
<defs>
<clipPath id="clip0_7356_9144">
<rect width="139.886" height="67.1452" fill="white"/>
</clipPath>
</defs>
</svg>
