<svg width="201" height="104" viewBox="0 0 201 104" fill="none" xmlns="http://www.w3.org/2000/svg">
<g clip-path="url(#clip0_6758_4863)">
<path fill-rule="evenodd" clip-rule="evenodd" d="M113.881 42.247V45.6952C113.881 57.9937 105.317 65.4647 94.0522 65.4647C81.4079 65.4647 72.3269 56.1546 72.3269 44.6033C72.3269 32.937 81.5803 23.627 93.42 23.627C101.122 23.627 107.616 27.4199 111.007 32.8221L103.191 37.3047C101.524 34.6611 97.903 32.5922 93.3625 32.5922C86.5806 32.5922 81.5228 37.592 81.5228 44.6608C81.5228 51.4996 86.3506 56.4994 94.1672 56.4994C99.5123 56.4994 103.018 54.1432 104.455 50.2928H93.7074V42.247H113.881ZM29.7448 35.9254H38.136V63.2234C38.136 72.8782 30.6069 76.9586 22.9628 76.9586C16.9855 76.9586 11.9852 74.7172 9.34139 70.0048L16.6981 65.752C17.7901 67.7634 19.4569 69.3726 23.2502 69.3726C27.2734 69.3726 29.7448 67.3037 29.7448 63.2234V60.5798C27.8481 62.936 25.0893 64.3153 21.3535 64.3153C13.1922 64.3153 7.21484 57.6488 7.21484 49.7181C7.21484 41.7873 13.1922 35.1208 21.3535 35.1208C25.0893 35.1208 27.8481 36.5001 29.7448 38.8563V35.9254ZM22.7904 56.3845C26.8711 56.3845 29.7448 53.6834 29.7448 49.7181C29.7448 45.7527 26.8711 43.0516 22.7904 43.0516C18.7097 43.0516 15.836 45.7527 15.836 49.7181C15.836 53.6834 18.7097 56.3845 22.7904 56.3845ZM133.721 35.3507C130.1 35.3507 126.249 37.1897 125.1 41.0402V35.9254H116.479V64.6601H125.1V51.672C125.1 45.9825 130.158 44.5458 133.721 45.1205V35.3507ZM154.016 35.9254H162.637V64.6601H154.016V61.959C152.464 64.0854 149.591 65.4647 145.797 65.4647C139.993 65.4647 135.05 61.3269 135.05 53.5685V35.9254H143.671V52.3042C143.671 55.8673 145.912 57.5339 148.671 57.5339C151.832 57.5339 154.016 55.6949 154.016 51.6145V35.9254ZM197.582 50.2928C197.582 41.7298 191.375 35.1208 183.846 35.1208C179.995 35.1208 177.179 36.4426 175.282 38.6265V24.4315H166.661V64.6601H175.282V61.959C177.179 64.1429 179.995 65.4647 183.846 65.4647C191.375 65.4647 197.582 58.8557 197.582 50.2928ZM188.961 50.2928C188.961 54.603 186.087 57.304 182.122 57.304C178.156 57.304 175.282 54.603 175.282 50.2928C175.282 45.9825 178.156 43.2815 182.122 43.2815C186.087 43.2815 188.961 45.9825 188.961 50.2928ZM47.5742 31.6839C47.3611 31.4935 47.1949 31.2705 47.0756 31.0149C46.9563 30.7592 46.8893 30.5007 46.8746 30.2391C46.8599 29.9776 46.8957 29.717 46.9821 29.4573C47.0685 29.1976 47.2108 28.961 47.409 28.7475L48.2022 27.8596C48.3079 27.7412 48.3848 27.6095 48.4327 27.4644C48.4806 27.3192 48.5005 27.172 48.4924 27.0225C48.4842 26.8731 48.448 26.7289 48.3835 26.5902C48.319 26.4514 48.2279 26.3291 48.1101 26.2233L47.5538 25.7261C47.4591 25.6415 47.4102 25.5393 47.407 25.4196C47.4039 25.2998 47.4448 25.1926 47.5297 25.0979C47.6146 25.0032 47.7184 24.9523 47.8413 24.9454C47.9641 24.9385 48.0732 24.9774 48.1685 25.0619L48.713 25.5485C48.926 25.7389 49.0901 25.9583 49.2051 26.2066C49.3201 26.455 49.3851 26.7099 49.4001 26.9714C49.4151 27.2329 49.3792 27.4918 49.2922 27.7479C49.2053 28.004 49.0667 28.2385 48.8763 28.4513L48.0831 29.3392C47.9703 29.4654 47.8897 29.6011 47.8416 29.7463C47.7934 29.8914 47.7736 30.0387 47.7823 30.1881C47.791 30.3375 47.8273 30.4836 47.8911 30.6263C47.9549 30.769 48.0502 30.8966 48.177 31.0091L48.7334 31.5062C48.8281 31.5909 48.8789 31.6949 48.8858 31.8183C48.8928 31.9417 48.8539 32.0507 48.7693 32.1451C48.6847 32.2395 48.5807 32.2903 48.4573 32.2976C48.3339 32.3048 48.2249 32.2659 48.1305 32.181L47.5742 31.6839ZM45.3328 31.81C45.1197 31.6196 44.9555 31.3984 44.84 31.1465C44.7244 30.8945 44.6595 30.6375 44.645 30.3754C44.6306 30.1132 44.6663 29.8508 44.7523 29.5882C44.8382 29.3255 44.9767 29.0873 45.1676 28.8736L45.9608 27.9857C46.0666 27.8673 46.1434 27.7356 46.1913 27.5905C46.2392 27.4453 46.2591 27.2981 46.251 27.1486C46.2429 26.9992 46.2066 26.855 46.1421 26.7163C46.0777 26.5775 45.9865 26.4552 45.8688 26.3494L45.3124 25.8522C45.2256 25.7747 45.1768 25.6744 45.166 25.5515C45.1552 25.4286 45.1922 25.3196 45.2771 25.2246C45.3542 25.1303 45.4562 25.0778 45.583 25.0671C45.7098 25.0563 45.8206 25.0931 45.9153 25.1775L46.4716 25.6746C46.6847 25.865 46.8487 26.0844 46.9637 26.3327C47.0787 26.5811 47.1437 26.836 47.1588 27.0975C47.1738 27.359 47.1377 27.6179 47.0504 27.874C46.9632 28.1302 46.8247 28.3646 46.6349 28.5774L45.8417 29.4653C45.7289 29.5915 45.6484 29.7272 45.6002 29.8724C45.552 30.0175 45.5323 30.1648 45.541 30.3142C45.5497 30.4636 45.5859 30.6097 45.6497 30.7524C45.7135 30.8951 45.8088 31.0227 45.9357 31.1352L46.492 31.6323C46.5867 31.717 46.6375 31.821 46.6445 31.9444C46.6514 32.0678 46.6126 32.1768 46.528 32.2712C46.4433 32.3656 46.3393 32.4164 46.2159 32.4236C46.0925 32.4309 45.9836 32.392 45.8892 32.3071L45.3328 31.81ZM43.0908 31.9249C42.8778 31.7345 42.7136 31.5151 42.5983 31.2668C42.483 31.0184 42.4181 30.7634 42.4037 30.5019C42.3893 30.2404 42.425 29.978 42.511 29.7147C42.5969 29.4514 42.7353 29.2131 42.9263 28.9997L43.7188 28.1006C43.8246 27.9822 43.9014 27.8505 43.9493 27.7053C43.9972 27.5602 44.0171 27.413 44.009 27.2635C44.0009 27.1141 43.9646 26.9699 43.9002 26.8311C43.8357 26.6924 43.7446 26.5701 43.6268 26.4643L43.0704 25.9671C42.9836 25.8896 42.9348 25.7893 42.924 25.6664C42.9132 25.5435 42.9502 25.4345 43.0351 25.3395C43.1127 25.2527 43.215 25.2057 43.342 25.1986C43.469 25.1914 43.5759 25.2266 43.6627 25.3042L44.2303 25.8007C44.4433 25.9911 44.6074 26.2105 44.7224 26.4588C44.8374 26.7072 44.9024 26.9621 44.9174 27.2236C44.9324 27.4851 44.8963 27.744 44.8091 28.0001C44.7219 28.2563 44.5834 28.4907 44.3936 28.7035L43.6004 29.5914C43.4875 29.7176 43.4072 29.8553 43.3592 30.0043C43.3112 30.1533 43.2915 30.3024 43.3002 30.4515C43.3089 30.6006 43.3451 30.7447 43.4087 30.8839C43.4722 31.023 43.5675 31.1488 43.6943 31.2613L44.2507 31.7584C44.3454 31.8431 44.3943 31.9452 44.3974 32.065C44.4006 32.1847 44.3597 32.292 44.2748 32.3867C44.1897 32.4739 44.0876 32.5229 43.9682 32.5335C43.8489 32.5441 43.7419 32.5069 43.6472 32.422L43.0908 31.9249ZM49.5095 35.5155C48.6353 35.9171 47.8056 36.3988 47.0297 36.9513C47.1083 37.0125 47.1828 37.081 47.2523 37.1569L56.7588 47.5379C57.0165 46.9955 57.1701 46.4044 57.2055 45.7946C57.2761 44.5793 56.8715 43.3833 56.0759 42.4576L49.5095 35.5155ZM44.404 39.3218C43.775 40.0375 43.212 40.8125 42.7244 41.6374L49.0794 48.8057C49.9322 49.6801 51.0932 50.1929 52.3194 50.2337C52.931 50.2541 53.5343 50.1562 54.0983 49.9518L44.603 39.5831C44.5275 39.5007 44.4612 39.4132 44.404 39.3218ZM41.1661 45.2949C40.8033 46.5993 40.6094 47.9741 40.6094 49.3941C40.6094 57.8249 47.4445 64.6594 55.876 64.6594C59.2426 64.6594 62.3548 63.5698 64.8789 61.7239L56.6331 52.7198C55.2969 53.4873 53.7624 53.8756 52.1987 53.8235C50.0282 53.7512 47.971 52.836 46.4667 51.2717C46.4499 51.2542 46.4334 51.2364 46.4173 51.2183L41.1661 45.2949ZM67.5105 59.2785C69.7757 56.6152 71.1426 53.1643 71.1426 49.3941C71.1426 40.9633 64.3075 34.1288 55.876 34.1288C55.0123 34.1288 54.1654 34.2005 53.3409 34.3383L58.7128 40.0176C58.7294 40.0352 58.7457 40.0532 58.7617 40.0715C60.188 41.7074 60.9171 43.8356 60.7913 46.0017C60.701 47.5585 60.1742 49.0451 59.2888 50.3006L67.5105 59.2785Z" fill="white"/>
</g>
<path d="M162.263 90.675V85.8496H165.285V90.675H168.307V93.8916H165.285V95.5004C165.285 96.388 165.581 97.1463 166.171 97.7744C166.761 98.4025 167.474 98.717 168.307 98.717V101.934C167.504 101.934 166.733 101.771 165.994 101.443C165.253 101.117 164.601 100.652 164.034 100.048C163.468 99.4447 163.031 98.7499 162.724 97.9619C162.417 97.1749 162.263 96.3531 162.263 95.4994V93.8906H160.751V90.674H162.263V90.675Z" fill="white"/>
<path d="M172.358 95.5007V101.934H169.335V95.5007C169.335 94.6459 169.489 93.8251 169.796 93.0382C170.103 92.2512 170.54 91.5554 171.107 90.9517C171.673 90.349 172.327 89.8841 173.066 89.5568C173.806 89.2306 174.578 89.0664 175.38 89.0664V92.283C174.546 92.283 173.833 92.5976 173.243 93.2256C172.653 93.8537 172.358 94.612 172.358 95.4996V95.5007Z" fill="white"/>
<path d="M181.486 101.933C180.683 101.933 179.912 101.77 179.172 101.443C178.432 101.116 177.779 100.651 177.213 100.048C176.647 99.444 176.21 98.7492 175.902 97.9612C175.596 97.1743 175.441 96.3524 175.441 95.4987C175.441 94.645 175.595 93.8231 175.902 93.0362C176.209 92.2493 176.646 91.5534 177.213 90.9497C177.779 90.3471 178.433 89.8821 179.172 89.5548C179.912 89.2286 180.684 89.0645 181.486 89.0645C182.288 89.0645 183.06 89.2276 183.799 89.5548C184.539 89.881 185.193 90.346 185.759 90.9497C186.325 91.5534 186.762 92.2482 187.069 93.0362C187.376 93.8242 187.53 94.645 187.53 95.4987C187.53 96.3524 187.377 97.1743 187.069 97.9612C186.763 98.7492 186.326 99.444 185.759 100.048C185.193 100.65 184.539 101.115 183.799 101.443C183.059 101.769 182.288 101.933 181.486 101.933ZM181.486 98.7163C182.32 98.7163 183.032 98.4018 183.622 97.7737C184.212 97.1457 184.508 96.3873 184.508 95.4998C184.508 94.6122 184.212 93.8539 183.622 93.2258C183.032 92.5977 182.32 92.2832 181.486 92.2832C180.652 92.2832 179.939 92.5977 179.349 93.2258C178.759 93.8539 178.464 94.6122 178.464 95.4998C178.464 96.3873 178.759 97.1457 179.349 97.7737C179.939 98.4018 180.652 98.7163 181.486 98.7163Z" fill="white"/>
<path d="M194.119 101.933C193.316 101.933 192.545 101.77 191.805 101.443C191.065 101.116 190.412 100.651 189.846 100.048C189.28 99.444 188.843 98.7492 188.535 97.9612C188.229 97.1743 188.075 96.3524 188.075 95.4987C188.075 94.645 188.228 93.8231 188.535 93.0362C188.842 92.2493 189.279 91.5534 189.846 90.9497C190.412 90.3471 191.066 89.8821 191.805 89.5548C192.545 89.2286 193.317 89.0645 194.119 89.0645C194.921 89.0645 195.693 89.2276 196.433 89.5548C197.172 89.881 197.826 90.346 198.392 90.9497C198.958 91.5534 199.395 92.2482 199.703 93.0362C200.009 93.8242 200.163 94.645 200.163 95.4987C200.163 96.3524 200.01 97.1743 199.703 97.9612C199.396 98.7492 198.959 99.444 198.392 100.048C197.826 100.65 197.172 101.115 196.433 101.443C195.692 101.769 194.921 101.933 194.119 101.933ZM194.119 98.7163C194.953 98.7163 195.666 98.4018 196.256 97.7737C196.846 97.1457 197.141 96.3873 197.141 95.4998C197.141 94.6122 196.846 93.8539 196.256 93.2258C195.666 92.5977 194.953 92.2832 194.119 92.2832C193.285 92.2832 192.573 92.5977 191.983 93.2258C191.392 93.8539 191.097 94.6122 191.097 95.4998C191.097 96.3873 191.392 97.1457 191.983 97.7737C192.573 98.4018 193.285 98.7163 194.119 98.7163Z" fill="white"/>
<path d="M140 95.5776C140.787 99.8077 144.292 102.998 148.498 102.998C153.285 102.998 157.164 98.8683 157.164 93.7749C157.164 89.9165 154.939 86.613 151.779 85.2383C153.975 86.7571 155.425 89.3901 155.425 92.3843C155.425 97.0889 151.842 100.902 147.422 100.902C144.063 100.902 141.186 98.6988 139.999 95.5776H140Z" fill="white"/>
<path d="M140.573 93.5154C141.177 96.8168 143.909 99.3089 147.188 99.3089C150.911 99.3089 153.928 96.0966 153.928 92.1354C153.927 88.421 151.274 85.3654 147.874 85C150.129 85.8674 151.74 88.1658 151.74 90.8655C151.74 94.3109 149.116 97.1038 145.879 97.1038C143.531 97.1038 141.508 95.6358 140.573 93.5154Z" fill="white"/>
<path d="M141.031 90.6053C141.031 92.8507 142.416 94.7519 144.326 95.3958C143.371 94.5909 142.759 93.3432 142.759 91.9462C142.759 89.5144 144.61 87.5444 146.895 87.5444C148.348 87.5444 149.627 88.343 150.366 89.5515C149.91 87.2828 148.016 85.584 145.75 85.584C143.144 85.584 141.031 87.8315 141.031 90.6053Z" fill="white"/>
<path d="M59.582 95.234C59.582 97.418 58.252 99.14 56.222 99.14C55.438 99.14 54.766 98.86 54.178 98.3V101.702H51.784V91.468H53.982V92.322C54.598 91.678 55.34 91.328 56.222 91.328C58.252 91.328 59.582 93.078 59.582 95.234ZM57.09 95.234C57.09 94.058 56.376 93.484 55.648 93.484C54.906 93.484 54.206 94.058 54.206 95.248C54.206 96.452 54.92 96.984 55.648 96.984C56.376 96.984 57.09 96.438 57.09 95.234ZM64.3787 99.14C62.1527 99.14 60.4447 97.39 60.4447 95.234C60.4447 93.078 62.1527 91.328 64.3787 91.328C66.6047 91.328 68.3127 93.078 68.3127 95.234C68.3127 97.39 66.6047 99.14 64.3787 99.14ZM64.3787 96.998C65.1207 96.998 65.8207 96.41 65.8207 95.234C65.8207 94.058 65.1207 93.484 64.3787 93.484C63.6367 93.484 62.9367 94.058 62.9367 95.234C62.9367 96.41 63.6367 96.998 64.3787 96.998ZM75.5739 99L74.4119 94.73L73.2499 99H70.8559L68.7419 91.468H71.0799L72.1299 95.598L73.2359 91.468H75.6299L76.6799 95.598L77.7299 91.468H80.0819L77.9539 99H75.5739ZM84.3872 99.126C82.0632 99.126 80.5092 97.558 80.5092 95.22C80.5092 92.966 82.1332 91.328 84.3732 91.328C86.8652 91.328 88.5312 93.358 88.0972 95.836H82.9872C83.1132 96.788 83.5612 97.264 84.3312 97.264C85.0032 97.264 85.4512 96.984 85.6612 96.438H88.0552C87.5932 98.16 86.2632 99.126 84.3872 99.126ZM84.3172 93.092C83.6032 93.092 83.1832 93.498 83.0152 94.338H85.5352C85.5072 93.582 85.0312 93.092 84.3172 93.092ZM91.9007 95.528V99H89.5067V91.468H91.7047V92.798C92.2787 91.916 93.4687 91.412 94.6727 91.412V93.904C92.9787 93.736 91.9007 93.862 91.9007 95.528ZM99.1743 99.126C96.8503 99.126 95.2963 97.558 95.2963 95.22C95.2963 92.966 96.9203 91.328 99.1603 91.328C101.652 91.328 103.318 93.358 102.884 95.836H97.7743C97.9003 96.788 98.3483 97.264 99.1183 97.264C99.7903 97.264 100.238 96.984 100.448 96.438H102.842C102.38 98.16 101.05 99.126 99.1743 99.126ZM99.1043 93.092C98.3903 93.092 97.9703 93.498 97.8023 94.338H100.322C100.294 93.582 99.8183 93.092 99.1043 93.092ZM103.681 95.234C103.681 93.05 105.011 91.328 107.041 91.328C107.825 91.328 108.497 91.608 109.085 92.168V88.948H111.479V99H109.281V98.146C108.665 98.79 107.923 99.14 107.041 99.14C105.011 99.14 103.681 97.39 103.681 95.234ZM106.173 95.234C106.173 96.41 106.887 96.984 107.615 96.984C108.357 96.984 109.057 96.41 109.057 95.22C109.057 94.016 108.343 93.484 107.615 93.484C106.887 93.484 106.173 94.03 106.173 95.234ZM124.268 95.234C124.268 97.39 122.938 99.14 120.908 99.14C120.026 99.14 119.284 98.79 118.668 98.146V99H116.47V88.948H118.864V92.168C119.452 91.608 120.124 91.328 120.908 91.328C122.938 91.328 124.268 93.05 124.268 95.234ZM121.776 95.234C121.776 94.03 121.062 93.484 120.334 93.484C119.606 93.484 118.892 94.016 118.892 95.22C118.892 96.41 119.592 96.984 120.334 96.984C121.062 96.984 121.776 96.41 121.776 95.234ZM132.571 91.468L128.987 101.702H126.369L127.419 98.916L124.479 91.468H127.083L128.707 96.13L130.163 91.468H132.571Z" fill="#F8F8F8"/>
<defs>
<clipPath id="clip0_6758_4863">
<rect width="200" height="96" fill="white"/>
</clipPath>
</defs>
</svg>
