<svg width="242" height="358" viewBox="0 0 242 358" fill="none" xmlns="http://www.w3.org/2000/svg">
<path d="M236.568 96.4388L236.832 96.719C236.919 96.8129 237.005 96.908 237.09 97.0036L237.796 97.8108C252.524 114.844 260.15 136.901 259.067 159.419C258.276 175.872 252.88 191.633 243.676 204.992L332.263 300.172C353.279 275.372 367.021 244.003 369.868 209.132C377.116 120.361 311.029 42.5209 222.257 35.2724C207.726 34.0859 193.486 34.8653 179.803 37.3869L236.568 96.4388ZM48.397 182.884C41.1486 271.655 107.237 349.495 196.008 356.744C236.284 360.032 274.308 348.223 304.511 326.051L215.899 230.844C201.915 239.067 185.808 243.319 169.341 242.929C146.803 242.396 125.349 233.209 109.416 217.298L108.662 216.537C108.572 216.446 108.483 216.352 108.396 216.259L108.135 215.976L53.1488 154.952C50.7905 163.955 49.1807 173.286 48.397 182.884ZM113.953 65.8156C114.408 66.2 114.849 66.6088 115.274 67.0424L115.612 67.3963L216.677 175.983C219.309 170.25 220.856 164.016 221.165 157.596C221.784 144.713 217.379 132.098 208.888 122.399L139.698 50.4232C130.633 54.7575 122.015 59.9168 113.953 65.8156ZM136.012 190.228C145.077 199.392 157.345 204.688 170.239 204.994C176.665 205.146 182.994 204.05 188.901 201.836L87.8352 93.2489L87.5062 92.8859C87.0923 92.418 86.7052 91.9351 86.3457 91.439C79.8769 99.0219 74.0898 107.224 69.09 115.957L136.012 190.228ZM0.14299 56.5286C0.0389297 57.824 0.42096 58.9856 1.28996 60.0134L6.29037 65.8881C8.24684 68.1864 10.5222 69.9739 13.1158 71.2514C15.7096 72.5289 18.3858 73.2801 21.1436 73.5049C23.9013 73.7297 26.6436 73.416 29.3706 72.5629C32.0976 71.7098 34.6092 70.3045 36.9046 68.3476L46.4817 60.1957C47.8438 59.0362 49.2971 58.2197 50.8418 57.7475C52.3867 57.2752 53.9474 57.1044 55.5232 57.2342C57.0988 57.364 58.6325 57.7837 60.1234 58.4936C61.6144 59.2035 62.9381 60.2431 64.0938 61.6112L69.2025 67.6123C70.0721 68.6339 71.1578 69.1973 72.4596 69.3019C73.7611 69.4065 74.9211 69.0242 75.9395 68.1546C76.9578 67.2848 77.5213 66.1988 77.6291 64.8975C77.7369 63.596 77.3539 62.4352 76.4808 61.4165L71.3723 55.4144C69.4157 53.116 67.1023 51.3049 64.4331 49.9801C61.7638 48.6553 59.0502 47.8812 56.2922 47.6595C53.5343 47.4379 50.7732 47.751 48.0087 48.5979C45.2441 49.4448 42.7089 50.8874 40.4037 52.926L30.8266 61.0789C29.5496 62.1659 28.1388 62.944 26.5943 63.4131C25.0497 63.8822 23.4888 64.0548 21.9126 63.9313C20.3364 63.8077 18.8233 63.388 17.374 62.672C15.9248 61.9559 14.6563 60.9619 13.5688 59.6913L8.46017 53.6902C7.59056 52.6686 6.52363 52.1256 5.25979 52.062C3.99607 51.9986 2.853 52.4036 1.83124 53.2763C0.809586 54.149 0.247093 55.2333 0.14299 56.5286ZM1.99973 32.7091C1.85431 34.0456 2.21533 35.2241 3.08174 36.2454L8.1903 42.2475C10.1469 44.546 12.4219 46.3342 15.0156 47.6117C17.6095 48.8893 20.2857 49.6405 23.0434 49.8653C25.8011 50.0901 28.5437 49.7747 31.2708 48.9184C33.9981 48.0622 36.5096 46.6586 38.8045 44.708L48.3816 36.5551C49.7436 35.3958 51.197 34.5801 52.7417 34.1079C54.2865 33.6356 55.8473 33.4647 57.423 33.5946C58.9987 33.7244 60.5323 34.1441 62.0233 34.854C63.5142 35.5639 64.838 36.6026 65.9938 37.9706L71.1023 43.9727C71.9719 44.9943 73.0577 45.5577 74.3594 45.6623C75.6611 45.7669 76.821 45.3838 77.8394 44.514C78.8579 43.6441 79.4213 42.5584 79.529 41.2569C79.6367 39.9555 79.2537 38.7955 78.3807 37.7769L73.2721 31.7748C71.3155 29.4763 69.0211 27.6847 66.3898 26.401C63.7585 25.1174 61.0607 24.366 58.2963 24.147C55.5318 23.928 52.7512 24.2394 49.9554 25.0807C47.1597 25.9219 44.6089 27.324 42.3036 29.2863L32.7265 37.4383C31.4496 38.5252 30.0387 39.3034 28.4942 39.7725C26.9497 40.2416 25.3888 40.4142 23.8125 40.2907C22.2363 40.1671 20.7232 39.7474 19.274 39.0314C17.8248 38.3154 16.5561 37.3222 15.4687 36.0517L10.3601 30.0496C9.56298 29.1132 8.51624 28.5728 7.22097 28.4274C5.92581 28.2822 4.76568 28.6455 3.74079 29.5179C2.72562 30.3087 2.14521 31.3726 1.99973 32.7091ZM3.95612 9.07313C3.84846 10.4127 4.1931 11.5515 4.99024 12.4879L10.0902 18.6079C12.0467 20.9063 14.3218 22.6946 16.9155 23.9721C19.5093 25.2497 22.1856 26.0009 24.9433 26.2257C27.701 26.4505 30.4436 26.1341 33.1708 25.2779C35.898 24.4216 38.4095 23.0189 40.7044 21.0684L50.2815 12.9155C51.6435 11.756 53.1172 10.9412 54.703 10.4723C56.2887 10.0033 57.8682 9.83405 59.4407 9.96358C61.0133 10.0931 62.5265 10.5112 63.9797 11.218C65.4329 11.9248 66.7378 12.9628 67.8936 14.331L73.0022 20.3331C73.8718 21.3545 74.9389 21.8968 76.2026 21.9603C77.4663 22.0237 78.6094 21.6196 79.6311 20.747C80.5739 19.8711 81.116 18.8039 81.2583 17.5465C81.4006 16.2891 81.0354 15.1495 80.1628 14.1277L75.0542 8.1256C73.0976 5.827 70.8219 4.03708 68.2283 2.75638C65.6349 1.4758 62.9592 0.726284 60.2011 0.507766C57.4428 0.289265 54.6623 0.600725 51.8601 1.44144C49.0581 2.28215 46.5057 3.68317 44.2035 5.64575L34.5077 13.789C33.2307 14.8759 31.8199 15.6541 30.2753 16.1232C28.7309 16.5922 27.1707 16.7649 25.5946 16.6414C24.0183 16.5179 22.5054 16.0982 21.056 15.3822C19.6068 14.6661 18.3382 13.673 17.2508 12.4024L12.1422 6.40038C11.3451 5.46392 10.2985 4.92257 9.00313 4.77723C7.70782 4.6319 6.54787 4.99622 5.52288 5.86872C4.58651 6.66579 4.06383 7.73368 3.95612 9.07313Z" fill="#FFEDE4" fill-opacity="0.12"/>
</svg>
