<svg width="164" height="190" viewBox="0 0 164 190" fill="none" xmlns="http://www.w3.org/2000/svg">
<path d="M162 162V82C162 63.14 162 53.71 156.14 47.86C150.28 42 140.86 42 122 42H2V162C2 180.85 2 190.28 7.86 196.14C13.72 202 23.14 202 42 202H122C140.86 202 150.28 202 156.14 196.14C162 190.28 162 180.85 162 162Z" stroke="white" stroke-opacity="0.5" stroke-width="4" stroke-linecap="round" stroke-linejoin="round"/>
<path d="M82 92.0002C89.9565 92.0002 97.5871 95.1609 103.213 100.787C108.839 106.413 112 114.044 112 122M82 92.0002C74.0435 92.0002 66.4129 95.1609 60.7868 100.787C55.1607 106.413 52 114.044 52 122M82 92.0002V82.0002M112 122H52M112 122H122M52 122H42M42 162H122M2 42.0002L75.85 11.0602C92.34 4.15024 100.58 0.690242 107.15 2.46024C111.41 3.60495 115.172 6.12573 117.85 9.63024C122 15.0502 122 24.0302 122 42.0002" stroke="white" stroke-opacity="0.5" stroke-width="4" stroke-linecap="round" stroke-linejoin="round"/>
</svg>
