<svg width="40" height="40" viewBox="0 0 40 40" fill="none" xmlns="http://www.w3.org/2000/svg">
<path d="M13.5001 22.2337L18.2167 17.5171L6.51672 5.83375C5.26894 7.08637 4.56836 8.78237 4.56836 10.5504C4.56836 12.3185 5.26894 14.0145 6.51672 15.2671L13.5001 22.2337ZM24.8001 19.2171C27.35 20.4004 30.9334 19.5671 33.5834 16.9171C36.7667 13.7337 37.3834 9.16708 34.9334 6.71708C32.5 4.28375 27.9334 4.88375 24.7334 8.06708C22.0834 10.7171 21.25 14.3004 22.4334 16.8504L6.16672 33.1171L8.51672 35.4671L20.0001 24.0171L31.4667 35.4838L33.8167 33.1337L22.35 21.6671L24.8001 19.2171Z" fill="#FF4F00"/>
</svg>
