<svg width="120" height="120" viewBox="0 0 120 120" fill="none" xmlns="http://www.w3.org/2000/svg">
<path d="M74.9999 75.0001V70.0001H69.9999V75.0001H74.9999ZM101.465 108.535C102.408 109.446 103.671 109.95 104.982 109.938C106.293 109.927 107.547 109.401 108.474 108.474C109.401 107.547 109.927 106.293 109.938 104.982C109.95 103.671 109.446 102.408 108.535 101.465L101.465 108.535ZM74.9999 45.0001H69.9999V50.0001H74.9999V45.0001ZM108.535 18.5351C109.446 17.5921 109.95 16.3291 109.938 15.0181C109.927 13.7071 109.401 12.453 108.474 11.526C107.547 10.5989 106.293 10.0731 104.982 10.0617C103.671 10.0503 102.408 10.5543 101.465 11.4651L108.535 18.5351ZM44.9999 75.0001H49.9999V70.0001H44.9999V75.0001ZM11.4649 101.465C10.9874 101.926 10.6065 102.478 10.3444 103.088C10.0824 103.698 9.94443 104.354 9.93867 105.018C9.9329 105.682 10.0594 106.34 10.3108 106.955C10.5622 107.569 10.9335 108.128 11.4029 108.597C11.8724 109.067 12.4307 109.438 13.0451 109.689C13.6596 109.941 14.318 110.067 14.9819 110.061C15.6458 110.056 16.3019 109.918 16.9119 109.656C17.522 109.394 18.0737 109.013 18.5349 108.535L11.4649 101.465ZM44.9999 45.0001V50.0001H49.9999V45.0001H44.9999ZM18.5349 11.4651C17.5919 10.5543 16.3289 10.0503 15.0179 10.0617C13.7069 10.0731 12.4529 10.5989 11.5258 11.526C10.5988 12.453 10.0729 13.7071 10.0615 15.0181C10.0502 16.3291 10.5541 17.5921 11.4649 18.5351L18.5349 11.4651ZM79.9999 100V75.0001H69.9999V100H79.9999ZM74.9999 80.0001H99.9999V70.0001H74.9999V80.0001ZM71.4649 78.5351L101.465 108.535L108.535 101.465L78.5349 71.4651L71.4649 78.5351ZM69.9999 20.0001V45.0001H79.9999V20.0001H69.9999ZM74.9999 50.0001H99.9999V40.0001H74.9999V50.0001ZM78.5349 48.5351L108.535 18.5351L101.465 11.4651L71.4649 41.4651L78.5349 48.5351ZM49.9999 100V75.0001H39.9999V100H49.9999ZM44.9999 70.0001H19.9999V80.0001H44.9999V70.0001ZM41.4649 71.4651L11.4649 101.465L18.5349 108.535L48.5349 78.5351L41.4649 71.4651ZM39.9999 20.0001V45.0001H49.9999V20.0001H39.9999ZM44.9999 40.0001H19.9999V50.0001H44.9999V40.0001ZM48.5349 41.4651L18.5349 11.4651L11.4649 18.5351L41.4649 48.5351L48.5349 41.4651Z" fill="white" fill-opacity="0.5"/>
</svg>
