<svg width="44" height="44" viewBox="0 0 44 44" fill="none" xmlns="http://www.w3.org/2000/svg">
<path d="M22.0003 3.66699C11.917 3.66699 3.66699 11.917 3.66699 22.0003C3.66699 32.0837 11.917 40.3337 22.0003 40.3337C32.0837 40.3337 40.3337 32.0837 40.3337 22.0003C40.3337 11.917 32.0837 3.66699 22.0003 3.66699ZM22.0003 36.667C13.9153 36.667 7.33366 30.0853 7.33366 22.0003C7.33366 13.9153 13.9153 7.33366 22.0003 7.33366C30.0853 7.33366 36.667 13.9153 36.667 22.0003C36.667 30.0853 30.0853 36.667 22.0003 36.667ZM30.4153 13.897L18.3337 25.9787L13.5853 21.2487L11.0003 23.8337L18.3337 31.167L33.0003 16.5003L30.4153 13.897Z" fill="#FF4F00"/>
</svg>
