<svg width="481" height="481" viewBox="0 0 481 481" fill="none" xmlns="http://www.w3.org/2000/svg">
<circle cx="240.5" cy="240.5" r="240.5" fill="#FF4F00"/>
<path d="M348 91H158C151.372 91.0079 145.018 93.6444 140.331 98.3311C135.644 103.018 133.008 109.372 133 116V216H143V116C143 112.022 144.58 108.206 147.393 105.393C150.206 102.58 154.022 101 158 101H218V111C218 113.652 219.054 116.196 220.929 118.071C222.804 119.946 225.348 121 228 121H278C280.652 121 283.196 119.946 285.071 118.071C286.946 116.196 288 113.652 288 111V101H348C351.978 101 355.794 102.58 358.607 105.393C361.42 108.206 363 112.022 363 116V366C363 369.978 361.42 373.794 358.607 376.607C355.794 379.42 351.978 381 348 381H158C154.022 381 150.206 379.42 147.393 376.607C144.58 373.794 143 369.978 143 366V286H133V366C133.008 372.628 135.644 378.982 140.331 383.669C145.018 388.356 151.372 390.992 158 391H348C354.628 390.992 360.982 388.356 365.669 383.669C370.356 378.982 372.992 372.628 373 366V116C372.992 109.372 370.356 103.018 365.669 98.3311C360.982 93.6444 354.628 91.0079 348 91ZM278 111H228V101H278V111Z" fill="white"/>
<path d="M238 356C238 358.967 238.88 361.867 240.528 364.334C242.176 366.8 244.519 368.723 247.26 369.858C250.001 370.993 253.017 371.291 255.926 370.712C258.836 370.133 261.509 368.704 263.607 366.607C265.704 364.509 267.133 361.836 267.712 358.926C268.291 356.017 267.993 353.001 266.858 350.26C265.723 347.519 263.8 345.176 261.334 343.528C258.867 341.88 255.967 341 253 341C249.022 341 245.206 342.58 242.393 345.393C239.58 348.206 238 352.022 238 356ZM258 356C258 356.989 257.707 357.956 257.157 358.778C256.608 359.6 255.827 360.241 254.913 360.619C254 360.998 252.994 361.097 252.025 360.904C251.055 360.711 250.164 360.235 249.464 359.536C248.765 358.836 248.289 357.945 248.096 356.975C247.903 356.006 248.002 355 248.381 354.087C248.759 353.173 249.4 352.392 250.222 351.843C251.044 351.293 252.011 351 253 351C254.326 351 255.598 351.527 256.536 352.464C257.473 353.402 258 354.674 258 356Z" fill="white"/>
<path d="M184.57 226H178C174.022 226 170.206 227.58 167.393 230.393C164.58 233.206 163 237.022 163 241C163 244.978 164.58 248.794 167.393 251.607C170.206 254.42 174.022 256 178 256H179.095L182.2 268.42C182.74 270.585 183.989 272.507 185.747 273.881C187.506 275.255 189.674 276.001 191.905 276H198.905C198.318 277.602 198.012 279.294 198 281C198 284.978 199.58 288.794 202.393 291.607C205.206 294.42 209.022 296 213 296C216.978 296 220.794 294.42 223.607 291.607C226.42 288.794 228 284.978 228 281C227.983 279.293 227.672 277.601 227.08 276H288.92C288.328 277.601 288.017 279.293 288 281C288 284.978 289.58 288.794 292.393 291.607C295.206 294.42 299.022 296 303 296C306.978 296 310.794 294.42 313.607 291.607C316.42 288.794 318 284.978 318 281C317.983 279.293 317.672 277.601 317.08 276H324.08C326.311 276.001 328.479 275.255 330.238 273.881C331.996 272.507 333.245 270.585 333.785 268.42L336.905 256H338C341.978 256 345.794 254.42 348.607 251.607C351.42 248.794 353 244.978 353 241C353 237.022 351.42 233.206 348.607 230.393C345.794 227.58 341.978 226 338 226H331.43C328.39 211.385 321.08 198.001 310.428 187.544C299.775 177.086 286.259 170.025 271.59 167.255C272.511 165.298 272.992 163.163 273 161C273 157.022 271.42 153.206 268.607 150.393C265.794 147.58 261.978 146 258 146C254.022 146 250.206 147.58 247.393 150.393C244.58 153.206 243 157.022 243 161C243.008 163.163 243.489 165.298 244.41 167.255C229.741 170.025 216.225 177.086 205.572 187.544C194.92 198.001 187.61 211.385 184.57 226ZM218 281C218 281.989 217.707 282.956 217.157 283.778C216.608 284.6 215.827 285.241 214.913 285.619C214 285.998 212.994 286.097 212.025 285.904C211.055 285.711 210.164 285.235 209.464 284.536C208.765 283.836 208.289 282.945 208.096 281.975C207.903 281.006 208.002 280 208.381 279.087C208.759 278.173 209.4 277.392 210.222 276.843C211.044 276.293 212.011 276 213 276C214.326 276 215.598 276.527 216.536 277.464C217.473 278.402 218 279.674 218 281ZM308 281C308 281.989 307.707 282.956 307.157 283.778C306.608 284.6 305.827 285.241 304.913 285.619C304 285.998 302.994 286.097 302.025 285.904C301.055 285.711 300.164 285.235 299.464 284.536C298.765 283.836 298.289 282.945 298.096 281.975C297.903 281.006 298.002 280 298.381 279.087C298.759 278.173 299.4 277.392 300.222 276.843C301.044 276.293 302.011 276 303 276C304.326 276 305.598 276.527 306.536 277.464C307.473 278.402 308 279.674 308 281ZM324.095 266H191.905L189.405 256H326.595L324.095 266ZM343 241C343 242.326 342.473 243.598 341.536 244.536C340.598 245.473 339.326 246 338 246H178C176.674 246 175.402 245.473 174.464 244.536C173.527 243.598 173 242.326 173 241C173 239.674 173.527 238.402 174.464 237.464C175.402 236.527 176.674 236 178 236H338C339.326 236 340.598 236.527 341.536 237.464C342.473 238.402 343 239.674 343 241ZM253 161C253 160.011 253.293 159.044 253.843 158.222C254.392 157.4 255.173 156.759 256.087 156.381C257 156.002 258.006 155.903 258.975 156.096C259.945 156.289 260.836 156.765 261.536 157.464C262.235 158.164 262.711 159.055 262.904 160.025C263.097 160.994 262.998 162 262.619 162.913C262.241 163.827 261.6 164.608 260.778 165.157C259.956 165.707 258.989 166 258 166C256.674 166 255.402 165.473 254.464 164.536C253.527 163.598 253 162.326 253 161ZM258 176C272.618 176.056 286.795 181.013 298.263 190.077C309.732 199.142 317.829 211.79 321.26 226H194.76C198.19 211.794 206.284 199.147 217.749 190.083C229.213 181.019 243.385 176.06 258 176Z" fill="white"/>
<path d="M305.64 213.5C303.326 209.494 300.514 205.798 297.27 202.5L290.14 209.5C292.794 212.201 295.098 215.225 297 218.5L305.64 213.5Z" fill="white"/>
<path d="M285.5 193.365C277.14 188.537 267.655 185.996 258 186V196C265.897 195.991 273.656 198.061 280.5 202L285.5 193.365Z" fill="white"/>
<path d="M153 266H113V276H153V266Z" fill="white"/>
<path d="M103 266H93V276H103V266Z" fill="white"/>
<path d="M153 246H123V256H153V246Z" fill="white"/>
<path d="M153 226H133V236H153V226Z" fill="white"/>
<path d="M113 246H103V256H113V246Z" fill="white"/>
</svg>
