<svg width="120" height="120" viewBox="0 0 120 120" fill="none" xmlns="http://www.w3.org/2000/svg">
<path d="M59.9746 3.37324C59.5816 3.37519 59.1929 3.45488 58.8309 3.60772C58.4689 3.76057 58.1407 3.98354 57.8652 4.2638C57.5897 4.54405 57.3724 4.87605 57.2258 5.24066C57.0792 5.60527 57.0062 5.99529 57.011 6.38824V25.0204C57.011 26.7282 58.3182 28.0332 59.9746 28.0332C61.6825 28.0332 62.9875 26.7261 62.9875 25.0204V6.38609C62.9875 4.72752 61.6825 3.37109 59.9746 3.37109M45.1589 4.72752C43.5025 5.07895 42.5982 6.53609 43.0503 8.44324L44.7068 14.7732C45.1589 16.329 46.766 17.184 48.6239 16.6311C50.381 16.0782 51.0346 14.6725 50.5825 13.0654L48.8253 6.98824C48.3239 5.17967 46.8175 4.42538 45.161 4.72752M74.8439 4.87752C73.2367 4.32681 71.6296 5.12824 71.1775 6.98824L69.4696 13.1661C69.0175 14.7732 69.8703 16.4297 71.4775 16.8304C73.136 17.2332 74.7432 16.3804 75.1953 14.7218L76.8517 8.54395C77.3039 6.83609 76.4017 5.32752 74.8439 4.87752ZM31.6996 10.9075C31.0098 11.3098 30.5066 11.9681 30.2996 12.7394C30.0925 13.5106 30.1983 14.3324 30.5939 15.0261L39.9367 31.1982C40.1225 31.5466 40.3776 31.8532 40.6863 32.0993C40.995 32.3453 41.3508 32.5256 41.7318 32.629C42.1128 32.7324 42.511 32.7567 42.9017 32.7004C43.2924 32.6441 43.6675 32.5085 44.0039 32.3018C45.461 31.4982 45.9625 29.6897 45.0582 28.2347L35.7668 12.0132C34.9139 10.6054 33.1568 10.1532 31.6996 10.9075ZM88.3503 10.9568C86.8932 10.1532 85.0375 10.6054 84.2339 12.0111L74.891 28.2325C74.6868 28.57 74.5533 28.9454 74.4984 29.3361C74.4436 29.7267 74.4686 30.1244 74.572 30.505C74.6754 30.8857 74.8549 31.2414 75.0998 31.5506C75.3447 31.8598 75.6499 32.1161 75.9967 32.3039C77.4025 33.1568 79.211 32.7047 80.0639 31.1982L89.3575 15.0261C90.2125 13.569 89.7582 11.8118 88.3503 10.9568ZM19.5453 19.5968C18.341 20.7518 18.491 22.6611 19.5946 23.8139L24.0646 28.3354C25.3203 29.5911 27.0282 29.6404 28.3353 28.3847C29.4389 27.2297 29.5396 25.4211 28.2839 24.1161L23.8139 19.6461C22.5068 18.339 20.801 18.3904 19.5453 19.5968ZM100.404 19.6461C99.2489 18.4418 97.3396 18.5404 96.236 19.6461L91.6653 24.1675C90.4096 25.4725 90.4096 27.1804 91.616 28.3847C92.8718 29.6404 94.6803 29.6404 95.8353 28.4361L100.305 23.9147C101.559 22.6075 101.61 20.8504 100.404 19.6461ZM10.9568 31.6504C10.5662 32.3397 10.4579 33.1535 10.6545 33.921C10.8511 34.6885 11.3372 35.35 12.011 35.7668L28.1832 45.1097C29.6896 45.9625 31.4982 45.4611 32.3018 44.0554C32.5094 43.715 32.6458 43.3361 32.7027 42.9414C32.7595 42.5468 32.7356 42.1448 32.6324 41.7596C32.5292 41.3745 32.3489 41.0144 32.1024 40.701C31.8558 40.3877 31.5482 40.1277 31.1982 39.9368L15.026 30.594C13.5689 29.7904 11.8118 30.2425 10.9568 31.6504ZM109.044 31.6997C108.238 30.2425 106.432 29.7925 104.975 30.594L88.8025 39.9368C88.4524 40.1277 88.1448 40.3877 87.8983 40.701C87.6517 41.0144 87.4714 41.3745 87.3682 41.7596C87.265 42.1448 87.2411 42.5468 87.298 42.9414C87.3548 43.3361 87.4912 43.715 87.6989 44.0554C88.5025 45.4611 90.2596 45.9625 91.766 45.1097L107.938 35.7668C109.395 34.9139 109.845 33.1568 109.044 31.6997ZM115.22 45.2597C114.819 43.6032 113.111 42.6475 111.605 43.0997L105.326 44.8075C103.719 45.2597 102.714 46.8175 103.318 48.6754C103.719 49.9825 105.125 51.0347 106.884 50.5825L113.012 48.8768C114.718 48.4247 115.622 46.8175 115.22 45.2597ZM4.72961 45.2104C4.37818 46.8175 5.38318 48.4247 6.88961 48.8747L13.0675 50.6318C14.7239 51.0347 16.3803 50.1325 16.7318 48.4739C17.0853 46.8668 16.331 45.1589 14.6746 44.7582L8.49675 43.2004C6.68818 42.7504 5.03175 43.6525 4.72961 45.2104ZM116.627 59.9747C116.626 59.5817 116.546 59.193 116.393 58.831C116.24 58.4689 116.017 58.1407 115.737 57.8652C115.457 57.5898 115.125 57.3725 114.76 57.2259C114.395 57.0793 114.005 57.0063 113.612 57.0111H94.931C93.2232 57.0111 91.9675 58.3182 91.9675 59.9747C91.9675 61.6825 93.2232 62.9897 94.931 62.9897H113.612C115.271 62.9897 116.627 61.6825 116.627 59.9747ZM3.37318 59.9747C3.37318 61.6825 4.68032 62.9897 6.33675 62.9897H25.0203C26.7282 62.9897 28.0332 61.6825 28.0332 59.9747C28.0332 58.3182 26.726 57.0111 25.0203 57.0111H6.33675C5.94653 57.0074 5.55949 57.0815 5.19825 57.2291C4.83702 57.3767 4.50884 57.5949 4.2329 57.8708C3.95696 58.1467 3.73881 58.4749 3.59119 58.8362C3.44357 59.1974 3.36946 59.5844 3.37318 59.9747ZM115.22 74.9425C115.672 73.2347 114.87 71.6768 113.111 71.1754L106.884 69.4182C105.227 68.9661 103.67 69.9197 103.22 71.5268C102.815 73.1832 103.719 74.8911 105.326 75.294L111.455 76.9011C113.212 77.3511 114.77 76.449 115.22 74.9425ZM4.72961 74.7925C5.13032 76.3997 6.88961 77.2525 8.44532 76.9011L14.6232 75.3432C16.3803 74.8932 17.2353 73.3354 16.7339 71.6789C16.5268 70.9108 16.027 70.2543 15.3416 69.8501C14.6563 69.446 13.8399 69.3263 13.0675 69.5168L6.99032 71.1754C5.18175 71.6768 4.37604 73.2347 4.72961 74.7925ZM109.044 88.299C109.847 86.8932 109.393 85.0847 107.938 84.2318L91.766 74.8889C91.4266 74.6869 91.0506 74.5539 90.6596 74.4976C90.2687 74.4413 89.8704 74.4627 89.4878 74.5606C89.1051 74.6586 88.7455 74.8311 88.4297 75.0684C88.1139 75.3057 87.8481 75.603 87.6475 75.9432C87.4497 76.2888 87.3226 76.6703 87.2738 77.0655C87.2249 77.4607 87.2552 77.8617 87.3629 78.245C87.4706 78.6284 87.6536 78.9865 87.9011 79.2984C88.1486 79.6103 88.4558 79.8698 88.8046 80.0618L104.975 89.4047C106.432 90.2082 108.189 89.7561 109.044 88.299ZM10.9568 88.299C11.7603 89.7561 13.5689 90.2061 15.026 89.4047L31.1982 80.0618C32.7046 79.209 33.1568 77.4004 32.3018 75.9947C31.4982 74.5375 29.6896 74.0361 28.1832 74.8889L12.011 84.2318C10.6053 85.0847 10.1532 86.8418 10.9568 88.299ZM31.6996 109.042C33.1053 109.845 34.9139 109.393 35.7668 107.936L45.0582 91.7639C45.2681 91.4291 45.4087 91.0555 45.4718 90.6654C45.5348 90.2752 45.5191 89.8764 45.4254 89.4924C45.3317 89.1085 45.162 88.7472 44.9263 88.43C44.6906 88.1127 44.3937 87.8459 44.0532 87.6454C42.596 86.8418 40.7403 87.294 39.9367 88.8025L30.5939 104.973C29.7903 106.43 30.2425 108.187 31.6996 109.042ZM88.301 109.042C89.7582 108.238 90.2082 106.43 89.3553 104.973L80.0639 88.8004C79.8759 88.4543 79.6207 88.1493 79.3132 87.9032C79.0057 87.6571 78.6521 87.4749 78.2733 87.3674C77.8944 87.2598 77.4979 87.2289 77.107 87.2767C76.716 87.3244 76.3386 87.4498 75.9967 87.6454C74.5396 88.5004 74.0382 90.3068 74.891 91.7639L84.2339 107.936C85.0375 109.393 86.8439 109.843 88.301 109.042ZM100.355 100.453C101.61 99.1975 101.559 97.2882 100.455 96.1847L95.8846 91.6632C94.6289 90.5082 92.8203 90.3582 91.5646 91.6632C90.4096 92.919 90.461 94.6268 91.616 95.8332L96.1375 100.353C97.391 101.608 99.1996 101.66 100.355 100.453ZM19.5946 100.404C20.8503 101.608 22.6096 101.608 23.7646 100.503L28.3353 95.9832C29.5396 94.6761 29.5889 92.9704 28.3846 91.7639C27.1803 90.5597 25.3203 90.5082 24.116 91.7147L19.646 96.2361C18.3903 97.5389 18.3389 99.1997 19.5946 100.404ZM59.9746 116.623C61.6825 116.623 62.9875 115.267 62.9875 113.61V94.9761C62.995 94.5784 62.9223 94.1832 62.7735 93.8142C62.6248 93.4453 62.4032 93.1101 62.1219 92.8288C61.8406 92.5475 61.5054 92.3259 61.1365 92.1772C60.7675 92.0284 60.3723 91.9557 59.9746 91.9632C58.3182 91.9632 57.011 93.2704 57.011 94.9761V113.61C57.011 115.267 58.3182 116.623 59.9746 116.623ZM74.8418 115.267C76.7489 114.815 77.3018 113.158 76.8989 111.6L75.2918 105.273C74.8418 103.665 73.1339 102.761 71.5267 103.213C69.7182 103.715 69.0153 105.373 69.4675 106.878L71.2246 113.006C71.7282 114.665 73.0332 115.62 74.8418 115.267ZM44.9082 115.218C46.766 115.818 48.4225 114.714 48.8253 113.158L50.5332 106.98C50.9832 105.373 50.081 103.715 48.4739 103.314C46.8175 102.911 45.2103 103.764 44.7582 105.423L43.151 111.6C42.6989 113.308 43.2496 114.714 44.9082 115.218Z" fill="white" fill-opacity="0.24"/>
</svg>
