<svg width="240" height="46" viewBox="0 0 240 46" fill="none" xmlns="http://www.w3.org/2000/svg">
<g clip-path="url(#clip0_10931_10705)">
<path d="M60.4648 14.4982V2.17017H68.6729V14.4982H76.881V22.7159H68.6729V26.8262C68.6729 29.0937 69.4756 31.0311 71.0783 32.6357C72.681 34.2403 74.6161 35.0439 76.881 35.0439V43.2617C74.6999 43.2617 72.6053 42.845 70.5972 42.0089C68.5864 41.1755 66.8134 39.9876 65.2756 38.4452C63.7378 36.9029 62.5513 35.1278 61.7161 33.1146C60.8837 31.1042 60.4648 29.0044 60.4648 26.8235V22.7132H56.3594V14.4955H60.4648V14.4982Z" fill="white"/>
<path d="M87.881 26.8262V43.2617H79.6729V26.8262C79.6729 24.6425 80.0891 22.5455 80.9242 20.535C81.7566 18.5245 82.9431 16.7468 84.4837 15.2044C86.0215 13.6648 87.7972 12.4769 89.8053 11.6408C91.8134 10.8074 93.9107 10.3879 96.0891 10.3879V18.6057C93.8242 18.6057 91.8891 19.4094 90.2864 21.0139C88.6837 22.6185 87.881 24.5559 87.881 26.8235V26.8262Z" fill="white"/>
<path d="M112.673 43.2617C110.492 43.2617 108.397 42.845 106.389 42.0089C104.378 41.1755 102.605 39.9876 101.068 38.4453C99.5298 36.9029 98.3433 35.1278 97.5082 33.1147C96.6758 31.1042 96.2568 29.0044 96.2568 26.8235C96.2568 24.6425 96.6731 22.5428 97.5082 20.5323C98.3406 18.5218 99.5271 16.7441 101.068 15.2017C102.605 13.6621 104.381 12.4742 106.389 11.6381C108.397 10.8047 110.495 10.3853 112.673 10.3853C114.851 10.3853 116.949 10.802 118.957 11.6381C120.965 12.4715 122.741 13.6594 124.278 15.2017C125.816 16.7441 127.003 18.5191 127.838 20.5323C128.67 22.5455 129.089 24.6425 129.089 26.8235C129.089 29.0044 128.673 31.1042 127.838 33.1147C127.005 35.1278 125.819 36.9029 124.278 38.4453C122.741 39.9849 120.965 41.1728 118.957 42.0089C116.946 42.8423 114.851 43.2617 112.673 43.2617ZM112.673 35.044C114.938 35.044 116.873 34.2403 118.476 32.6357C120.078 31.0311 120.881 29.0937 120.881 26.8262C120.881 24.5587 120.078 22.6213 118.476 21.0167C116.873 19.4121 114.938 18.6084 112.673 18.6084C110.408 18.6084 108.473 19.4121 106.87 21.0167C105.268 22.6213 104.465 24.5587 104.465 26.8262C104.465 29.0937 105.268 31.0311 106.87 32.6357C108.473 34.2403 110.408 35.044 112.673 35.044Z" fill="white"/>
<path d="M146.984 43.2617C144.803 43.2617 142.708 42.845 140.7 42.0089C138.689 41.1755 136.916 39.9876 135.378 38.4453C133.84 36.9029 132.654 35.1278 131.819 33.1147C130.986 31.1042 130.567 29.0044 130.567 26.8235C130.567 24.6425 130.984 22.5428 131.819 20.5323C132.651 18.5218 133.838 16.7441 135.378 15.2017C136.916 13.6621 138.692 12.4742 140.7 11.6381C142.708 10.8047 144.805 10.3853 146.984 10.3853C149.162 10.3853 151.259 10.802 153.267 11.6381C155.275 12.4715 157.051 13.6594 158.589 15.2017C160.127 16.7441 161.313 18.5191 162.148 20.5323C162.981 22.5455 163.4 24.6425 163.4 26.8235C163.4 29.0044 162.984 31.1042 162.148 33.1147C161.316 35.1278 160.13 36.9029 158.589 38.4453C157.051 39.9849 155.275 41.1728 153.267 42.0089C151.257 42.8423 149.162 43.2617 146.984 43.2617ZM146.984 35.044C149.248 35.044 151.184 34.2403 152.786 32.6357C154.389 31.0311 155.192 29.0937 155.192 26.8262C155.192 24.5587 154.389 22.6213 152.786 21.0167C151.184 19.4121 149.248 18.6084 146.984 18.6084C144.719 18.6084 142.784 19.4121 141.181 21.0167C139.578 22.6213 138.775 24.5587 138.775 26.8262C138.775 29.0937 139.578 31.0311 141.181 32.6357C142.784 34.2403 144.719 35.044 146.984 35.044Z" fill="white"/>
<path d="M177.295 28.0349L177.281 29.2817H175.605V19.6503H177.334V23.7013C177.722 22.9243 178.526 22.3875 179.599 22.3875C181.486 22.3875 182.682 23.9168 182.682 25.9158C182.682 27.9148 181.49 29.43 179.574 29.43C178.435 29.43 177.659 28.8543 177.295 28.0349ZM180.939 25.9158C180.939 24.7891 180.311 23.8779 179.13 23.8779C177.948 23.8779 177.334 24.7891 177.334 25.9158C177.334 27.0425 177.951 27.9396 179.13 27.9396C180.308 27.9396 180.939 27.0425 180.939 25.9158Z" fill="white"/>
<path d="M189.593 29.2816H187.946L187.931 28.1691C187.624 28.8684 186.954 29.4017 185.949 29.4017C184.517 29.4017 183.67 28.4375 183.67 26.9753V22.5358H185.398V26.5586C185.398 27.3356 185.772 27.8583 186.563 27.8583C187.353 27.8583 187.861 27.3638 187.861 26.3043V22.5358H189.589V29.2816H189.593Z" fill="white"/>
<path d="M191.054 19.6538H192.807V21.4515H191.054V19.6538ZM191.068 22.5393H192.796V29.2852H191.068V22.5393Z" fill="white"/>
<path d="M194.271 19.6538H195.999V29.2852H194.271V19.6538Z" fill="white"/>
<path d="M201.276 22.5358V23.9309H199.442V26.8023C199.442 27.5405 199.805 27.8336 200.553 27.8336C200.783 27.8336 201.09 27.7665 201.329 27.6464V29.0415C201.061 29.257 200.511 29.3629 200.042 29.3629C198.49 29.3629 197.71 28.5294 197.71 27.1767V23.9309H196.8V23.5565L198.916 21.0771H199.439V22.5393H201.273L201.276 22.5358Z" fill="white"/>
<path d="M207.33 19.5867C207.732 19.5867 208.12 19.6538 208.335 19.788L208.603 21.2361C208.388 21.1548 208.12 21.1018 207.785 21.1018C207.115 21.1018 206.755 21.3703 206.755 22.0272V22.5358H208.469V23.9309H206.755V29.2816H205.026V23.9309H203.915L204.155 22.5358H205.026V22.0131C205.026 20.067 206.406 19.5867 207.33 19.5867Z" fill="white"/>
<path d="M215.931 25.9016C215.931 27.9289 214.59 29.4971 212.315 29.4971C210.039 29.4971 208.695 27.9289 208.695 25.9016C208.695 23.8743 210.036 22.3203 212.315 22.3203C214.594 22.3203 215.931 23.8885 215.931 25.9016ZM210.438 25.9016C210.438 27.0177 211.08 27.996 212.315 27.996C213.549 27.996 214.191 27.0177 214.191 25.9016C214.191 24.7856 213.549 23.8214 212.315 23.8214C211.08 23.8214 210.438 24.7856 210.438 25.9016Z" fill="white"/>
<path d="M220.111 24.2523C219.292 24.2523 218.731 24.6796 218.731 25.944V29.2816H217.003V22.5358H218.636L218.65 23.998C218.947 23.1115 219.493 22.4298 220.46 22.4298C220.767 22.4298 221.077 22.5358 221.264 22.7406L220.943 24.4712C220.718 24.337 220.407 24.2558 220.114 24.2558L220.111 24.2523Z" fill="white"/>
<path d="M178.717 38.0442C177.899 38.0442 177.338 38.4716 177.338 39.736V43.0736H175.609V36.3278H177.243L177.257 37.79C177.553 36.9035 178.1 36.2218 179.067 36.2218C179.377 36.2218 179.684 36.3278 179.871 36.5326L179.55 38.2632C179.324 38.129 179.014 38.0478 178.721 38.0478L178.717 38.0442Z" fill="white"/>
<path d="M184.048 43.2468C181.395 43.2468 180.068 41.7457 180.068 39.6796C180.068 37.79 181.303 36.1548 183.483 36.1548C185.385 36.1548 186.496 37.7088 186.496 39.5207C186.496 39.7608 186.482 40.0964 186.443 40.3118H181.86C182.076 41.2654 182.838 41.7881 184.231 41.7881C184.982 41.7881 185.744 41.5585 186.185 41.2371V42.7523C185.702 43.0737 184.767 43.2468 184.041 43.2468H184.048ZM183.42 37.5993C182.548 37.5993 181.987 38.175 181.839 39.1039H184.813C184.707 38.1927 184.196 37.5993 183.42 37.5993Z" fill="white"/>
<path d="M191.671 38.1255C191.163 37.7617 190.532 37.631 190.048 37.631C189.353 37.631 189.018 37.8429 189.018 38.2067C189.018 38.4751 189.138 38.6093 189.646 38.8107L190.719 39.2415C191.696 39.63 192.232 40.1139 192.232 41.0922C192.232 42.4485 191.174 43.2643 189.54 43.2643C188.789 43.2643 187.893 43.0772 187.463 42.6745V41.117C188.214 41.6679 188.948 41.8163 189.551 41.8163C190.207 41.8163 190.542 41.6008 190.542 41.2123C190.542 40.9156 190.369 40.8097 189.858 40.6084L188.761 40.1775C187.875 39.8314 187.314 39.3334 187.314 38.2985C187.314 37.0377 188.373 36.1653 190.182 36.1653C190.877 36.1653 191.601 36.3383 192.045 36.6597L191.671 38.1219V38.1255Z" fill="white"/>
<path d="M197.082 36.3278V37.7229H195.248V40.5943C195.248 41.3325 195.611 41.6256 196.359 41.6256C196.588 41.6256 196.895 41.5585 197.135 41.4384V42.8335C196.867 43.0489 196.317 43.1549 195.847 43.1549C194.295 43.1549 193.516 42.3214 193.516 40.9687V37.7229H192.605V37.3485L194.722 34.8691H195.244V36.3313H197.079L197.082 36.3278Z" fill="white"/>
<path d="M203.299 43.0737H201.68L201.665 41.947C201.359 42.7241 200.766 43.1797 199.884 43.1797C198.558 43.1797 197.729 42.2543 197.729 41.1665C197.729 39.3158 199.362 39.0756 200.716 38.952L201.602 38.8708V38.7224C201.602 38.0373 200.946 37.677 200.007 37.677C199.298 37.677 198.614 37.8642 197.958 38.228L198.374 36.6457C199.03 36.3102 199.739 36.2042 200.395 36.2042C201.962 36.2042 203.302 36.9424 203.302 38.6836V43.0702L203.299 43.0737ZM200.445 41.8128C201.062 41.8128 201.595 41.3042 201.595 40.4707V40.001L200.642 40.0963C199.838 40.1776 199.45 40.4177 199.45 40.9687C199.45 41.4385 199.757 41.8128 200.441 41.8128H200.445Z" fill="white"/>
<path d="M210.491 43.0736H208.844L208.83 41.9611C208.523 42.6604 207.853 43.1937 206.847 43.1937C205.415 43.1937 204.568 42.2295 204.568 40.7673V36.3278H206.297V40.3506C206.297 41.1276 206.671 41.6503 207.461 41.6503C208.251 41.6503 208.759 41.1558 208.759 40.0963V36.3278H210.488V43.0736H210.491Z" fill="white"/>
<path d="M215.074 38.0442C214.255 38.0442 213.694 38.4716 213.694 39.736V43.0736H211.966V36.3278H213.599L213.613 37.79C213.91 36.9035 214.456 36.2218 215.423 36.2218C215.733 36.2218 216.04 36.3278 216.227 36.5326L215.906 38.2632C215.681 38.129 215.37 38.0478 215.077 38.0478L215.074 38.0442Z" fill="white"/>
<path d="M221.946 43.0737H220.327L220.313 41.947C220.006 42.7241 219.413 43.1797 218.531 43.1797C217.205 43.1797 216.376 42.2543 216.376 41.1665C216.376 39.3158 218.009 39.0756 219.364 38.952L220.249 38.8708V38.7224C220.249 38.0373 219.593 37.677 218.655 37.677C217.946 37.677 217.261 37.8642 216.605 38.228L217.022 36.6457C217.678 36.3102 218.387 36.2042 219.043 36.2042C220.609 36.2042 221.95 36.9424 221.95 38.6836V43.0702L221.946 43.0737ZM219.092 41.8128C219.71 41.8128 220.242 41.3042 220.242 40.4707V40.001L219.29 40.0963C218.486 40.1776 218.098 40.4177 218.098 40.9687C218.098 41.4385 218.404 41.8128 219.089 41.8128H219.092Z" fill="white"/>
<path d="M226.342 37.7477C225.509 37.7477 225.029 38.2845 225.029 39.277V43.0737H223.301V36.3278H224.976L224.991 37.4263C225.354 36.6634 226.063 36.2042 226.998 36.2042C228.405 36.2042 229.249 37.1684 229.249 38.6306V43.0702H227.52V39.0721C227.52 38.281 227.146 37.7441 226.342 37.7441V37.7477Z" fill="white"/>
<path d="M234.444 36.3278V37.7229H232.61V40.5943C232.61 41.3325 232.973 41.6256 233.721 41.6256C233.951 41.6256 234.257 41.5585 234.497 41.4384V42.8335C234.229 43.0489 233.679 43.1549 233.21 43.1549C231.658 43.1549 230.878 42.3214 230.878 40.9687V37.7229H229.968V37.3485L232.084 34.8691H232.606V36.3313H234.441L234.444 36.3278Z" fill="white"/>
<path d="M239.538 38.1255C239.03 37.7617 238.399 37.631 237.916 37.631C237.221 37.631 236.886 37.8429 236.886 38.2067C236.886 38.4751 237.005 38.6093 237.513 38.8107L238.586 39.2415C239.563 39.63 240.099 40.1139 240.099 41.0922C240.099 42.4485 239.041 43.2643 237.408 43.2643C236.656 43.2643 235.76 43.0772 235.33 42.6745V41.117C236.081 41.6679 236.815 41.8163 237.418 41.8163C238.074 41.8163 238.41 41.6008 238.41 41.2123C238.41 40.9156 238.237 40.8097 237.725 40.6084L236.628 40.1775C235.743 39.8314 235.182 39.3334 235.182 38.2985C235.182 37.0377 236.24 36.1653 238.05 36.1653C238.745 36.1653 239.468 36.3383 239.912 36.6597L239.538 38.1219V38.1255Z" fill="white"/>
<path d="M171.309 18.4H169.884V43.2608H171.309V18.4Z" fill="white"/>
<path d="M-0.000226985 27.0264C2.13761 37.8337 11.6565 45.9838 23.0809 45.9838C36.0809 45.9838 46.616 35.4336 46.616 22.421C46.616 12.5635 40.5727 4.12381 31.9917 0.611572C37.9538 4.49181 41.8944 11.2186 41.8944 18.8682C41.8944 30.8877 32.1619 40.6289 20.1565 40.6289C11.0349 40.6289 3.22139 35.0006 -0.00292969 27.0264H-0.000226985Z" fill="white"/>
<path d="M1.55371 21.7553C3.19425 30.1895 10.6159 36.5565 19.5213 36.5565C29.6321 36.5565 37.8267 28.3495 37.8267 18.2295C37.824 8.74 30.6186 0.933529 21.3834 0C27.5078 2.21612 31.8834 8.08788 31.8834 14.9852C31.8834 23.7874 24.7564 30.9228 15.9645 30.9228C9.58885 30.9228 4.09425 27.1725 1.55371 21.7553Z" fill="white"/>
<path d="M2.7998 14.3222C2.7998 20.0587 6.56197 24.9158 11.7485 26.5609C9.15386 24.5045 7.4917 21.3169 7.4917 17.7479C7.4917 11.5352 12.5187 6.50224 18.7241 6.50224C22.6728 6.50224 26.1458 8.54248 28.1512 11.6299C26.9133 5.83389 21.7701 1.49365 15.616 1.49365C8.53764 1.49365 2.7998 7.23553 2.7998 14.3222Z" fill="white"/>
</g>
<defs>
<clipPath id="clip0_10931_10705">
<rect width="240" height="46" fill="white"/>
</clipPath>
</defs>
</svg>
