<svg width="163" height="140" viewBox="0 0 163 140" fill="none" xmlns="http://www.w3.org/2000/svg">
<path d="M120.457 54.5375L120.037 54.0243L120.457 54.5375ZM126.005 11.4221L126.434 10.907L126.005 11.4221ZM135.547 139.694L143.148 136.384L136.068 132.429L135.547 139.694ZM0.98812 6.70775C1.92143 6.78121 2.86671 6.85758 3.82317 6.93686L3.97952 5.68265C3.02073 5.60317 2.0731 5.52661 1.13742 5.45296L0.98812 6.70775ZM9.55984 7.43568C11.4379 7.60647 13.35 7.78758 15.2909 7.97901L15.4737 6.7272C13.5286 6.53534 11.6121 6.35382 9.72975 6.18265L9.55984 7.43568ZM21.0164 8.56537C22.9034 8.76572 24.8115 8.97534 26.7361 9.19422L26.9442 7.94508C25.0153 7.72572 23.103 7.51564 21.2119 7.31485L21.0164 8.56537ZM32.4488 9.86571C34.3402 10.0953 36.2428 10.3336 38.1527 10.5805L38.3866 9.33455C36.4723 9.08701 34.5652 8.84819 32.6696 8.61807L32.4488 9.86571ZM43.8431 11.3397C45.735 11.5999 47.6298 11.8686 49.5237 12.1457L49.7856 10.9035C47.8868 10.6257 45.9871 10.3564 44.0907 10.0955L43.8431 11.3397ZM55.1963 13.0018C57.0896 13.2966 58.978 13.5997 60.8574 13.9114L61.151 12.6742C59.2658 12.3616 57.372 12.0575 55.4734 11.762L55.1963 13.0018ZM66.5035 14.8784C68.3941 15.2129 70.2713 15.5562 72.1309 15.9082L72.462 14.6777C70.5956 14.3244 68.7119 13.9799 66.815 13.6443L66.5035 14.8784ZM77.7357 17.0073C79.6203 17.3903 81.4813 17.7826 83.3141 18.1843L83.6921 16.9633C81.8506 16.5597 79.9813 16.1657 78.0889 15.7811L77.7357 17.0073ZM88.8618 19.4501C90.738 19.8962 92.577 20.3527 94.3732 20.8197L94.8133 19.6136C93.0052 19.1435 91.155 18.6843 89.2684 18.2357L88.8618 19.4501ZM99.8403 22.3125C101.704 22.8479 103.509 23.3956 105.249 23.9557L105.778 22.7756C104.021 22.2098 102.199 21.6571 100.321 21.1174L99.8403 22.3125ZM110.572 25.7864C112.402 26.4607 114.134 27.1509 115.757 27.8567L116.433 26.732C114.78 26.0127 113.02 25.3115 111.165 24.628L110.572 25.7864ZM120.696 30.2394C122.417 31.1687 123.942 32.1197 125.253 33.0913L126.222 32.1348C124.845 31.1148 123.259 30.1273 121.489 29.1715L120.696 30.2394ZM128.951 36.5918C130.03 37.9949 130.65 39.4216 130.789 40.8761L132.255 40.7611C132.093 39.0611 131.37 37.4364 130.182 35.8912L128.951 36.5918ZM129.743 45.3337C129.046 46.5932 127.994 47.902 126.541 49.2587L127.62 50.1055C129.152 48.6754 130.297 47.2621 131.071 45.8639L129.743 45.3337ZM122.399 52.5115C121.664 53.011 120.877 53.5153 120.037 54.0243L120.878 55.0507C121.739 54.5292 122.548 54.0108 123.306 53.4957L122.399 52.5115ZM120.037 54.0243C119.215 54.5219 118.404 54.986 117.603 55.4176L118.376 56.4823C119.201 56.038 120.035 55.5611 120.878 55.0507L120.037 54.0243ZM112.666 57.7281C110.856 58.4439 109.108 58.9871 107.422 59.3731L107.789 60.5903C109.562 60.184 111.391 59.6151 113.272 58.8712L112.666 57.7281ZM101.972 60.1014C100.055 60.1659 98.2319 60.0148 96.5055 59.6751L96.1625 60.9034C98.0169 61.2682 99.9693 61.4293 102.015 61.3605L101.972 60.1014ZM91.3837 58.0108C89.7865 57.2698 88.2908 56.3495 86.9011 55.2766L85.9105 56.2166C87.3781 57.3496 88.9668 58.3286 90.6733 59.1203L91.3837 58.0108ZM83.1802 51.7712C82.0845 50.526 81.0854 49.1734 80.1868 47.7364L78.8888 48.3402C79.8196 49.8288 80.8583 51.2359 82.0025 52.5363L83.1802 51.7712ZM77.8732 43.3682C77.2152 41.8866 76.6499 40.3519 76.1802 38.7838L74.7554 39.1086C75.2381 40.7202 75.8197 42.2997 76.498 43.8268L77.8732 43.3682ZM75.071 34.0562C74.7966 32.4609 74.6186 30.8533 74.5395 29.2527L73.07 29.3188C73.1514 30.9633 73.3342 32.6143 73.6159 34.2522L75.071 34.0562ZM74.606 24.424C74.735 22.7901 74.9741 21.1865 75.3255 19.6348L73.8817 19.407C73.518 21.0131 73.2715 22.6688 73.1386 24.3517L74.606 24.424ZM76.7849 14.995C77.4259 13.4433 78.2025 11.9829 79.1166 10.6405L77.8482 10.0138C76.8824 11.4321 76.0678 12.9662 75.399 14.5853L76.7849 14.995ZM82.4466 6.83903C83.7326 5.70109 85.1785 4.72848 86.7886 3.95248L86.0774 2.85576C84.3344 3.69584 82.7751 4.74606 81.395 5.96729L82.4466 6.83903ZM91.9174 2.28189C93.6161 1.95859 95.4534 1.80862 97.4345 1.85793L97.4921 0.598401C95.3976 0.546266 93.438 0.704479 91.6124 1.05194L91.9174 2.28189ZM102.916 2.45296C104.617 2.76858 106.403 3.21278 108.276 3.79702L108.791 2.61249C106.862 2.01063 105.012 1.54999 103.242 1.22135L102.916 2.45296ZM113.463 5.68922C115.07 6.35602 116.732 7.11682 118.449 7.97708L119.201 6.88768C117.454 6.01227 115.759 5.23601 114.115 4.55408L113.463 5.68922ZM123.153 10.5064C123.95 10.9631 124.757 11.4399 125.575 11.9372L126.434 10.907C125.606 10.4034 124.787 9.92015 123.979 9.45692L123.153 10.5064ZM125.575 11.9372C126.395 12.4351 127.197 12.9383 127.983 13.4464L128.877 12.4378C128.079 11.9222 127.265 11.4119 126.434 10.907L125.575 11.9372ZM132.57 16.6041C134.087 17.7169 135.533 18.8505 136.91 20.0035L137.944 19.0978C136.543 17.9256 135.074 16.7736 133.533 15.6434L132.57 16.6041ZM140.971 23.6462C142.295 24.9205 143.543 26.2151 144.718 27.5281L145.888 26.7549C144.692 25.4178 143.421 24.1 142.074 22.8032L140.971 23.6462ZM148.118 31.6381C149.203 33.0607 150.21 34.5018 151.143 35.959L152.434 35.3445C151.484 33.8594 150.457 32.391 149.352 30.9414L148.118 31.6381ZM153.771 40.4685C154.585 42.0114 155.323 43.5694 155.989 45.14L157.372 44.6993C156.694 43.0994 155.942 41.5121 155.112 39.9398L153.771 40.4685ZM157.791 49.9449C158.325 51.5717 158.788 53.2091 159.182 54.8544L160.623 54.5886C160.221 52.9149 159.751 51.2486 159.207 49.5925L157.791 49.9449ZM160.173 59.8406C160.438 61.5152 160.639 63.1952 160.778 64.8779L162.245 64.7758C162.103 63.0673 161.9 61.3606 161.63 59.6586L160.173 59.8406ZM161.019 69.9439C161.04 71.6368 161.005 73.3296 160.916 75.0195L162.385 75.0635C162.475 73.3508 162.511 71.6345 162.489 69.9172L161.019 69.9439ZM160.492 80.0882C160.3 81.7779 160.057 83.4618 159.769 85.137L161.224 85.3081C161.516 83.6133 161.761 81.9089 161.956 80.198L160.492 80.0882ZM158.769 90.1553C158.39 91.8278 157.968 93.4883 157.509 95.1341L158.939 95.4153C159.403 93.7525 159.829 92.0742 160.212 90.3834L158.769 90.1553ZM156.008 100.066C155.465 101.712 154.888 103.339 154.28 104.945L155.679 105.322C156.292 103.702 156.875 102.059 157.423 100.397L156.008 100.066ZM152.336 109.774C151.646 111.391 150.929 112.981 150.189 114.541L151.55 115.005C152.297 113.432 153.021 111.828 153.717 110.196L152.336 109.774ZM147.847 119.238C147.022 120.817 146.177 122.357 145.32 123.855L146.639 124.401C147.504 122.89 148.356 121.336 149.188 119.744L147.847 119.238ZM142.593 128.412C141.627 129.957 140.653 131.445 139.679 132.872L140.947 133.5C141.93 132.06 142.913 130.557 143.888 128.998L142.593 128.412Z" fill="#79B93C"/>
</svg>
