<svg width="157" height="146" viewBox="0 0 157 146" fill="none" xmlns="http://www.w3.org/2000/svg">
<path d="M41.3346 59.2807L41.7121 58.7351L41.3346 59.2807ZM32.3133 16.7562L31.8435 16.2776L32.3133 16.7562ZM33.1908 145.38L25.3473 142.696L32.0832 138.18L33.1908 145.38ZM156.537 1.93225C155.613 2.08105 154.677 2.23373 153.73 2.39022L153.473 1.15278C154.422 0.995915 155.36 0.842854 156.287 0.69367L156.537 1.93225ZM148.053 3.35201C146.195 3.67434 144.304 4.00972 142.385 4.35771L142.101 3.12482C144.024 2.77605 145.92 2.43992 147.782 2.11685L148.053 3.35201ZM136.725 5.40585C134.861 5.75837 132.976 6.12184 131.075 6.49587L130.767 5.26769C132.672 4.89283 134.561 4.52857 136.429 4.17527L136.725 5.40585ZM125.436 7.62783C123.569 8.00985 121.692 8.40145 119.809 8.80228L119.475 7.57932C121.363 7.17755 123.244 6.78506 125.115 6.40217L125.436 7.62783ZM114.198 10.0198C112.334 10.4324 110.467 10.8536 108.602 11.2832L108.24 10.0664C110.11 9.63566 111.982 9.21334 113.851 8.79971L114.198 10.0198ZM103.017 12.596C101.154 13.0431 99.2963 13.4982 97.4483 13.961L97.0555 12.7517C98.9091 12.2874 100.772 11.831 102.641 11.3826L103.017 12.596ZM91.8991 15.3822C90.0418 15.8687 88.1985 16.3629 86.3736 16.8643L85.9438 15.6647C87.7755 15.1614 89.6252 14.6655 91.4887 14.1773L91.8991 15.3822ZM80.8762 18.4137C79.0288 18.9481 77.2057 19.4898 75.4114 20.0386L74.9358 18.8523C76.7386 18.3009 78.5698 17.7567 80.4249 17.2202L80.8762 18.4137ZM69.9845 21.7497C68.1506 22.3462 66.3546 22.9502 64.6021 23.5611L64.0657 22.3946C65.8299 21.7796 67.6368 21.172 69.4809 20.5722L69.9845 21.7497ZM59.2739 25.4918C57.4595 26.1763 55.7045 26.8685 54.0162 27.5676L53.3927 26.4343C55.0984 25.728 56.8694 25.0296 58.6984 24.3395L59.2739 25.4918ZM48.8587 29.8234C47.0891 30.6438 45.4189 31.4719 43.8586 32.3069L43.0934 31.2406C44.6833 30.3898 46.3808 29.5483 48.1742 28.7169L48.8587 29.8234ZM39.1286 35.0817C37.4887 36.1474 36.0456 37.2188 34.8175 38.2934L33.7746 37.4184C35.0638 36.2903 36.5647 35.1776 38.2514 34.0816L39.1286 35.0817ZM31.4152 42.0818C30.4536 43.5677 29.9507 45.0399 29.9305 46.5009L28.4601 46.505C28.4837 44.7975 29.0728 43.1196 30.1318 41.4832L31.4152 42.0818ZM31.3339 50.8592C32.1304 52.0581 33.2852 53.2774 34.8435 54.5119L33.8366 55.4434C32.194 54.142 30.9376 52.8261 30.0534 51.4952L31.3339 50.8592ZM39.2348 57.4186C40.0079 57.8569 40.8332 58.2958 41.7121 58.7351L40.9571 59.8263C40.0566 59.3762 39.2082 58.9251 38.4108 58.473L39.2348 57.4186ZM41.7121 58.7351C42.5713 59.1645 43.4176 59.5613 44.2511 59.9266L43.566 61.0506C42.708 60.6745 41.8384 60.2667 40.9571 59.8263L41.7121 58.7351ZM49.3583 61.8298C51.2202 62.3967 53.0069 62.7965 54.7182 63.0447L54.4517 64.2875C52.6509 64.0263 50.7825 63.6073 48.8476 63.0181L49.3583 61.8298ZM60.2099 63.3291C62.1261 63.2382 63.9305 62.94 65.6237 62.4616L66.0651 63.658C64.2463 64.1719 62.3134 64.4905 60.2693 64.5876L60.2099 63.3291ZM70.5939 60.3879C72.1258 59.52 73.5421 58.4815 74.8403 57.2997L75.9038 58.1563C74.5328 59.4044 73.0286 60.5089 71.3919 61.4362L70.5939 60.3879ZM78.2651 53.5044C79.2564 52.1746 80.1427 50.7455 80.9219 49.2404L82.2645 49.7371C81.4574 51.2962 80.536 52.7828 79.5009 54.1716L78.2651 53.5044ZM82.8741 44.6992C83.41 43.1692 83.8491 41.5937 84.1902 39.9927L85.6367 40.2011C85.2861 41.8465 84.8343 43.4679 84.282 45.0449L82.8741 44.6992ZM84.9129 35.1908C85.0572 33.5785 85.1044 31.9618 85.0537 30.3601L86.5237 30.307C86.5758 31.9526 86.5272 33.613 86.3791 35.2684L84.9129 35.1908ZM84.5963 25.5526C84.3354 23.9345 83.9672 22.3555 83.4913 20.8374L84.9119 20.4934C85.4044 22.0648 85.7843 23.695 86.053 25.3616L84.5963 25.5526ZM81.6609 16.331C80.8964 14.8364 80.004 13.4437 78.9842 12.1797L80.1977 11.4524C81.2752 12.7878 82.2113 14.2509 83.0091 15.8105L81.6609 16.331ZM75.3573 8.66041C73.9833 7.63036 72.4634 6.77805 70.7957 6.135L71.4158 4.98429C73.2211 5.68044 74.8603 6.60093 76.3348 7.70637L75.3573 8.66041ZM65.5484 4.88529C63.8292 4.70062 61.9857 4.69996 60.0152 4.90955L59.8557 3.65882C61.9391 3.43722 63.9051 3.43621 65.7529 3.63468L65.5484 4.88529ZM54.5994 5.94661C52.9302 6.3989 51.1862 6.98627 49.3668 7.72028L48.757 6.5814C50.6312 5.82526 52.4373 5.21634 54.1754 4.74538L54.5994 5.94661ZM44.3495 10.0264C42.8017 10.8212 41.207 11.7141 39.5651 12.7106L38.7273 11.6857C40.3982 10.6716 42.0249 9.7606 43.6078 8.9478L44.3495 10.0264ZM35.0818 15.6125C34.3246 16.1323 33.5584 16.6729 32.7831 17.2348L31.8435 16.2776C32.6286 15.7085 33.4052 15.1606 34.1731 14.6334L35.0818 15.6125ZM32.7831 17.2348C32.0068 17.7975 31.2477 18.3639 30.5055 18.9341L29.5332 18.0012C30.2863 17.4227 31.0563 16.8481 31.8435 16.2776L32.7831 17.2348ZM26.1896 22.4529C24.7675 23.6849 23.4181 24.9319 22.1387 26.1926L21.0355 25.3737C22.3362 24.0919 23.7075 22.8246 25.1519 21.5733L26.1896 22.4529ZM18.3862 30.1523C17.17 31.5296 16.031 32.921 14.966 34.3248L13.7367 33.649C14.8213 32.2194 15.9809 30.803 17.2185 29.4014L18.3862 30.1523ZM11.9098 38.6967C10.9439 40.2026 10.0567 41.7205 9.24479 43.2485L7.90808 42.7405C8.73547 41.1833 9.6395 39.6366 10.6237 38.1023L11.9098 38.6967ZM6.99064 47.956C6.30427 49.5597 5.6949 51.1724 5.15867 52.7917L3.74448 52.4645C4.29071 50.815 4.91155 49.1719 5.61098 47.5377L6.99064 47.956ZM3.7512 57.7269C3.35085 59.3915 3.02258 61.061 2.76231 62.7329L1.30476 62.5847C1.56953 60.8839 1.90358 59.1849 2.31115 57.4903L3.7512 57.7269ZM2.17913 67.7829C2.05025 69.4735 1.98647 71.1642 1.98357 72.8527L0.51306 72.8698C0.516007 71.1553 0.580774 69.4378 0.711752 67.7196L2.17913 67.7829ZM2.15415 77.9215C2.26959 79.6106 2.44219 81.295 2.66768 82.9721L1.2068 83.1349C0.978296 81.4352 0.803258 79.7274 0.686152 78.014L2.15415 77.9215ZM3.50054 87.9898C3.82933 89.6584 4.2072 91.3172 4.62976 92.9636L3.19337 93.252C2.76585 91.5862 2.38338 89.9074 2.05046 88.2179L3.50054 87.9898ZM6.03374 97.8843C6.54705 99.5206 7.10149 101.142 7.69256 102.745L6.28978 103.141C5.6926 101.521 5.13223 99.8828 4.61328 98.2286L6.03374 97.8843ZM9.58816 107.539C10.262 109.135 10.9693 110.711 11.705 112.262L10.3416 112.751C9.59896 111.186 8.88496 109.595 8.20448 107.983L9.58816 107.539ZM14.0339 116.918C14.8525 118.474 15.6965 120.001 16.5605 121.495L15.2409 122.068C14.3693 120.56 13.5178 119.02 12.6918 117.45L14.0339 116.918ZM19.2748 125.987C20.2253 127.494 21.1918 128.961 22.168 130.384L20.8973 131.035C19.9126 129.599 18.9376 128.119 17.9789 126.599L19.2748 125.987ZM25.2548 134.705C26.3426 136.167 27.4339 137.572 28.5201 138.914L27.3075 139.643C26.2108 138.287 25.1093 136.869 24.0116 135.394L25.2548 134.705Z" fill="#79B93C"/>
</svg>
