<svg width="639" height="652" viewBox="0 0 639 652" fill="none" xmlns="http://www.w3.org/2000/svg">
<path fill-rule="evenodd" clip-rule="evenodd" d="M504.47 103.823C498.891 106.592 494.056 110.379 489.967 115.183L479.289 127.728C477.464 129.857 476.664 132.281 476.889 135.002C477.115 137.722 478.292 139.991 480.42 141.809C482.549 143.627 484.974 144.427 487.694 144.208C490.415 143.99 492.685 142.813 494.502 140.678L505.18 128.133C507.596 125.274 510.362 123.102 513.479 121.618C516.595 120.134 519.8 119.257 523.093 118.985C526.387 118.714 529.648 119.072 532.877 120.059C536.106 121.046 539.144 122.751 541.991 125.175L562.008 142.214C566.806 146.304 572.055 149.241 577.754 151.024C583.454 152.807 589.186 153.464 594.95 152.994C600.714 152.524 606.307 150.954 611.728 148.284C617.149 145.613 621.905 141.876 625.994 137.072L636.445 124.794C638.262 122.646 639.061 120.218 638.844 117.51C638.626 114.803 637.449 112.537 635.313 110.713C633.178 108.888 630.789 108.043 628.147 108.175C625.506 108.308 623.276 109.442 621.459 111.577L610.781 124.122C608.508 126.778 605.857 128.854 602.827 130.351C599.798 131.847 596.636 132.725 593.342 132.983C590.047 133.241 586.786 132.88 583.557 131.899C580.329 130.919 577.381 129.293 574.711 127.021L554.694 109.981C549.876 105.72 544.577 102.705 538.799 100.935C533.021 99.1646 527.25 98.5112 521.485 98.9745C515.721 99.4378 510.049 101.054 504.47 103.823ZM500.38 54.542C494.88 57.2252 490.085 60.9689 485.996 65.7731L475.318 78.3176C473.493 80.4468 472.693 82.8716 472.918 85.5919C473.144 88.3122 474.321 90.5814 476.449 92.3994C478.578 94.2175 481.003 95.0172 483.724 94.7986C486.444 94.5799 488.714 93.403 490.531 91.2677L501.209 78.7232C503.625 75.8636 506.391 73.6919 509.508 72.2082C512.624 70.7244 515.829 69.8469 519.122 69.5756C522.416 69.3043 525.677 69.6621 528.906 70.6492C532.135 71.6362 535.173 73.3415 538.02 75.7649L558.037 92.8045C562.834 96.8813 568.083 99.8146 573.783 101.604C579.483 103.394 585.215 104.054 590.979 103.584C596.743 103.114 602.336 101.544 607.757 98.8738C613.178 96.2036 617.934 92.4664 622.023 87.6621L632.701 75.1176C634.512 72.9829 635.266 70.5188 634.962 67.7253C634.658 64.9317 633.445 62.7085 631.323 61.0557C629.18 59.232 626.755 58.4721 624.048 58.7759C621.341 59.0797 619.154 60.2102 617.488 62.1675L606.81 74.712C604.537 77.3679 601.886 79.4441 598.856 80.9407C595.827 82.4374 592.665 83.3148 589.371 83.5729C586.076 83.831 582.815 83.4699 579.587 82.4894C576.358 81.509 573.41 79.8828 570.741 77.6108L550.723 60.5712C545.904 56.4696 540.573 53.5397 534.73 51.7814C528.886 50.0232 523.075 49.373 517.297 49.8307C511.519 50.2885 505.88 51.8589 500.38 54.542ZM496.537 5.12182C491.117 7.7986 486.361 11.5391 482.272 16.3434L471.594 28.8879C469.77 31.0237 469.006 33.4057 469.304 36.034C469.601 38.6623 470.735 40.8919 472.706 42.7227C474.841 44.5468 477.23 45.3925 479.872 45.2598C482.513 45.1271 484.743 43.9931 486.56 41.8579L497.238 29.3133C499.654 26.4537 502.381 24.2852 505.418 22.8078C508.455 21.3305 511.618 20.4564 514.905 20.1856C518.191 19.9148 521.492 20.2695 524.807 21.2496C528.121 22.2298 531.202 23.9316 534.049 26.355L554.067 43.3946C558.863 47.4715 564.112 50.4047 569.812 52.1943C575.512 53.984 581.244 54.6439 587.008 54.174C592.772 53.7041 598.365 52.1341 603.786 49.4639C609.207 46.7937 613.963 43.0565 618.052 38.2522L628.711 25.4607C630.377 23.5034 631.097 21.1248 630.872 18.3249C630.647 15.525 629.556 13.292 627.599 11.6259C625.456 9.80229 623.032 9.04238 620.324 9.34616C617.617 9.64994 615.43 10.7805 613.764 12.7378L603.086 25.2823C600.813 27.9381 598.162 30.0144 595.133 31.511C592.103 33.0076 588.941 33.885 585.647 34.1432C582.352 34.4013 579.091 34.0401 575.863 33.0597C572.634 32.0792 569.686 30.453 567.017 28.1811L546.752 11.1613C541.94 7.05917 536.606 4.1295 530.749 2.37234C524.892 0.615167 519.081 -0.0350813 513.316 0.421607C507.551 0.878296 501.958 2.44504 496.537 5.12182ZM458.672 190.472C472.193 206.321 484.287 223.466 494.738 241.72L354.788 397.034C335.849 416.14 310.238 427.18 283.323 427.817C269.892 428.135 256.663 425.85 244.315 421.22L455.556 194.258C456.685 193.045 457.723 191.78 458.672 190.472ZM347.159 104.746C366.107 113.805 384.115 124.592 400.964 136.92C399.759 137.939 398.602 139.04 397.5 140.224L186.259 367.186C180.757 355.202 177.53 342.17 176.885 328.751C175.591 301.86 184.767 275.524 202.467 255.264L347.159 104.746ZM174.602 73.0834C204.975 70.6034 234.735 72.2308 263.336 77.5012L144.688 200.926C144.317 201.312 143.954 201.706 143.599 202.107C111.851 237.931 95.3661 284.748 97.6654 332.561C99.3191 366.948 110.595 399.891 129.833 427.812L-55.3263 626.751C-99.2512 574.917 -127.968 509.35 -133.919 436.467C-149.069 250.926 -10.9394 88.2333 174.602 73.0834ZM229.465 744.988C145.284 751.862 65.8069 727.183 2.67853 680.84L187.888 481.847C217.116 499.034 250.782 507.92 285.2 507.105C333.055 505.972 378.57 486.175 412.027 451.941C412.401 451.558 412.768 451.168 413.126 450.77L528.056 323.223C532.985 342.04 536.348 361.545 537.986 381.604C553.136 567.146 415.006 729.838 229.465 744.988Z" fill="#FFEDE4"/>
</svg>
